<svg width="36" height="31" viewBox="0 0 36 31" fill="none" xmlns="http://www.w3.org/2000/svg">
<path d="M30 12.2882C30 12.6502 29.8563 12.9974 29.6006 13.2534C29.3449 13.5094 28.998 13.6532 28.6364 13.6532H21.8182C21.4565 13.6532 21.1097 13.5094 20.8539 13.2534C20.5982 12.9974 20.4545 12.6502 20.4545 12.2882C20.4545 11.9261 20.5982 11.5789 20.8539 11.3229C21.1097 11.067 21.4565 10.9231 21.8182 10.9231H28.6364C28.998 10.9231 29.3449 11.067 29.6006 11.3229C29.8563 11.5789 30 11.9261 30 12.2882ZM28.6364 16.3832H21.8182C21.4565 16.3832 21.1097 16.5271 20.8539 16.7831C20.5982 17.039 20.4545 17.3862 20.4545 17.7483C20.4545 18.1103 20.5982 18.4575 20.8539 18.7135C21.1097 18.9695 21.4565 19.1133 21.8182 19.1133H28.6364C28.998 19.1133 29.3449 18.9695 29.6006 18.7135C29.8563 18.4575 30 18.1103 30 17.7483C30 17.3862 29.8563 17.039 29.6006 16.7831C29.3449 16.5271 28.998 16.3832 28.6364 16.3832ZM35.4545 2.73298V27.3035C35.4545 28.0275 35.1672 28.7219 34.6557 29.2339C34.1443 29.7459 33.4506 30.0335 32.7273 30.0335H2.72727C2.00395 30.0335 1.31026 29.7459 0.798799 29.2339C0.287337 28.7219 0 28.0275 0 27.3035V2.73298C0 2.00893 0.287337 1.31453 0.798799 0.802543C1.31026 0.290559 2.00395 0.00292969 2.72727 0.00292969H32.7273C33.4506 0.00292969 34.1443 0.290559 34.6557 0.802543C35.1672 1.31453 35.4545 2.00893 35.4545 2.73298ZM32.7273 27.3035V2.73298H2.72727V27.3035H32.7273ZM19.0466 21.5021C19.137 21.8528 19.0845 22.2251 18.9007 22.5371C18.7169 22.8491 18.4168 23.0752 18.0665 23.1657C17.7161 23.2562 17.3442 23.2037 17.0325 23.0197C16.7208 22.8357 16.495 22.5353 16.4045 22.1846C15.9562 20.434 14.1784 19.1133 12.271 19.1133C10.3636 19.1133 8.5875 20.434 8.1375 22.1846C8.04708 22.5353 7.82119 22.8357 7.50952 23.0197C7.19785 23.2037 6.82592 23.2562 6.47557 23.1657C6.12521 23.0752 5.82512 22.8491 5.64131 22.5371C5.45751 22.2251 5.40504 21.8528 5.49545 21.5021C5.93795 19.8534 6.98396 18.4317 8.42557 17.5196C7.65949 16.7573 7.13677 15.7845 6.92367 14.7244C6.71057 13.6644 6.81669 12.5649 7.22858 11.5653C7.64046 10.5657 8.33957 9.71103 9.23727 9.10963C10.135 8.50823 11.1908 8.18718 12.271 8.18718C13.3512 8.18718 14.4071 8.50823 15.3048 9.10963C16.2025 9.71103 16.9016 10.5657 17.3135 11.5653C17.7253 12.5649 17.8315 13.6644 17.6184 14.7244C17.4053 15.7845 16.8826 16.7573 16.1165 17.5196C17.5597 18.4304 18.6066 19.8525 19.0483 21.5021H19.0466ZM12.2727 16.3832C12.8121 16.3832 13.3394 16.2231 13.7879 15.9231C14.2364 15.6232 14.586 15.1968 14.7924 14.6979C14.9988 14.1991 15.0528 13.6502 14.9476 13.1206C14.8424 12.591 14.5826 12.1046 14.2012 11.7228C13.8198 11.341 13.3338 11.0809 12.8048 10.9756C12.2758 10.8703 11.7274 10.9243 11.229 11.131C10.7307 11.3376 10.3048 11.6875 10.0051 12.1365C9.7054 12.5854 9.54545 13.1132 9.54545 13.6532C9.54545 14.3772 9.83279 15.0716 10.3443 15.5836C10.8557 16.0956 11.5494 16.3832 12.2727 16.3832Z" fill="#FFFFFC"/>
</svg>
