<svg width="32" height="34" viewBox="0 0 32 34" fill="none" xmlns="http://www.w3.org/2000/svg">
<path d="M30.6667 30.6667H28V13.885L29.885 12C30.1337 11.7533 30.3309 11.4596 30.4651 11.136C30.5993 10.8124 30.6678 10.4653 30.6667 10.115V2.66667C30.6667 1.95942 30.3857 1.28115 29.8856 0.781048C29.3855 0.280951 28.7072 0 28 0H24C23.6464 0 23.3072 0.140476 23.0572 0.390525C22.8071 0.640573 22.6667 0.979711 22.6667 1.33333V5.33333H20V1.33333C20 0.979711 19.8595 0.640573 19.6095 0.390525C19.3594 0.140476 19.0203 0 18.6667 0H13.3333C12.9797 0 12.6406 0.140476 12.3905 0.390525C12.1405 0.640573 12 0.979711 12 1.33333V5.33333H9.33333V1.33333C9.33333 0.979711 9.19286 0.640573 8.94281 0.390525C8.69276 0.140476 8.35362 0 8 0H4C3.29276 0 2.61448 0.280951 2.11438 0.781048C1.61428 1.28115 1.33333 1.95942 1.33333 2.66667V10.115C1.33221 10.4653 1.40074 10.8124 1.53493 11.136C1.66912 11.4596 1.8663 11.7533 2.115 12L4 13.885V30.6667H1.33333C0.979711 30.6667 0.640573 30.8071 0.390525 31.0572C0.140476 31.3072 0 31.6464 0 32C0 32.3536 0.140476 32.6928 0.390525 32.9428C0.640573 33.1929 0.979711 33.3333 1.33333 33.3333H30.6667C31.0203 33.3333 31.3594 33.1929 31.6095 32.9428C31.8595 32.6928 32 32.3536 32 32C32 31.6464 31.8595 31.3072 31.6095 31.0572C31.3594 30.8071 31.0203 30.6667 30.6667 30.6667ZM6.27667 12.39L4 10.115V2.66667H6.66667V6.66667C6.66667 7.02029 6.80714 7.35943 7.05719 7.60948C7.30724 7.85952 7.64638 8 8 8H13.3333C13.687 8 14.0261 7.85952 14.2761 7.60948C14.5262 7.35943 14.6667 7.02029 14.6667 6.66667V2.66667H17.3333V6.66667C17.3333 7.02029 17.4738 7.35943 17.7239 7.60948C17.9739 7.85952 18.313 8 18.6667 8H24C24.3536 8 24.6928 7.85952 24.9428 7.60948C25.1929 7.35943 25.3333 7.02029 25.3333 6.66667V2.66667H28V10.115L25.7233 12.39C25.5996 12.5139 25.5014 12.661 25.4345 12.8229C25.3676 12.9847 25.3332 13.1582 25.3333 13.3333V30.6667H21.3333V22.6667C21.3333 21.2522 20.7714 19.8956 19.7712 18.8954C18.771 17.8952 17.4145 17.3333 16 17.3333C14.5855 17.3333 13.229 17.8952 12.2288 18.8954C11.2286 19.8956 10.6667 21.2522 10.6667 22.6667V30.6667H6.66667V13.3333C6.6668 13.1582 6.63243 12.9847 6.56552 12.8229C6.4986 12.661 6.40045 12.5139 6.27667 12.39ZM18.6667 30.6667H13.3333V22.6667C13.3333 21.9594 13.6143 21.2811 14.1144 20.781C14.6145 20.281 15.2928 20 16 20C16.7072 20 17.3855 20.281 17.8856 20.781C18.3857 21.2811 18.6667 21.9594 18.6667 22.6667V30.6667Z" fill="white"/>
</svg>
