<svg width="30" height="33" viewBox="0 0 30 33" fill="none" xmlns="http://www.w3.org/2000/svg">
<path d="M27.0767 19.7511H15.9999V12.2342C17.4941 11.9289 18.8218 11.0791 19.7256 9.84957C20.6294 8.62002 21.045 7.09833 20.8917 5.5795C20.7385 4.06067 20.0273 2.65291 18.896 1.62916C17.7648 0.605399 16.2941 0.0385742 14.7691 0.0385742C13.2441 0.0385742 11.7734 0.605399 10.6422 1.62916C9.51094 2.65291 8.79975 4.06067 8.64647 5.5795C8.49319 7.09833 8.90876 8.62002 9.81259 9.84957C10.7164 11.0791 12.0441 11.9289 13.5383 12.2342V19.7511H2.46152C1.80868 19.7511 1.18259 20.0107 0.720961 20.4728C0.259338 20.9349 0 21.5616 0 22.2151V29.6072C0 30.2607 0.259338 30.8874 0.720961 31.3495C1.18259 31.8116 1.80868 32.0712 2.46152 32.0712H27.0767C27.7295 32.0712 28.3556 31.8116 28.8172 31.3495C29.2789 30.8874 29.5382 30.2607 29.5382 29.6072V22.2151C29.5382 21.5616 29.2789 20.9349 28.8172 20.4728C28.3556 20.0107 27.7295 19.7511 27.0767 19.7511ZM11.0768 6.19892C11.0768 5.46791 11.2934 4.75332 11.6991 4.14551C12.1048 3.5377 12.6815 3.06397 13.3561 2.78423C14.0308 2.50448 14.7732 2.43129 15.4894 2.5739C16.2057 2.71651 16.8636 3.06853 17.3799 3.58543C17.8963 4.10233 18.248 4.7609 18.3904 5.47786C18.5329 6.19482 18.4598 6.93797 18.1803 7.61334C17.9009 8.2887 17.4276 8.86594 16.8204 9.27207C16.2132 9.67819 15.4994 9.89496 14.7691 9.89496C13.7898 9.89496 12.8507 9.50556 12.1583 8.81242C11.4658 8.11928 11.0768 7.17917 11.0768 6.19892ZM27.0767 29.6072H2.46152V22.2151H27.0767V29.6072ZM20.9229 14.823H25.8459C26.1723 14.823 26.4854 14.9528 26.7162 15.1839C26.947 15.4149 27.0767 15.7283 27.0767 16.055C27.0767 16.3818 26.947 16.6951 26.7162 16.9262C26.4854 17.1572 26.1723 17.287 25.8459 17.287H20.9229C20.5965 17.287 20.2834 17.1572 20.0526 16.9262C19.8218 16.6951 19.6921 16.3818 19.6921 16.055C19.6921 15.7283 19.8218 15.4149 20.0526 15.1839C20.2834 14.9528 20.5965 14.823 20.9229 14.823Z" fill="#C94E23"/>
</svg>
