<svg width="30" height="33" viewBox="0 0 30 33" fill="none" xmlns="http://www.w3.org/2000/svg">
<path d="M27.0767 19.7516H15.9999V12.2347C17.4941 11.9294 18.8218 11.0796 19.7256 9.85006C20.6294 8.62051 21.045 7.09882 20.8917 5.57999C20.7385 4.06116 20.0273 2.6534 18.896 1.62964C17.7648 0.605887 16.2941 0.0390625 14.7691 0.0390625C13.2441 0.0390625 11.7734 0.605887 10.6422 1.62964C9.51094 2.6534 8.79975 4.06116 8.64647 5.57999C8.49319 7.09882 8.90876 8.62051 9.81259 9.85006C10.7164 11.0796 12.0441 11.9294 13.5383 12.2347V19.7516H2.46152C1.80868 19.7516 1.18259 20.0112 0.720961 20.4733C0.259338 20.9353 0 21.5621 0 22.2156V29.6077C0 30.2612 0.259338 30.8879 0.720961 31.35C1.18259 31.8121 1.80868 32.0717 2.46152 32.0717H27.0767C27.7295 32.0717 28.3556 31.8121 28.8172 31.35C29.2789 30.8879 29.5382 30.2612 29.5382 29.6077V22.2156C29.5382 21.5621 29.2789 20.9353 28.8172 20.4733C28.3556 20.0112 27.7295 19.7516 27.0767 19.7516ZM11.0768 6.19941C11.0768 5.4684 11.2934 4.75381 11.6991 4.146C12.1048 3.53819 12.6815 3.06446 13.3561 2.78472C14.0308 2.50497 14.7732 2.43178 15.4894 2.57439C16.2057 2.717 16.8636 3.06902 17.3799 3.58592C17.8963 4.10282 18.248 4.76139 18.3904 5.47835C18.5329 6.19531 18.4598 6.93846 18.1803 7.61382C17.9009 8.28919 17.4276 8.86643 16.8204 9.27255C16.2132 9.67868 15.4994 9.89545 14.7691 9.89545C13.7898 9.89545 12.8507 9.50605 12.1583 8.81291C11.4658 8.11976 11.0768 7.17966 11.0768 6.19941ZM27.0767 29.6077H2.46152V22.2156H27.0767V29.6077ZM20.9229 14.8235H25.8459C26.1723 14.8235 26.4854 14.9533 26.7162 15.1844C26.947 15.4154 27.0767 15.7288 27.0767 16.0555C27.0767 16.3823 26.947 16.6956 26.7162 16.9267C26.4854 17.1577 26.1723 17.2875 25.8459 17.2875H20.9229C20.5965 17.2875 20.2834 17.1577 20.0526 16.9267C19.8218 16.6956 19.6921 16.3823 19.6921 16.0555C19.6921 15.7288 19.8218 15.4154 20.0526 15.1844C20.2834 14.9533 20.5965 14.8235 20.9229 14.8235Z" fill="#FFFFFC"/>
</svg>
