<svg width="32" height="27" viewBox="0 0 32 27" fill="none" xmlns="http://www.w3.org/2000/svg">
<path d="M32 13.44C32 13.7964 31.8595 14.1383 31.6095 14.3903C31.3594 14.6423 31.0203 14.7839 30.6667 14.7839H4.55257L14.2772 24.5845C14.4011 24.7094 14.4994 24.8576 14.5664 25.0207C14.6335 25.1839 14.668 25.3587 14.668 25.5353C14.668 25.7119 14.6335 25.8868 14.5664 26.0499C14.4994 26.2131 14.4011 26.3613 14.2772 26.4862C14.1534 26.611 14.0063 26.7101 13.8445 26.7776C13.6826 26.8452 13.5091 26.88 13.3339 26.88C13.1588 26.88 12.9853 26.8452 12.8234 26.7776C12.6616 26.7101 12.5145 26.611 12.3906 26.4862L0.391036 14.3908C0.267071 14.266 0.168729 14.1178 0.101633 13.9546C0.0345357 13.7915 0 13.6166 0 13.44C0 13.2634 0.0345357 13.0885 0.101633 12.9254C0.168729 12.7622 0.267071 12.614 0.391036 12.4892L12.3906 0.393845C12.6408 0.14167 12.9801 -2.65709e-09 13.3339 0C13.6878 2.6571e-09 14.0271 0.14167 14.2772 0.393845C14.5274 0.64602 14.668 0.988043 14.668 1.34467C14.668 1.7013 14.5274 2.04332 14.2772 2.2955L4.55257 12.0961H30.6667C31.0203 12.0961 31.3594 12.2377 31.6095 12.4897C31.8595 12.7417 32 13.0836 32 13.44Z" fill="#5688C7"/>
</svg>
