<svg width="32" height="30" viewBox="0 0 32 30" fill="none" xmlns="http://www.w3.org/2000/svg">
<path d="M14.1539 12.3603C14.1539 11.9948 14.2621 11.6375 14.465 11.3335C14.6679 11.0296 14.9562 10.7928 15.2935 10.6529C15.6309 10.513 16.0021 10.4764 16.3602 10.5477C16.7183 10.619 17.0473 10.7951 17.3054 11.0535C17.5636 11.312 17.7395 11.6412 17.8107 11.9997C17.8819 12.3582 17.8454 12.7298 17.7056 13.0675C17.5659 13.4052 17.3293 13.6938 17.0257 13.8968C16.7221 14.0999 16.3652 14.2083 16 14.2083C15.5104 14.2083 15.0408 14.0136 14.6946 13.667C14.3484 13.3204 14.1539 12.8504 14.1539 12.3603ZM9.2308 14.2083C9.59593 14.2083 9.95287 14.0999 10.2565 13.8968C10.5601 13.6938 10.7967 13.4052 10.9364 13.0675C11.0762 12.7298 11.1127 12.3582 11.0415 11.9997C10.9702 11.6412 10.7944 11.312 10.5362 11.0535C10.278 10.7951 9.94908 10.619 9.59097 10.5477C9.23285 10.4764 8.86165 10.513 8.52431 10.6529C8.18697 10.7928 7.89864 11.0296 7.69578 11.3335C7.49292 11.6375 7.38465 11.9948 7.38465 12.3603C7.38465 12.8504 7.57915 13.3204 7.92537 13.667C8.27159 14.0136 8.74117 14.2083 9.2308 14.2083ZM22.7692 14.2083C23.1344 14.2083 23.4913 14.0999 23.7949 13.8968C24.0985 13.6938 24.3351 13.4052 24.4749 13.0675C24.6146 12.7298 24.6512 12.3582 24.5799 11.9997C24.5087 11.6412 24.3329 11.312 24.0747 11.0535C23.8165 10.7951 23.4875 10.619 23.1294 10.5477C22.7713 10.4764 22.4001 10.513 22.0628 10.6529C21.7254 10.7928 21.4371 11.0296 21.2342 11.3335C21.0314 11.6375 20.9231 11.9948 20.9231 12.3603C20.9231 12.8504 21.1176 13.3204 21.4638 13.667C21.81 14.0136 22.2796 14.2083 22.7692 14.2083ZM32 2.50408V22.2164C32 22.8699 31.7407 23.4967 31.279 23.9588C30.8174 24.4209 30.1913 24.6805 29.5385 24.6805H9.07695L4.06157 29.0172L4.04773 29.028C3.6047 29.404 3.04241 29.6098 2.46158 29.6086C2.09999 29.6078 1.74294 29.5279 1.41542 29.3745C0.990606 29.1779 0.631263 28.8632 0.380289 28.4678C0.129315 28.0723 -0.00268627 27.613 4.14347e-05 27.1445V2.50408C4.14347e-05 1.85058 0.259381 1.22384 0.721008 0.761741C1.18264 0.299643 1.80874 0.0400391 2.46158 0.0400391H29.5385C30.1913 0.0400391 30.8174 0.299643 31.279 0.761741C31.7407 1.22384 32 1.85058 32 2.50408ZM29.5385 2.50408H2.46158V27.1445L7.8108 22.5244C8.03318 22.3281 8.3189 22.2187 8.61541 22.2164H29.5385V2.50408Z" fill="#FFFFFC"/>
</svg>
