<svg width="32" height="30" viewBox="0 0 32 30" fill="none" xmlns="http://www.w3.org/2000/svg">
<path d="M14.1539 12.3598C14.1539 11.9943 14.2621 11.637 14.465 11.3331C14.6679 11.0292 14.9562 10.7923 15.2935 10.6524C15.6309 10.5125 16.0021 10.4759 16.3602 10.5472C16.7183 10.6186 17.0473 10.7946 17.3054 11.053C17.5636 11.3115 17.7395 11.6408 17.8107 11.9992C17.8819 12.3577 17.8454 12.7293 17.7056 13.067C17.5659 13.4047 17.3293 13.6933 17.0257 13.8964C16.7221 14.0994 16.3652 14.2078 16 14.2078C15.5104 14.2078 15.0408 14.0131 14.6946 13.6665C14.3484 13.32 14.1539 12.8499 14.1539 12.3598ZM9.2308 14.2078C9.59593 14.2078 9.95287 14.0994 10.2565 13.8964C10.5601 13.6933 10.7967 13.4047 10.9364 13.067C11.0762 12.7293 11.1127 12.3577 11.0415 11.9992C10.9702 11.6408 10.7944 11.3115 10.5362 11.053C10.278 10.7946 9.94908 10.6186 9.59097 10.5472C9.23285 10.4759 8.86165 10.5125 8.52431 10.6524C8.18697 10.7923 7.89864 11.0292 7.69578 11.3331C7.49292 11.637 7.38465 11.9943 7.38465 12.3598C7.38465 12.8499 7.57915 13.32 7.92537 13.6665C8.27159 14.0131 8.74117 14.2078 9.2308 14.2078ZM22.7692 14.2078C23.1344 14.2078 23.4913 14.0994 23.7949 13.8964C24.0985 13.6933 24.3351 13.4047 24.4749 13.067C24.6146 12.7293 24.6512 12.3577 24.5799 11.9992C24.5087 11.6408 24.3329 11.3115 24.0747 11.053C23.8165 10.7946 23.4875 10.6186 23.1294 10.5472C22.7713 10.4759 22.4001 10.5125 22.0628 10.6524C21.7254 10.7923 21.4371 11.0292 21.2342 11.3331C21.0314 11.637 20.9231 11.9943 20.9231 12.3598C20.9231 12.8499 21.1176 13.32 21.4638 13.6665C21.81 14.0131 22.2796 14.2078 22.7692 14.2078ZM32 2.5036V22.2159C32 22.8695 31.7407 23.4962 31.279 23.9583C30.8174 24.4204 30.1913 24.68 29.5385 24.68H9.07695L4.06157 29.0167L4.04773 29.0275C3.6047 29.4035 3.04241 29.6093 2.46158 29.6081C2.09999 29.6073 1.74294 29.5274 1.41542 29.374C0.990606 29.1775 0.631263 28.8627 0.380289 28.4673C0.129315 28.0719 -0.00268627 27.6125 4.14347e-05 27.144V2.5036C4.14347e-05 1.85009 0.259381 1.22335 0.721008 0.761253C1.18264 0.299155 1.80874 0.0395508 2.46158 0.0395508H29.5385C30.1913 0.0395508 30.8174 0.299155 31.279 0.761253C31.7407 1.22335 32 1.85009 32 2.5036ZM29.5385 2.5036H2.46158V27.144L7.8108 22.524C8.03318 22.3276 8.3189 22.2182 8.61541 22.2159H29.5385V2.5036Z" fill="#C94E23"/>
</svg>
