<svg width="32" height="24" viewBox="0 0 32 24" fill="none" xmlns="http://www.w3.org/2000/svg">
<path d="M31.5702 13.6709C31.4581 13.755 31.3306 13.8162 31.1949 13.851C31.0593 13.8858 30.9181 13.8935 30.7794 13.8737C30.6408 13.8539 30.5074 13.8069 30.3869 13.7355C30.2663 13.664 30.1611 13.5695 30.077 13.4574C29.4342 12.5924 28.5974 11.8906 27.6341 11.4085C26.6709 10.9263 25.6079 10.6773 24.531 10.6815C24.3212 10.6815 24.1162 10.6196 23.9414 10.5035C23.7666 10.3874 23.63 10.2224 23.5484 10.0289C23.4931 9.89759 23.4645 9.75647 23.4645 9.6139C23.4645 9.47133 23.4931 9.33021 23.5484 9.19886C23.63 9.00542 23.7666 8.84035 23.9414 8.72428C24.1162 8.6082 24.3212 8.54628 24.531 8.54626C25.1294 8.54621 25.7158 8.37817 26.2236 8.06121C26.7314 7.74426 27.1403 7.29111 27.4037 6.75323C27.6671 6.21535 27.7745 5.6143 27.7138 5.01835C27.6531 4.42241 27.4266 3.85545 27.0601 3.38188C26.6937 2.90832 26.2019 2.54713 25.6406 2.33933C25.0793 2.13154 24.4711 2.08547 23.885 2.20637C23.2988 2.32726 22.7583 2.61027 22.3249 3.02325C21.8914 3.43623 21.5823 3.96262 21.4327 4.54264C21.3976 4.67846 21.3362 4.80605 21.252 4.91812C21.1677 5.03019 21.0622 5.12455 20.9415 5.1958C20.8208 5.26706 20.6872 5.31382 20.5485 5.33341C20.4097 5.35301 20.2685 5.34505 20.1328 5.31C19.9971 5.27495 19.8697 5.21349 19.7577 5.12913C19.6457 5.04477 19.5515 4.93916 19.4803 4.81834C19.4091 4.69751 19.3624 4.56383 19.3428 4.42494C19.3233 4.28604 19.3312 4.14464 19.3662 4.00882C19.5739 3.20451 19.9662 2.45982 20.5119 1.83399C21.0577 1.20816 21.7418 0.718472 22.5099 0.403891C23.278 0.0893091 24.1088 -0.0414839 24.9363 0.0219182C25.7638 0.0853203 26.5651 0.341168 27.2764 0.769103C27.9877 1.19704 28.5894 1.78525 29.0336 2.48693C29.4779 3.18862 29.7524 3.98441 29.8353 4.81098C29.9183 5.63756 29.8074 6.47211 29.5114 7.24822C29.2155 8.02433 28.7426 8.72059 28.1306 9.2816C29.5808 9.91016 30.8415 10.9076 31.7875 12.1749C31.8715 12.2873 31.9326 12.4153 31.9671 12.5514C32.0017 12.6875 32.0091 12.8291 31.9889 12.968C31.9687 13.107 31.9213 13.2406 31.8495 13.3612C31.7776 13.4818 31.6827 13.5871 31.5702 13.6709ZM24.387 21.8917C24.4642 22.0132 24.516 22.1491 24.5393 22.2912C24.5627 22.4332 24.5571 22.5786 24.5228 22.7184C24.4886 22.8583 24.4265 22.9898 24.3402 23.105C24.2539 23.2202 24.1452 23.3167 24.0207 23.3888C23.8961 23.4608 23.7583 23.5069 23.6155 23.5243C23.4727 23.5417 23.3279 23.5299 23.1898 23.4898C23.0516 23.4497 22.923 23.382 22.8117 23.2908C22.7003 23.1997 22.6085 23.0869 22.5419 22.9593C21.87 21.8205 20.9131 20.8767 19.7657 20.2211C18.6182 19.5655 17.3198 19.2207 15.9986 19.2207C14.6774 19.2207 13.379 19.5655 12.2315 20.2211C11.0841 20.8767 10.1272 21.8205 9.45534 22.9593C9.38866 23.0869 9.2969 23.1997 9.18555 23.2908C9.07421 23.382 8.9456 23.4497 8.80745 23.4898C8.6693 23.5299 8.52448 23.5417 8.38168 23.5243C8.23889 23.5069 8.10108 23.4608 7.97654 23.3888C7.85201 23.3167 7.74332 23.2202 7.65702 23.105C7.57072 22.9898 7.50859 22.8583 7.47437 22.7184C7.44014 22.5786 7.43454 22.4332 7.45788 22.2912C7.48123 22.1491 7.53304 22.0132 7.61021 21.8917C8.64423 20.1132 10.2208 18.7137 12.1084 17.8987C11.0463 17.0847 10.2657 15.958 9.87636 14.6769C9.48703 13.3959 9.50853 12.0249 9.93784 10.7567C10.3671 9.48848 11.1827 8.38683 12.2698 7.60658C13.3569 6.82634 14.6609 6.40672 15.9986 6.40672C17.3363 6.40672 18.6403 6.82634 19.7274 7.60658C20.8145 8.38683 21.6301 9.48848 22.0594 10.7567C22.4887 12.0249 22.5102 13.3959 22.1208 14.6769C21.7315 15.958 20.9509 17.0847 19.8888 17.8987C21.7764 18.7137 23.353 20.1132 24.387 21.8917ZM15.9986 17.0873C16.8424 17.0873 17.6672 16.8369 18.3688 16.3676C19.0703 15.8984 19.6171 15.2314 19.94 14.4511C20.2629 13.6707 20.3474 12.8121 20.1828 11.9837C20.0182 11.1553 19.6119 10.3943 19.0152 9.79708C18.4186 9.19983 17.6585 8.7931 16.8309 8.62832C16.0033 8.46354 15.1455 8.54811 14.366 8.87134C13.5865 9.19457 12.9202 9.74193 12.4514 10.4442C11.9826 11.1465 11.7324 11.9722 11.7324 12.8168C11.7324 13.9494 12.1819 15.0356 12.982 15.8365C13.782 16.6374 14.8671 17.0873 15.9986 17.0873ZM8.53278 9.6139C8.53278 9.33075 8.42041 9.05919 8.22039 8.85897C8.02038 8.65875 7.7491 8.54626 7.46623 8.54626C6.8678 8.54621 6.28138 8.37817 5.77358 8.06121C5.26578 7.74426 4.85695 7.29111 4.59353 6.75323C4.33011 6.21535 4.22266 5.6143 4.28339 5.01835C4.34411 4.42241 4.57058 3.85545 4.93706 3.38188C5.30354 2.90832 5.79535 2.54713 6.35662 2.33933C6.91789 2.13154 7.52613 2.08547 8.11225 2.20637C8.69836 2.32726 9.23886 2.61027 9.67235 3.02325C10.1058 3.43623 10.4149 3.96262 10.5645 4.54264C10.6353 4.81694 10.8119 5.05189 11.0557 5.1958C11.2995 5.33971 11.5904 5.38079 11.8644 5.31C12.1384 5.23921 12.3731 5.06236 12.5169 4.81834C12.6607 4.57432 12.7017 4.28313 12.631 4.00882C12.4233 3.20451 12.031 2.45982 11.4853 1.83399C10.9395 1.20816 10.2554 0.718472 9.48727 0.403891C8.71919 0.0893091 7.88835 -0.0414839 7.06089 0.0219182C6.23342 0.0853203 5.43215 0.341168 4.72084 0.769103C4.00953 1.19704 3.40781 1.78525 2.96356 2.48693C2.51932 3.18862 2.2448 3.98441 2.16185 4.81098C2.07891 5.63756 2.18983 6.47211 2.48578 7.24822C2.78174 8.02433 3.25456 8.72059 3.86664 9.2816C2.41784 9.91076 1.15856 10.9082 0.213714 12.1749C0.0438176 12.4014 -0.0292258 12.6862 0.0106524 12.9666C0.0505307 13.2471 0.200064 13.5002 0.426356 13.6702C0.652649 13.8403 0.937164 13.9134 1.21731 13.8735C1.49746 13.8336 1.75029 13.6839 1.92019 13.4574C2.56303 12.5924 3.39977 11.8906 4.36306 11.4085C5.32634 10.9263 6.38925 10.6773 7.46623 10.6815C7.7491 10.6815 8.02038 10.5691 8.22039 10.3688C8.42041 10.1686 8.53278 9.89705 8.53278 9.6139Z" fill="#FFFFFC"/>
</svg>
