<svg width="32" height="24" viewBox="0 0 32 24" fill="none" xmlns="http://www.w3.org/2000/svg">
<path d="M31.5702 13.6704C31.4581 13.7545 31.3306 13.8157 31.1949 13.8505C31.0593 13.8853 30.9181 13.893 30.7794 13.8732C30.6408 13.8534 30.5074 13.8064 30.3869 13.735C30.2663 13.6635 30.1611 13.5691 30.077 13.4569C29.4342 12.5919 28.5974 11.8901 27.6341 11.408C26.6709 10.9259 25.6079 10.6769 24.531 10.681C24.3212 10.681 24.1162 10.6191 23.9414 10.503C23.7666 10.387 23.63 10.2219 23.5484 10.0285C23.4931 9.8971 23.4645 9.75598 23.4645 9.61341C23.4645 9.47084 23.4931 9.32972 23.5484 9.19837C23.63 9.00494 23.7666 8.83986 23.9414 8.72379C24.1162 8.60771 24.3212 8.5458 24.531 8.54578C25.1294 8.54572 25.7158 8.37768 26.2236 8.06073C26.7314 7.74377 27.1403 7.29062 27.4037 6.75274C27.6671 6.21486 27.7745 5.61381 27.7138 5.01786C27.6531 4.42192 27.4266 3.85496 27.0601 3.3814C26.6937 2.90783 26.2019 2.54664 25.6406 2.33884C25.0793 2.13105 24.4711 2.08498 23.885 2.20588C23.2988 2.32677 22.7583 2.60978 22.3249 3.02276C21.8914 3.43574 21.5823 3.96213 21.4327 4.54215C21.3976 4.67797 21.3362 4.80556 21.252 4.91763C21.1677 5.0297 21.0622 5.12406 20.9415 5.19531C20.8208 5.26657 20.6872 5.31333 20.5485 5.33292C20.4097 5.35252 20.2685 5.34456 20.1328 5.30951C19.9971 5.27446 19.8697 5.213 19.7577 5.12864C19.6457 5.04428 19.5515 4.93867 19.4803 4.81785C19.4091 4.69702 19.3624 4.56335 19.3428 4.42445C19.3233 4.28555 19.3312 4.14416 19.3662 4.00833C19.5739 3.20402 19.9662 2.45933 20.5119 1.8335C21.0577 1.20767 21.7418 0.717984 22.5099 0.403402C23.278 0.0888208 24.1088 -0.0419722 24.9363 0.0214299C25.7638 0.084832 26.5651 0.34068 27.2764 0.768615C27.9877 1.19655 28.5894 1.78476 29.0336 2.48645C29.4779 3.18813 29.7524 3.98392 29.8353 4.8105C29.9183 5.63707 29.8074 6.47162 29.5114 7.24773C29.2155 8.02385 28.7426 8.72011 28.1306 9.28111C29.5808 9.90967 30.8415 10.9071 31.7875 12.1744C31.8715 12.2868 31.9326 12.4148 31.9671 12.5509C32.0017 12.687 32.0091 12.8286 31.9889 12.9675C31.9687 13.1065 31.9213 13.2401 31.8495 13.3607C31.7776 13.4813 31.6827 13.5866 31.5702 13.6704ZM24.387 21.8912C24.4642 22.0127 24.516 22.1486 24.5393 22.2907C24.5627 22.4328 24.5571 22.5781 24.5228 22.718C24.4886 22.8578 24.4265 22.9893 24.3402 23.1045C24.2539 23.2197 24.1452 23.3162 24.0207 23.3883C23.8961 23.4603 23.7583 23.5064 23.6155 23.5238C23.4727 23.5412 23.3279 23.5294 23.1898 23.4893C23.0516 23.4492 22.923 23.3815 22.8117 23.2904C22.7003 23.1992 22.6085 23.0864 22.5419 22.9588C21.87 21.82 20.9131 20.8763 19.7657 20.2206C18.6182 19.565 17.3198 19.2202 15.9986 19.2202C14.6774 19.2202 13.379 19.565 12.2315 20.2206C11.0841 20.8763 10.1272 21.82 9.45534 22.9588C9.38866 23.0864 9.2969 23.1992 9.18555 23.2904C9.07421 23.3815 8.9456 23.4492 8.80745 23.4893C8.6693 23.5294 8.52448 23.5412 8.38168 23.5238C8.23889 23.5064 8.10108 23.4603 7.97654 23.3883C7.85201 23.3162 7.74332 23.2197 7.65702 23.1045C7.57072 22.9893 7.50859 22.8578 7.47437 22.718C7.44014 22.5781 7.43454 22.4328 7.45788 22.2907C7.48123 22.1486 7.53304 22.0127 7.61021 21.8912C8.64423 20.1128 10.2208 18.7132 12.1084 17.8982C11.0463 17.0842 10.2657 15.9575 9.87636 14.6764C9.48703 13.3954 9.50853 12.0244 9.93784 10.7562C10.3671 9.48799 11.1827 8.38634 12.2698 7.60609C13.3569 6.82585 14.6609 6.40623 15.9986 6.40623C17.3363 6.40623 18.6403 6.82585 19.7274 7.60609C20.8145 8.38634 21.6301 9.48799 22.0594 10.7562C22.4887 12.0244 22.5102 13.3954 22.1208 14.6764C21.7315 15.9575 20.9509 17.0842 19.8888 17.8982C21.7764 18.7132 23.353 20.1128 24.387 21.8912ZM15.9986 17.0868C16.8424 17.0868 17.6672 16.8364 18.3688 16.3671C19.0703 15.8979 19.6171 15.2309 19.94 14.4506C20.2629 13.6702 20.3474 12.8116 20.1828 11.9832C20.0182 11.1548 19.6119 10.3938 19.0152 9.79659C18.4186 9.19934 17.6585 8.79261 16.8309 8.62783C16.0033 8.46305 15.1455 8.54762 14.366 8.87085C13.5865 9.19408 12.9202 9.74144 12.4514 10.4437C11.9826 11.146 11.7324 11.9717 11.7324 12.8163C11.7324 13.9489 12.1819 15.0352 12.982 15.836C13.782 16.6369 14.8671 17.0868 15.9986 17.0868ZM8.53278 9.61341C8.53278 9.33026 8.42041 9.0587 8.22039 8.85848C8.02038 8.65826 7.7491 8.54578 7.46623 8.54578C6.8678 8.54572 6.28138 8.37768 5.77358 8.06073C5.26578 7.74377 4.85695 7.29062 4.59353 6.75274C4.33011 6.21486 4.22266 5.61381 4.28339 5.01786C4.34411 4.42192 4.57058 3.85496 4.93706 3.3814C5.30354 2.90783 5.79535 2.54664 6.35662 2.33884C6.91789 2.13105 7.52613 2.08498 8.11225 2.20588C8.69836 2.32677 9.23886 2.60978 9.67235 3.02276C10.1058 3.43574 10.4149 3.96213 10.5645 4.54215C10.6353 4.81646 10.8119 5.05141 11.0557 5.19531C11.2995 5.33922 11.5904 5.3803 11.8644 5.30951C12.1384 5.23872 12.3731 5.06187 12.5169 4.81785C12.6607 4.57383 12.7017 4.28264 12.631 4.00833C12.4233 3.20402 12.031 2.45933 11.4853 1.8335C10.9395 1.20767 10.2554 0.717984 9.48727 0.403402C8.71919 0.0888208 7.88835 -0.0419722 7.06089 0.0214299C6.23342 0.084832 5.43215 0.34068 4.72084 0.768615C4.00953 1.19655 3.40781 1.78476 2.96356 2.48645C2.51932 3.18813 2.2448 3.98392 2.16185 4.8105C2.07891 5.63707 2.18983 6.47162 2.48578 7.24773C2.78174 8.02385 3.25456 8.72011 3.86664 9.28111C2.41784 9.91027 1.15856 10.9077 0.213714 12.1744C0.0438176 12.4009 -0.0292258 12.6857 0.0106524 12.9662C0.0505307 13.2466 0.200064 13.4997 0.426356 13.6698C0.652649 13.8398 0.937164 13.9129 1.21731 13.873C1.49746 13.8331 1.75029 13.6834 1.92019 13.4569C2.56303 12.5919 3.39977 11.8901 4.36306 11.408C5.32634 10.9259 6.38925 10.6769 7.46623 10.681C7.7491 10.681 8.02038 10.5686 8.22039 10.3683C8.42041 10.1681 8.53278 9.89657 8.53278 9.61341Z" fill="#C94E23"/>
</svg>
