<svg width="279" height="279" viewBox="0 0 279 279" fill="none" xmlns="http://www.w3.org/2000/svg">
<mask id="mask0_354_214" style="mask-type:alpha" maskUnits="userSpaceOnUse" x="1" y="1" width="277" height="277">
<circle cx="139.5" cy="139.5" r="138.5" fill="#D9D9D9"/>
</mask>
<g mask="url(#mask0_354_214)">
<path d="M139.581 277.508H53C55.9256 210.791 120.352 202.253 120.352 202.253L139.581 203.191L158.809 202.253C158.809 202.253 223.236 210.791 226.162 277.508H139.581Z" fill="#FFD675"/>
<path d="M173.443 218.906C174.497 213.563 174.333 209.392 173.443 206.127C164.915 203.069 158.815 202.253 158.815 202.253L139.586 203.191L120.358 202.253C120.358 202.253 114.252 203.069 105.73 206.127C104.839 209.392 104.675 213.563 105.73 218.906C110.489 242.962 132.108 245.252 139.591 245.252C147.075 245.252 168.694 242.962 173.453 218.906H173.443Z" fill="#D9B45C"/>
<path d="M166.679 219.388C168.587 210.002 165.524 205.247 161.994 202.841C159.991 202.417 158.809 202.253 158.809 202.253L139.581 203.191L120.352 202.253C120.352 202.253 119.17 202.417 117.167 202.841C113.637 205.247 110.574 210.002 112.482 219.388C116.287 238.102 133.592 239.883 139.581 239.883C145.57 239.883 162.869 238.102 166.679 219.388Z" fill="#FFD9CC"/>
<path d="M139.581 222.282C126.893 222.282 115.874 217.967 118.339 205.878C120.808 193.794 124.688 175.663 124.688 175.663L139.576 177.391L154.463 175.663C154.463 175.663 158.343 193.789 160.813 205.878C163.283 217.962 152.259 222.282 139.57 222.282H139.581Z" fill="#FFD9CC"/>
<path d="M125.849 197.769C123.893 197.769 121.964 197.695 120.056 197.573C122.282 186.899 124.688 175.668 124.688 175.668L139.576 177.396L154.463 175.668C154.463 175.668 156.053 183.093 157.845 191.605C148.395 195.516 137.487 197.774 125.843 197.774L125.849 197.769Z" fill="#F2C1B1"/>
<path d="M78.0479 154.304C84.8319 154.304 90.3333 159.805 90.3333 166.589C90.3333 173.373 84.8319 178.875 78.0479 178.875" stroke="#8862A3" stroke-linecap="round" stroke-linejoin="round"/>
<path d="M83.4266 158.774C93.2176 156.474 99.2902 146.672 96.9902 136.881C94.6901 127.09 84.8883 121.018 75.0973 123.318C65.3063 125.618 59.2337 135.42 61.5338 145.211C63.8338 155.002 73.6356 161.074 83.4266 158.774Z" fill="#FFD9CC"/>
<path d="M78.0481 178.875C71.2641 178.875 65.7627 173.373 65.7627 166.589C65.7627 159.805 71.2641 154.304 78.0481 154.304" stroke="#8862A3" stroke-linecap="round" stroke-linejoin="round"/>
<path d="M97.4775 141.038C97.4775 149.528 91.6634 156.636 83.8035 158.655C80.2631 152.989 77.9947 146.682 77.3481 139.957C76.834 134.593 76.6644 128.821 77.0937 122.965C77.8092 122.88 78.53 122.822 79.2667 122.822C89.3261 122.822 97.4775 130.973 97.4775 141.033V141.038Z" fill="#F2C1B1"/>
<path d="M201.114 154.304C194.33 154.304 188.828 159.805 188.828 166.589C188.828 173.373 194.33 178.875 201.114 178.875" stroke="#8862A3" stroke-linecap="round" stroke-linejoin="round"/>
<path d="M217.751 144.664C219.749 134.807 213.379 125.197 203.522 123.198C193.665 121.2 184.054 127.571 182.056 137.428C180.057 147.285 186.428 156.896 196.285 158.894C206.142 160.892 215.753 154.521 217.751 144.664Z" fill="#FFD9CC"/>
<path d="M201.113 178.875C207.897 178.875 213.399 173.373 213.399 166.589C213.399 159.805 207.897 154.304 201.113 154.304" stroke="#8862A3" stroke-linecap="round" stroke-linejoin="round"/>
<path d="M181.684 141.038C181.684 149.528 187.498 156.636 195.358 158.655C198.898 152.989 201.166 146.682 201.813 139.957C202.327 134.593 202.497 128.821 202.067 122.965C201.352 122.88 200.631 122.822 199.894 122.822C189.835 122.822 181.684 130.973 181.684 141.033V141.038Z" fill="#F2C1B1"/>
<path d="M202.8 71.0515C209.269 55.2408 201.695 37.1802 185.885 30.7119C170.074 24.2436 152.013 31.817 145.545 47.6277C139.077 63.4383 146.65 81.499 162.461 87.9673C178.271 94.4356 196.332 86.8621 202.8 71.0515Z" fill="#FFA94D"/>
<path d="M147.123 57.07C146.137 57.0382 145.13 57.0223 144.112 57.0223C143.858 57.0223 143.614 57.0329 143.36 57.0329C143.301 57.7961 143.243 58.5593 143.243 59.3384C143.243 76.4203 157.092 90.2692 174.174 90.2692C178.605 90.2692 182.802 89.3205 186.613 87.6457C185.94 85.9497 185.484 85.2395 185.484 85.2395C185.972 85.9974 186.433 86.7606 186.883 87.5185C189.708 86.2412 192.295 84.5558 194.59 82.5365C184.62 67.935 167.533 57.706 147.117 57.0753L147.123 57.07Z" fill="#6D4E82"/>
<path d="M81.8643 140.635C81.8643 169.101 107.707 192.183 139.581 192.183C171.455 192.183 197.298 169.107 197.298 140.635C197.298 112.163 188.066 75.7366 139.581 75.7366C91.0969 75.7366 81.8643 112.163 81.8643 140.635Z" fill="#FFD9CC"/>
<path d="M138.956 64.3734C139.973 64.3734 140.975 64.3893 141.966 64.4211C179.114 65.5659 205.296 98.4789 197.5 131.731C196.429 136.305 194.77 140.37 192.253 143.121C192.253 143.121 196.583 118.036 180.333 92.5853C180.333 92.5853 183.619 97.7263 185.67 113.361C185.67 113.361 173.803 105.47 138.961 105.47C104.119 105.47 92.2521 113.361 92.2521 113.361C94.3032 97.7263 97.5892 92.5853 97.5892 92.5853C81.3394 118.036 85.6695 143.121 85.6695 143.121C83.152 140.37 81.4931 136.305 80.4225 131.731C72.6262 98.4789 98.8082 65.5659 135.956 64.4211C136.942 64.3893 137.949 64.3734 138.966 64.3734H138.956Z" fill="#FFA94D"/>
<path d="M139.581 130.189C138.627 135.674 136.03 143.985 130.105 145.813L130.349 145.198C132.644 148.728 136.778 150.615 140.869 149.147C136.497 151.352 131.78 149.136 129.331 145.177C135.119 143.799 137.944 135.303 139.576 130.194L139.581 130.189Z" fill="#E0B3A4"/>
<path d="M155.152 160.865C150.234 168.847 138.823 171.142 130.698 166.907C127.963 165.529 125.589 163.436 124.004 160.865C125.864 163.24 128.308 165.073 130.989 166.308C139.082 170.05 149.582 168.01 155.152 160.865Z" fill="#D49292"/>
<path d="M179.538 156.577C183.484 156.577 186.682 153.379 186.682 149.433C186.682 145.487 183.484 142.289 179.538 142.289C175.592 142.289 172.394 145.487 172.394 149.433C172.394 153.379 175.592 156.577 179.538 156.577Z" fill="#F2A7A7"/>
<path d="M99.6249 156.577C103.571 156.577 106.769 153.379 106.769 149.433C106.769 145.487 103.571 142.289 99.6249 142.289C95.6791 142.289 92.4805 145.487 92.4805 149.433C92.4805 153.379 95.6791 156.577 99.6249 156.577Z" fill="#F2A7A7"/>
<path d="M160.188 120.76C161.772 118.863 164.353 117.607 167.305 117.607C170.257 117.607 172.839 118.863 174.423 120.76" stroke="#614343" stroke-width="0.81" stroke-linecap="round" stroke-linejoin="round"/>
<path d="M104.739 119.186C106.324 117.289 108.905 116.032 111.857 116.032C114.809 116.032 117.39 117.289 118.975 119.186" stroke="#614343" stroke-width="0.81" stroke-linecap="round" stroke-linejoin="round"/>
<path d="M167.306 135.77L174.174 133.591" stroke="#614343" stroke-width="0.81" stroke-linecap="round" stroke-linejoin="round"/>
<path d="M163.574 130.692C163.574 134.466 165.244 137.529 167.3 137.529C169.357 137.529 171.026 134.471 171.026 130.692C171.026 126.913 169.357 123.855 167.3 123.855C165.244 123.855 163.574 126.913 163.574 130.692Z" fill="#614343"/>
<path d="M111.857 135.77L104.988 133.591" stroke="#614343" stroke-width="0.81" stroke-linecap="round" stroke-linejoin="round"/>
<path d="M111.857 137.529C113.915 137.529 115.583 134.468 115.583 130.692C115.583 126.916 113.915 123.855 111.857 123.855C109.799 123.855 108.131 126.916 108.131 130.692C108.131 134.468 109.799 137.529 111.857 137.529Z" fill="#614343"/>
</g>
<circle cx="139.5" cy="139.5" r="139" stroke="#5688C7"/>
</svg>
