<svg width="277" height="277" viewBox="0 0 277 277" fill="none" xmlns="http://www.w3.org/2000/svg">
<circle cx="138.5" cy="138.5" r="138.5" fill="#BBCFE9"/>
<mask id="mask0_354_214" style="mask-type:alpha" maskUnits="userSpaceOnUse" x="0" y="0" width="277" height="277">
<circle cx="138.5" cy="138.5" r="138.5" fill="#D9D9D9"/>
</mask>
<g mask="url(#mask0_354_214)">
<path d="M138.581 276.508H52C54.9256 209.791 119.352 201.253 119.352 201.253L138.581 202.191L157.809 201.253C157.809 201.253 222.236 209.791 225.162 276.508H138.581Z" fill="#FFD675"/>
<path d="M172.443 217.906C173.497 212.563 173.333 208.392 172.443 205.127C163.915 202.069 157.815 201.253 157.815 201.253L138.586 202.191L119.358 201.253C119.358 201.253 113.252 202.069 104.73 205.127C103.839 208.392 103.675 212.563 104.73 217.906C109.489 241.962 131.108 244.252 138.591 244.252C146.075 244.252 167.694 241.962 172.453 217.906H172.443Z" fill="#D9B45C"/>
<path d="M165.679 218.388C167.587 209.002 164.524 204.247 160.994 201.841C158.991 201.417 157.809 201.253 157.809 201.253L138.581 202.191L119.352 201.253C119.352 201.253 118.17 201.417 116.167 201.841C112.637 204.247 109.574 209.002 111.482 218.388C115.287 237.102 132.592 238.883 138.581 238.883C144.57 238.883 161.869 237.102 165.679 218.388Z" fill="#FFD9CC"/>
<path d="M138.581 221.282C125.893 221.282 114.874 216.967 117.339 204.878C119.808 192.794 123.688 174.663 123.688 174.663L138.576 176.391L153.463 174.663C153.463 174.663 157.343 192.789 159.813 204.878C162.283 216.962 151.259 221.282 138.57 221.282H138.581Z" fill="#FFD9CC"/>
<path d="M124.849 196.769C122.893 196.769 120.964 196.695 119.056 196.573C121.282 185.899 123.688 174.668 123.688 174.668L138.576 176.396L153.463 174.668C153.463 174.668 155.053 182.093 156.845 190.605C147.395 194.516 136.487 196.774 124.843 196.774L124.849 196.769Z" fill="#F2C1B1"/>
<path d="M77.0479 153.304C83.8319 153.304 89.3333 158.805 89.3333 165.589C89.3333 172.373 83.8319 177.875 77.0479 177.875" stroke="#8862A3" stroke-linecap="round" stroke-linejoin="round"/>
<path d="M82.4266 157.774C92.2176 155.474 98.2902 145.672 95.9902 135.881C93.6901 126.09 83.8883 120.018 74.0973 122.318C64.3063 124.618 58.2337 134.42 60.5338 144.211C62.8338 154.002 72.6356 160.074 82.4266 157.774Z" fill="#FFD9CC"/>
<path d="M77.0481 177.875C70.2641 177.875 64.7627 172.373 64.7627 165.589C64.7627 158.805 70.2641 153.304 77.0481 153.304" stroke="#8862A3" stroke-linecap="round" stroke-linejoin="round"/>
<path d="M96.4775 140.038C96.4775 148.528 90.6634 155.636 82.8035 157.655C79.2631 151.989 76.9947 145.682 76.3481 138.957C75.834 133.593 75.6644 127.821 76.0937 121.965C76.8092 121.88 77.53 121.822 78.2667 121.822C88.3261 121.822 96.4775 129.973 96.4775 140.033V140.038Z" fill="#F2C1B1"/>
<path d="M200.114 153.304C193.33 153.304 187.828 158.805 187.828 165.589C187.828 172.373 193.33 177.875 200.114 177.875" stroke="#8862A3" stroke-linecap="round" stroke-linejoin="round"/>
<path d="M216.751 143.664C218.749 133.807 212.379 124.197 202.522 122.198C192.665 120.2 183.054 126.571 181.056 136.428C179.057 146.285 185.428 155.896 195.285 157.894C205.142 159.892 214.753 153.521 216.751 143.664Z" fill="#FFD9CC"/>
<path d="M200.113 177.875C206.897 177.875 212.399 172.373 212.399 165.589C212.399 158.805 206.897 153.304 200.113 153.304" stroke="#8862A3" stroke-linecap="round" stroke-linejoin="round"/>
<path d="M180.684 140.038C180.684 148.528 186.498 155.636 194.358 157.655C197.898 151.989 200.166 145.682 200.813 138.957C201.327 133.593 201.497 127.821 201.067 121.965C200.352 121.88 199.631 121.822 198.894 121.822C188.835 121.822 180.684 129.973 180.684 140.033V140.038Z" fill="#F2C1B1"/>
<path d="M201.8 70.0515C208.269 54.2408 200.695 36.1802 184.885 29.7119C169.074 23.2436 151.013 30.817 144.545 46.6277C138.077 62.4383 145.65 80.499 161.461 86.9673C177.271 93.4356 195.332 85.8621 201.8 70.0515Z" fill="#FFA94D"/>
<path d="M146.123 56.07C145.137 56.0382 144.13 56.0223 143.112 56.0223C142.858 56.0223 142.614 56.0329 142.36 56.0329C142.301 56.7961 142.243 57.5593 142.243 58.3384C142.243 75.4203 156.092 89.2692 173.174 89.2692C177.605 89.2692 181.802 88.3205 185.613 86.6457C184.94 84.9497 184.484 84.2395 184.484 84.2395C184.972 84.9974 185.433 85.7606 185.883 86.5185C188.708 85.2412 191.295 83.5558 193.59 81.5365C183.62 66.935 166.533 56.706 146.117 56.0753L146.123 56.07Z" fill="#6D4E82"/>
<path d="M80.8643 139.635C80.8643 168.101 106.707 191.183 138.581 191.183C170.455 191.183 196.298 168.107 196.298 139.635C196.298 111.163 187.066 74.7366 138.581 74.7366C90.0969 74.7366 80.8643 111.163 80.8643 139.635Z" fill="#FFD9CC"/>
<path d="M137.956 63.3734C138.973 63.3734 139.975 63.3893 140.966 63.4211C178.114 64.5659 204.296 97.4789 196.5 130.731C195.429 135.305 193.77 139.37 191.253 142.121C191.253 142.121 195.583 117.036 179.333 91.5853C179.333 91.5853 182.619 96.7263 184.67 112.361C184.67 112.361 172.803 104.47 137.961 104.47C103.119 104.47 91.2521 112.361 91.2521 112.361C93.3032 96.7263 96.5892 91.5853 96.5892 91.5853C80.3394 117.036 84.6695 142.121 84.6695 142.121C82.152 139.37 80.4931 135.305 79.4225 130.731C71.6262 97.4789 97.8082 64.5659 134.956 63.4211C135.942 63.3893 136.949 63.3734 137.966 63.3734H137.956Z" fill="#FFA94D"/>
<path d="M138.581 129.189C137.627 134.674 135.03 142.985 129.105 144.813L129.349 144.198C131.644 147.728 135.778 149.615 139.869 148.147C135.497 150.352 130.78 148.136 128.331 144.177C134.119 142.799 136.944 134.303 138.576 129.194L138.581 129.189Z" fill="#E0B3A4"/>
<path d="M154.152 159.865C149.234 167.847 137.823 170.142 129.698 165.907C126.963 164.529 124.589 162.436 123.004 159.865C124.864 162.24 127.308 164.073 129.989 165.308C138.082 169.05 148.582 167.01 154.152 159.865Z" fill="#D49292"/>
<path d="M178.538 155.577C182.484 155.577 185.682 152.379 185.682 148.433C185.682 144.487 182.484 141.289 178.538 141.289C174.592 141.289 171.394 144.487 171.394 148.433C171.394 152.379 174.592 155.577 178.538 155.577Z" fill="#F2A7A7"/>
<path d="M98.6249 155.577C102.571 155.577 105.769 152.379 105.769 148.433C105.769 144.487 102.571 141.289 98.6249 141.289C94.6791 141.289 91.4805 144.487 91.4805 148.433C91.4805 152.379 94.6791 155.577 98.6249 155.577Z" fill="#F2A7A7"/>
<path d="M159.188 119.76C160.772 117.863 163.353 116.607 166.305 116.607C169.257 116.607 171.839 117.863 173.423 119.76" stroke="#614343" stroke-width="0.81" stroke-linecap="round" stroke-linejoin="round"/>
<path d="M103.739 118.186C105.324 116.289 107.905 115.032 110.857 115.032C113.809 115.032 116.39 116.289 117.975 118.186" stroke="#614343" stroke-width="0.81" stroke-linecap="round" stroke-linejoin="round"/>
<path d="M166.306 134.77L173.174 132.591" stroke="#614343" stroke-width="0.81" stroke-linecap="round" stroke-linejoin="round"/>
<path d="M162.574 129.692C162.574 133.466 164.244 136.529 166.3 136.529C168.357 136.529 170.026 133.471 170.026 129.692C170.026 125.913 168.357 122.855 166.3 122.855C164.244 122.855 162.574 125.913 162.574 129.692Z" fill="#614343"/>
<path d="M110.857 134.77L103.988 132.591" stroke="#614343" stroke-width="0.81" stroke-linecap="round" stroke-linejoin="round"/>
<path d="M110.857 136.529C112.915 136.529 114.583 133.468 114.583 129.692C114.583 125.916 112.915 122.855 110.857 122.855C108.799 122.855 107.131 125.916 107.131 129.692C107.131 133.468 108.799 136.529 110.857 136.529Z" fill="#614343"/>
</g>
</svg>
