<svg width="279" height="279" viewBox="0 0 279 279" fill="none" xmlns="http://www.w3.org/2000/svg">
<mask id="mask0_354_216" style="mask-type:alpha" maskUnits="userSpaceOnUse" x="1" y="1" width="277" height="277">
<circle cx="139.5" cy="139.5" r="138.5" fill="#D9D9D9"/>
</mask>
<g mask="url(#mask0_354_216)">
<path d="M211.952 235.34C236.512 218.851 221.423 195.998 211.952 195.298C211.952 195.298 222.033 192.537 220.655 182.011C219.277 171.485 207.654 168.284 207.654 168.284C207.654 168.284 215.975 160.869 214.644 150.343C213.314 139.818 205.952 134.131 205.952 134.131C205.952 134.131 212.111 100.571 209.355 77.4155C206.599 54.2598 192.273 29 139.618 29C86.9621 29 72.6362 54.2598 69.8802 77.4155C67.1242 100.571 73.2828 134.131 73.2828 134.131C73.2828 134.131 65.9211 139.818 64.5908 150.343C63.2605 160.869 71.5815 168.284 71.5815 168.284C71.5815 168.284 59.9586 171.49 58.5806 182.011C57.2026 192.531 67.2832 195.298 67.2832 195.298C57.8121 195.998 42.723 218.851 67.2832 235.34H211.957H211.952Z" fill="#614343"/>
<path d="M139.617 278.095H35C38.5351 197.482 116.382 187.163 116.382 187.163L139.617 188.297L162.852 187.163C162.852 187.163 240.693 197.482 244.233 278.095H139.617Z" fill="#83B4E6"/>
<path d="M172.572 192.818C172.296 191.615 172.01 190.364 171.719 189.086C166.291 187.634 162.852 187.168 162.852 187.168L139.617 188.302L116.381 187.168C116.381 187.168 112.942 187.634 107.514 189.086C107.223 190.364 106.937 191.615 106.661 192.818C102.829 209.64 119.932 219.948 139.617 219.948C159.301 219.948 176.404 209.64 172.572 192.818Z" fill="white"/>
<path d="M139.617 211.368C124.289 211.368 110.971 206.153 113.954 191.551C116.938 176.95 121.629 155.045 121.629 155.045L139.622 157.133L157.616 155.045C157.616 155.045 162.306 176.95 165.29 191.551C168.274 206.153 154.955 211.368 139.628 211.368H139.617Z" fill="#FFD9CC"/>
<path d="M123.028 181.751C120.669 181.751 118.337 181.661 116.026 181.513C118.719 168.613 121.623 155.045 121.623 155.045L139.617 157.133L157.61 155.045C157.61 155.045 159.529 164.012 161.696 174.3C150.28 179.027 137.099 181.757 123.028 181.757V181.751Z" fill="#F2C1B1"/>
<path d="M217.523 134.638C229.354 131.858 236.692 120.014 233.912 108.183C231.133 96.3516 219.289 89.0136 207.458 91.793C195.626 94.5723 188.288 106.417 191.068 118.248C193.847 130.079 205.691 137.417 217.523 134.638Z" fill="#FFD9CC"/>
<path d="M216.144 132.318C217.736 132.318 219.027 131.027 219.027 129.435C219.027 127.843 217.736 126.552 216.144 126.552C214.552 126.552 213.261 127.843 213.261 129.435C213.261 131.027 214.552 132.318 216.144 132.318Z" fill="white"/>
<path d="M212.492 91.1956C213.382 91.1956 214.257 91.2645 215.115 91.3652C215.63 98.4354 215.428 105.416 214.808 111.892C214.029 120.022 211.289 127.638 207.006 134.486C197.509 132.048 190.486 123.451 190.486 113.196C190.486 101.043 200.339 91.1903 212.492 91.1903V91.1956Z" fill="#F2C1B1"/>
<path d="M87.1904 121.322C91.6801 110.029 86.1644 97.2337 74.8708 92.744C63.5771 88.2543 50.7822 93.77 46.2924 105.064C41.8027 116.357 47.3184 129.152 58.612 133.642C69.9057 138.132 82.7006 132.616 87.1904 121.322Z" fill="#FFD9CC"/>
<path d="M60.7314 129.435C60.7314 131.03 62.0246 132.318 63.6146 132.318C65.2046 132.318 66.4978 131.025 66.4978 129.435C66.4978 127.845 65.2046 126.552 63.6146 126.552C62.0246 126.552 60.7314 127.845 60.7314 129.435Z" fill="white"/>
<path d="M88.7473 113.201C88.7473 123.457 81.7195 132.048 72.2272 134.491C67.9501 127.644 65.2047 120.028 64.4256 111.897C63.8055 105.421 63.5988 98.4406 64.1182 91.3704C64.9821 91.2697 65.8513 91.2008 66.7417 91.2008C78.8946 91.2008 88.7473 101.054 88.7473 113.206V113.201Z" fill="#F2C1B1"/>
<path d="M69.8799 112.713C69.8799 147.11 101.102 174.994 139.617 174.994C178.132 174.994 209.355 147.11 209.355 112.713C209.355 78.3164 198.198 34.2999 139.617 34.2999C81.0364 34.2999 69.8799 78.3164 69.8799 112.713Z" fill="#FFD9CC"/>
<path d="M116.074 133.309C114.681 133.309 113.748 134.936 114.283 136.399C118.311 147.338 127.793 155.023 138.859 155.023C149.926 155.023 159.407 147.338 163.435 136.399C163.976 134.936 163.038 133.309 161.644 133.309H116.069H116.074Z" fill="white"/>
<path d="M69.1698 91.1955C69.1698 91.1955 66.2336 109.189 74.4168 108.961C82.6 108.733 76.2824 88.7045 76.2824 88.7045C76.2824 88.7045 85.8012 87.9254 89.49 80.7598C93.1788 73.5942 91.3343 65.7502 91.3343 65.7502C91.3343 65.7502 99.7454 67.796 110.621 65.7502C121.497 63.7044 125.588 48.3503 125.588 48.3503C125.588 48.3503 137.529 59.952 149.126 59.952C160.722 59.952 168.603 52.4472 168.603 52.4472C168.603 52.4472 167.548 69.1634 177.613 73.255C187.678 77.3466 192.453 73.5942 192.453 73.5942C192.453 73.5942 192.623 84.703 202.942 88.7045C202.942 88.7045 198.596 108.961 205.078 108.961C211.56 108.961 210.06 91.1955 210.06 91.1955C210.06 91.1955 207.123 31.9733 136.162 31.9733C65.2001 31.9733 69.1645 91.1955 69.1645 91.1955H69.1698Z" fill="#614343"/>
<path d="M137.465 100.094C136.622 104.923 135.038 109.735 132.303 113.848C131.683 114.749 130.866 115.66 130.156 116.482C129.319 117.568 129.049 119.079 129.467 120.388C129.865 121.745 130.988 122.731 132.356 123.086C135.197 123.785 138.334 123.854 141.17 122.99C138.371 124.193 135.17 124.336 132.186 123.732C130.601 123.42 129.181 122.195 128.693 120.632C128.169 119.074 128.476 117.277 129.467 115.962C129.934 115.395 130.501 114.823 130.951 114.251C131.296 113.821 131.937 112.915 132.229 112.443C134.619 108.643 136.188 104.398 137.454 100.084L137.465 100.094Z" fill="#E0B3A4"/>
<path d="M187.895 131.979C192.66 131.979 196.523 128.116 196.523 123.351C196.523 118.585 192.66 114.722 187.895 114.722C183.13 114.722 179.267 118.585 179.267 123.351C179.267 128.116 183.13 131.979 187.895 131.979Z" fill="#F2A7A7"/>
<path d="M91.3393 131.979C96.1047 131.979 99.9677 128.116 99.9677 123.351C99.9677 118.585 96.1047 114.722 91.3393 114.722C86.574 114.722 82.7109 118.585 82.7109 123.351C82.7109 128.116 86.574 131.979 91.3393 131.979Z" fill="#F2A7A7"/>
<path d="M164.517 88.7045C166.43 86.4149 169.546 84.899 173.118 84.899C176.691 84.899 179.807 86.4149 181.72 88.7045" stroke="#614343" stroke-width="0.81" stroke-linecap="round" stroke-linejoin="round"/>
<path d="M97.5195 86.7965C99.4328 84.5069 102.549 82.9911 106.121 82.9911C109.694 82.9911 112.81 84.5069 114.723 86.7965" stroke="#614343" stroke-width="0.81" stroke-linecap="round" stroke-linejoin="round"/>
<path d="M173.113 106.841L181.418 104.207" stroke="#614343" stroke-width="0.81" stroke-linecap="round" stroke-linejoin="round"/>
<path d="M173.113 108.961C175.601 108.961 177.618 105.264 177.618 100.704C177.618 96.1433 175.601 92.4463 173.113 92.4463C170.625 92.4463 168.608 96.1433 168.608 100.704C168.608 105.264 170.625 108.961 173.113 108.961Z" fill="#614343"/>
<path d="M106.121 106.841L97.8154 104.207" stroke="#614343" stroke-width="0.81" stroke-linecap="round" stroke-linejoin="round"/>
<path d="M106.12 108.961C108.608 108.961 110.625 105.264 110.625 100.704C110.625 96.1433 108.608 92.4463 106.12 92.4463C103.632 92.4463 101.615 96.1433 101.615 100.704C101.615 105.264 103.632 108.961 106.12 108.961Z" fill="#614343"/>
</g>
<circle cx="139.5" cy="139.5" r="139" stroke="#5688C7"/>
</svg>
