<svg width="277" height="277" viewBox="0 0 277 277" fill="none" xmlns="http://www.w3.org/2000/svg">
<circle cx="138.5" cy="138.5" r="138.5" fill="#BBCFE9"/>
<mask id="mask0_354_216" style="mask-type:alpha" maskUnits="userSpaceOnUse" x="0" y="0" width="277" height="277">
<circle cx="138.5" cy="138.5" r="138.5" fill="#D9D9D9"/>
</mask>
<g mask="url(#mask0_354_216)">
<path d="M210.952 234.34C235.512 217.851 220.423 194.998 210.952 194.298C210.952 194.298 221.033 191.537 219.655 181.011C218.277 170.485 206.654 167.284 206.654 167.284C206.654 167.284 214.975 159.869 213.644 149.343C212.314 138.818 204.952 133.131 204.952 133.131C204.952 133.131 211.111 99.5712 208.355 76.4155C205.599 53.2598 191.273 28 138.618 28C85.9621 28 71.6362 53.2598 68.8802 76.4155C66.1242 99.5712 72.2828 133.131 72.2828 133.131C72.2828 133.131 64.9211 138.818 63.5908 149.343C62.2605 159.869 70.5815 167.284 70.5815 167.284C70.5815 167.284 58.9586 170.49 57.5806 181.011C56.2026 191.531 66.2832 194.298 66.2832 194.298C56.8121 194.998 41.723 217.851 66.2832 234.34H210.957H210.952Z" fill="#614343"/>
<path d="M138.617 277.095H34C37.5351 196.482 115.382 186.163 115.382 186.163L138.617 187.297L161.852 186.163C161.852 186.163 239.693 196.482 243.233 277.095H138.617Z" fill="#83B4E6"/>
<path d="M171.572 191.818C171.296 190.615 171.01 189.364 170.719 188.086C165.291 186.634 161.852 186.168 161.852 186.168L138.617 187.302L115.381 186.168C115.381 186.168 111.942 186.634 106.514 188.086C106.223 189.364 105.937 190.615 105.661 191.818C101.829 208.64 118.932 218.948 138.617 218.948C158.301 218.948 175.404 208.64 171.572 191.818Z" fill="white"/>
<path d="M138.617 210.368C123.289 210.368 109.971 205.153 112.954 190.551C115.938 175.95 120.629 154.045 120.629 154.045L138.622 156.133L156.616 154.045C156.616 154.045 161.306 175.95 164.29 190.551C167.274 205.153 153.955 210.368 138.628 210.368H138.617Z" fill="#FFD9CC"/>
<path d="M122.028 180.751C119.669 180.751 117.337 180.661 115.026 180.513C117.719 167.613 120.623 154.045 120.623 154.045L138.617 156.133L156.61 154.045C156.61 154.045 158.529 163.012 160.696 173.3C149.28 178.027 136.099 180.757 122.028 180.757V180.751Z" fill="#F2C1B1"/>
<path d="M216.523 133.638C228.354 130.858 235.692 119.014 232.912 107.183C230.133 95.3516 218.289 88.0136 206.458 90.793C194.626 93.5723 187.288 105.417 190.068 117.248C192.847 129.079 204.691 136.417 216.523 133.638Z" fill="#FFD9CC"/>
<path d="M215.144 131.318C216.736 131.318 218.027 130.027 218.027 128.435C218.027 126.843 216.736 125.552 215.144 125.552C213.552 125.552 212.261 126.843 212.261 128.435C212.261 130.027 213.552 131.318 215.144 131.318Z" fill="white"/>
<path d="M211.492 90.1956C212.382 90.1956 213.257 90.2645 214.115 90.3652C214.63 97.4354 214.428 104.416 213.808 110.892C213.029 119.022 210.289 126.638 206.006 133.486C196.509 131.048 189.486 122.451 189.486 112.196C189.486 100.043 199.339 90.1903 211.492 90.1903V90.1956Z" fill="#F2C1B1"/>
<path d="M86.1904 120.322C90.6801 109.029 85.1644 96.2337 73.8708 91.744C62.5771 87.2543 49.7822 92.77 45.2924 104.064C40.8027 115.357 46.3184 128.152 57.612 132.642C68.9057 137.132 81.7006 131.616 86.1904 120.322Z" fill="#FFD9CC"/>
<path d="M59.7314 128.435C59.7314 130.03 61.0246 131.318 62.6146 131.318C64.2046 131.318 65.4978 130.025 65.4978 128.435C65.4978 126.845 64.2046 125.552 62.6146 125.552C61.0246 125.552 59.7314 126.845 59.7314 128.435Z" fill="white"/>
<path d="M87.7473 112.201C87.7473 122.457 80.7195 131.048 71.2272 133.491C66.9501 126.644 64.2047 119.028 63.4256 110.897C62.8055 104.421 62.5988 97.4406 63.1182 90.3704C63.9821 90.2697 64.8513 90.2008 65.7417 90.2008C77.8946 90.2008 87.7473 100.054 87.7473 112.206V112.201Z" fill="#F2C1B1"/>
<path d="M68.8799 111.713C68.8799 146.11 100.102 173.994 138.617 173.994C177.132 173.994 208.355 146.11 208.355 111.713C208.355 77.3164 197.198 33.2999 138.617 33.2999C80.0364 33.2999 68.8799 77.3164 68.8799 111.713Z" fill="#FFD9CC"/>
<path d="M115.074 132.309C113.681 132.309 112.748 133.936 113.283 135.399C117.311 146.338 126.793 154.023 137.859 154.023C148.926 154.023 158.407 146.338 162.435 135.399C162.976 133.936 162.038 132.309 160.644 132.309H115.069H115.074Z" fill="white"/>
<path d="M68.1698 90.1955C68.1698 90.1955 65.2336 108.189 73.4168 107.961C81.6 107.733 75.2824 87.7045 75.2824 87.7045C75.2824 87.7045 84.8012 86.9254 88.49 79.7598C92.1788 72.5942 90.3343 64.7502 90.3343 64.7502C90.3343 64.7502 98.7454 66.796 109.621 64.7502C120.497 62.7044 124.588 47.3503 124.588 47.3503C124.588 47.3503 136.529 58.952 148.126 58.952C159.722 58.952 167.603 51.4472 167.603 51.4472C167.603 51.4472 166.548 68.1634 176.613 72.255C186.678 76.3466 191.453 72.5942 191.453 72.5942C191.453 72.5942 191.623 83.703 201.942 87.7045C201.942 87.7045 197.596 107.961 204.078 107.961C210.56 107.961 209.06 90.1955 209.06 90.1955C209.06 90.1955 206.123 30.9733 135.162 30.9733C64.2001 30.9733 68.1645 90.1955 68.1645 90.1955H68.1698Z" fill="#614343"/>
<path d="M136.465 99.0942C135.622 103.923 134.038 108.735 131.303 112.848C130.683 113.749 129.866 114.66 129.156 115.482C128.319 116.568 128.049 118.079 128.467 119.388C128.865 120.745 129.988 121.731 131.356 122.086C134.197 122.785 137.334 122.854 140.17 121.99C137.371 123.193 134.17 123.336 131.186 122.732C129.601 122.42 128.181 121.195 127.693 119.632C127.169 118.074 127.476 116.277 128.467 114.962C128.934 114.395 129.501 113.823 129.951 113.251C130.296 112.821 130.937 111.915 131.229 111.443C133.619 107.643 135.188 103.398 136.454 99.0836L136.465 99.0942Z" fill="#E0B3A4"/>
<path d="M186.895 130.979C191.66 130.979 195.523 127.116 195.523 122.351C195.523 117.585 191.66 113.722 186.895 113.722C182.13 113.722 178.267 117.585 178.267 122.351C178.267 127.116 182.13 130.979 186.895 130.979Z" fill="#F2A7A7"/>
<path d="M90.3393 130.979C95.1047 130.979 98.9677 127.116 98.9677 122.351C98.9677 117.585 95.1047 113.722 90.3393 113.722C85.574 113.722 81.7109 117.585 81.7109 122.351C81.7109 127.116 85.574 130.979 90.3393 130.979Z" fill="#F2A7A7"/>
<path d="M163.517 87.7045C165.43 85.4149 168.546 83.899 172.118 83.899C175.691 83.899 178.807 85.4149 180.72 87.7045" stroke="#614343" stroke-width="0.81" stroke-linecap="round" stroke-linejoin="round"/>
<path d="M96.5195 85.7965C98.4328 83.5069 101.549 81.9911 105.121 81.9911C108.694 81.9911 111.81 83.5069 113.723 85.7965" stroke="#614343" stroke-width="0.81" stroke-linecap="round" stroke-linejoin="round"/>
<path d="M172.113 105.841L180.418 103.207" stroke="#614343" stroke-width="0.81" stroke-linecap="round" stroke-linejoin="round"/>
<path d="M172.113 107.961C174.601 107.961 176.618 104.264 176.618 99.7037C176.618 95.1433 174.601 91.4463 172.113 91.4463C169.625 91.4463 167.608 95.1433 167.608 99.7037C167.608 104.264 169.625 107.961 172.113 107.961Z" fill="#614343"/>
<path d="M105.121 105.841L96.8154 103.207" stroke="#614343" stroke-width="0.81" stroke-linecap="round" stroke-linejoin="round"/>
<path d="M105.12 107.961C107.608 107.961 109.625 104.264 109.625 99.7037C109.625 95.1433 107.608 91.4463 105.12 91.4463C102.632 91.4463 100.615 95.1433 100.615 99.7037C100.615 104.264 102.632 107.961 105.12 107.961Z" fill="#614343"/>
</g>
</svg>
