<svg width="279" height="279" viewBox="0 0 279 279" fill="none" xmlns="http://www.w3.org/2000/svg">
<mask id="mask0_354_215" style="mask-type:alpha" maskUnits="userSpaceOnUse" x="1" y="1" width="277" height="277">
<circle cx="139.5" cy="139.5" r="138.5" fill="#D9D9D9"/>
</mask>
<g mask="url(#mask0_354_215)">
<path d="M139.126 278.1H241.251C237.796 199.406 161.81 189.336 161.81 189.336L139.126 190.443L116.442 189.336C116.442 189.336 40.4503 199.406 37 278.1H139.126Z" fill="#FE6D6D"/>
<path d="M162.477 188.843C162.477 188.843 182.368 187.661 189.184 197.763C197.335 209.852 186.857 215.957 177.709 214.622C161.958 212.322 155.412 204.123 155.412 204.123L162.472 188.837L162.477 188.843Z" fill="white"/>
<path d="M158.656 201.382C158.656 201.382 175.017 213.244 173.926 226.844C173.046 237.809 160.14 239.76 154.257 232.266C144.76 220.16 144.887 209.772 144.887 209.772L158.656 201.382Z" fill="white"/>
<path d="M117.268 188.843C117.268 188.843 97.3775 187.661 90.5617 197.763C82.4103 209.852 92.8884 215.957 102.036 214.622C117.788 212.322 124.333 204.123 124.333 204.123L117.274 188.837L117.268 188.843Z" fill="white"/>
<path d="M121.09 201.382C121.09 201.382 104.729 213.244 105.821 226.844C106.701 237.809 119.606 239.76 125.489 232.266C134.987 220.16 134.86 209.772 134.86 209.772L121.09 201.382Z" fill="white"/>
<path d="M131.812 205.273C131.812 205.273 124.63 224.734 131.107 235.774C136.38 244.768 149.116 243.777 151.438 230.972C154.48 214.182 147.357 204.308 147.357 204.308L131.817 205.278L131.812 205.273Z" fill="white"/>
<path d="M196.408 64.2502C196.408 64.2502 222.871 109.046 207.628 177.458C207.628 177.458 196.223 185.472 137.933 185.472H137.997C79.7074 185.472 68.3018 177.458 68.3018 177.458C53.059 109.046 79.5219 64.2502 79.5219 64.2502H196.413H196.408Z" fill="#614343"/>
<path d="M139.126 212.963C154.088 212.963 167.094 207.87 164.179 193.618C161.269 179.361 156.69 157.981 156.69 157.981L139.126 160.016L121.561 157.981C121.561 157.981 116.982 179.361 114.073 193.618C111.163 207.875 124.164 212.963 139.126 212.963Z" fill="#FFD9CC"/>
<path d="M155.322 184.051C157.628 184.051 159.901 183.961 162.154 183.818C159.525 171.225 156.69 157.981 156.69 157.981L139.125 160.016L121.561 157.981C121.561 157.981 119.685 166.736 117.57 176.775C128.716 181.391 141.585 184.051 155.317 184.051H155.322Z" fill="#F2C1B1"/>
<path d="M67.9838 138.609C79.8474 138.609 89.4647 128.992 89.4647 117.128C89.4647 105.265 79.8474 95.6476 67.9838 95.6476C56.1203 95.6476 46.5029 105.265 46.5029 117.128C46.5029 128.992 56.1203 138.609 67.9838 138.609Z" fill="#FFD9CC"/>
<path d="M62.3231 133.696C63.8774 133.696 65.1374 132.436 65.1374 130.882C65.1374 129.328 63.8774 128.068 62.3231 128.068C60.7688 128.068 59.5088 129.328 59.5088 130.882C59.5088 132.436 60.7688 133.696 62.3231 133.696Z" fill="white"/>
<path d="M67.9834 95.6475C67.1142 95.6475 66.2609 95.7164 65.4182 95.8118C64.9147 102.712 65.1161 109.528 65.7203 115.851C66.4782 123.785 69.1547 131.221 73.3364 137.904C82.6061 135.525 89.4643 127.135 89.4643 117.123C89.4643 105.262 79.8448 95.6422 67.9834 95.6422V95.6475Z" fill="#F2C1B1"/>
<path d="M210.268 138.609C222.132 138.609 231.749 128.992 231.749 117.128C231.749 105.265 222.132 95.6475 210.268 95.6475C198.404 95.6475 188.787 105.265 188.787 117.128C188.787 128.992 198.404 138.609 210.268 138.609Z" fill="#FFD9CC"/>
<path d="M218.234 130.882C218.234 132.435 216.973 133.696 215.42 133.696C213.867 133.696 212.605 132.435 212.605 130.882C212.605 129.329 213.867 128.068 215.42 128.068C216.973 128.068 218.234 129.329 218.234 130.882Z" fill="white"/>
<path d="M188.787 117.128C188.787 127.14 195.645 135.53 204.915 137.91C209.091 131.226 211.768 123.791 212.531 115.856C213.135 109.534 213.337 102.718 212.833 95.8171C211.991 95.7164 211.137 95.6528 210.268 95.6528C198.407 95.6528 188.787 105.272 188.787 117.134V117.128Z" fill="#F2C1B1"/>
<path d="M207.204 116.657C207.204 150.237 176.724 177.453 139.125 177.453C101.527 177.453 71.0469 150.232 71.0469 116.657C71.0469 83.0812 81.9384 40.1088 139.125 40.1088C196.312 40.1088 207.204 83.0759 207.204 116.657Z" fill="#FFD9CC"/>
<path d="M71.0473 85.763C71.0473 85.763 121.535 77.3042 155.413 52.2882C155.413 52.2882 184.61 91.7944 207.199 94.0787C199.896 92.1919 207.199 29 139.121 29C74.9004 29 71.042 85.763 71.042 85.763H71.0473Z" fill="#614343"/>
<path d="M139.126 104.334C140.912 110.196 144.172 119.874 150.537 121.893L151.088 122.052C149.286 124.882 146.429 127.13 143.064 127.628C141.824 127.771 140.541 127.67 139.338 127.331C138.803 127.23 138.119 126.87 137.6 126.69C138.135 126.806 138.845 127.082 139.38 127.145L140.281 127.278C144.219 127.713 147.966 125.275 150.071 122.073L150.314 122.688C143.424 120.595 140.281 110.721 139.121 104.334H139.126Z" fill="#E0B3A4"/>
<path d="M120.756 140.517C127.243 149.019 139.74 151.441 149.28 146.994C152.482 145.531 155.322 143.31 157.49 140.517C155.593 143.56 152.757 145.966 149.567 147.588C139.984 152.543 126.634 149.856 120.756 140.517Z" fill="#D49292"/>
<path d="M91.9979 135.461C96.649 135.461 100.42 131.691 100.42 127.039C100.42 122.388 96.649 118.618 91.9979 118.618C87.3467 118.618 83.5762 122.388 83.5762 127.039C83.5762 131.691 87.3467 135.461 91.9979 135.461Z" fill="#F2A7A7"/>
<path d="M186.254 135.461C190.905 135.461 194.675 131.691 194.675 127.039C194.675 122.388 190.905 118.618 186.254 118.618C181.603 118.618 177.832 122.388 177.832 127.039C177.832 131.691 181.603 135.461 186.254 135.461Z" fill="#F2A7A7"/>
<path d="M116.918 89.0172C115.053 86.7806 112.005 85.3019 108.523 85.3019C105.041 85.3019 101.994 86.7806 100.128 89.0172" stroke="#614343" stroke-width="0.81" stroke-linecap="round" stroke-linejoin="round"/>
<path d="M178.123 87.1569C176.258 84.9203 173.21 83.4417 169.728 83.4417C166.246 83.4417 163.199 84.9203 161.333 87.1569" stroke="#614343" stroke-width="0.81" stroke-linecap="round" stroke-linejoin="round"/>
<path d="M108.524 108.823L100.42 106.253" stroke="#614343" stroke-width="0.81" stroke-linecap="round" stroke-linejoin="round"/>
<path d="M112.923 102.829C112.923 107.281 110.957 110.89 108.524 110.89C106.091 110.89 104.125 107.281 104.125 102.829C104.125 98.377 106.091 94.7677 108.524 94.7677C110.957 94.7677 112.923 98.377 112.923 102.829Z" fill="#614343"/>
<path d="M169.729 108.823L177.832 106.253" stroke="#614343" stroke-width="0.81" stroke-linecap="round" stroke-linejoin="round"/>
<path d="M169.728 110.89C172.158 110.89 174.127 107.281 174.127 102.829C174.127 98.3769 172.158 94.7677 169.728 94.7677C167.299 94.7677 165.329 98.3769 165.329 102.829C165.329 107.281 167.299 110.89 169.728 110.89Z" fill="#614343"/>
</g>
<circle cx="139.5" cy="139.5" r="139" stroke="#5688C7"/>
</svg>
