<svg width="277" height="277" viewBox="0 0 277 277" fill="none" xmlns="http://www.w3.org/2000/svg">
<circle cx="138.5" cy="138.5" r="138.5" fill="#BBCFE9"/>
<mask id="mask0_354_215" style="mask-type:alpha" maskUnits="userSpaceOnUse" x="0" y="0" width="277" height="277">
<circle cx="138.5" cy="138.5" r="138.5" fill="#D9D9D9"/>
</mask>
<g mask="url(#mask0_354_215)">
<path d="M138.126 277.1H240.251C236.796 198.406 160.81 188.336 160.81 188.336L138.126 189.443L115.442 188.336C115.442 188.336 39.4503 198.406 36 277.1H138.126Z" fill="#FE6D6D"/>
<path d="M161.477 187.843C161.477 187.843 181.368 186.661 188.184 196.763C196.335 208.852 185.857 214.957 176.709 213.622C160.958 211.322 154.412 203.123 154.412 203.123L161.472 187.837L161.477 187.843Z" fill="white"/>
<path d="M157.656 200.382C157.656 200.382 174.017 212.244 172.926 225.844C172.046 236.809 159.14 238.76 153.257 231.266C143.76 219.16 143.887 208.772 143.887 208.772L157.656 200.382Z" fill="white"/>
<path d="M116.268 187.843C116.268 187.843 96.3775 186.661 89.5617 196.763C81.4103 208.852 91.8884 214.957 101.036 213.622C116.788 211.322 123.333 203.123 123.333 203.123L116.274 187.837L116.268 187.843Z" fill="white"/>
<path d="M120.09 200.382C120.09 200.382 103.729 212.244 104.821 225.844C105.701 236.809 118.606 238.76 124.489 231.266C133.987 219.16 133.86 208.772 133.86 208.772L120.09 200.382Z" fill="white"/>
<path d="M130.812 204.273C130.812 204.273 123.63 223.734 130.107 234.774C135.38 243.768 148.116 242.777 150.438 229.972C153.48 213.182 146.357 203.308 146.357 203.308L130.817 204.278L130.812 204.273Z" fill="white"/>
<path d="M195.408 63.2502C195.408 63.2502 221.871 108.046 206.628 176.458C206.628 176.458 195.223 184.472 136.933 184.472H136.997C78.7074 184.472 67.3018 176.458 67.3018 176.458C52.059 108.046 78.5219 63.2502 78.5219 63.2502H195.413H195.408Z" fill="#614343"/>
<path d="M138.126 211.963C153.088 211.963 166.094 206.87 163.179 192.618C160.269 178.361 155.69 156.981 155.69 156.981L138.126 159.016L120.561 156.981C120.561 156.981 115.982 178.361 113.073 192.618C110.163 206.875 123.164 211.963 138.126 211.963Z" fill="#FFD9CC"/>
<path d="M154.322 183.051C156.628 183.051 158.901 182.961 161.154 182.818C158.525 170.225 155.69 156.981 155.69 156.981L138.125 159.016L120.561 156.981C120.561 156.981 118.685 165.736 116.57 175.775C127.716 180.391 140.585 183.051 154.317 183.051H154.322Z" fill="#F2C1B1"/>
<path d="M66.9838 137.609C78.8474 137.609 88.4647 127.992 88.4647 116.128C88.4647 104.265 78.8474 94.6476 66.9838 94.6476C55.1203 94.6476 45.5029 104.265 45.5029 116.128C45.5029 127.992 55.1203 137.609 66.9838 137.609Z" fill="#FFD9CC"/>
<path d="M61.3231 132.696C62.8774 132.696 64.1374 131.436 64.1374 129.882C64.1374 128.328 62.8774 127.068 61.3231 127.068C59.7688 127.068 58.5088 128.328 58.5088 129.882C58.5088 131.436 59.7688 132.696 61.3231 132.696Z" fill="white"/>
<path d="M66.9834 94.6475C66.1142 94.6475 65.2609 94.7164 64.4182 94.8118C63.9147 101.712 64.1161 108.528 64.7203 114.851C65.4782 122.785 68.1547 130.221 72.3364 136.904C81.6061 134.525 88.4643 126.135 88.4643 116.123C88.4643 104.262 78.8448 94.6422 66.9834 94.6422V94.6475Z" fill="#F2C1B1"/>
<path d="M209.268 137.609C221.132 137.609 230.749 127.992 230.749 116.128C230.749 104.265 221.132 94.6475 209.268 94.6475C197.404 94.6475 187.787 104.265 187.787 116.128C187.787 127.992 197.404 137.609 209.268 137.609Z" fill="#FFD9CC"/>
<path d="M217.234 129.882C217.234 131.435 215.973 132.696 214.42 132.696C212.867 132.696 211.605 131.435 211.605 129.882C211.605 128.329 212.867 127.068 214.42 127.068C215.973 127.068 217.234 128.329 217.234 129.882Z" fill="white"/>
<path d="M187.787 116.128C187.787 126.14 194.645 134.53 203.915 136.91C208.091 130.226 210.768 122.791 211.531 114.856C212.135 108.534 212.337 101.718 211.833 94.8171C210.991 94.7164 210.137 94.6528 209.268 94.6528C197.407 94.6528 187.787 104.272 187.787 116.134V116.128Z" fill="#F2C1B1"/>
<path d="M206.204 115.657C206.204 149.237 175.724 176.453 138.125 176.453C100.527 176.453 70.0469 149.232 70.0469 115.657C70.0469 82.0812 80.9384 39.1088 138.125 39.1088C195.312 39.1088 206.204 82.0759 206.204 115.657Z" fill="#FFD9CC"/>
<path d="M70.0473 84.763C70.0473 84.763 120.535 76.3042 154.413 51.2882C154.413 51.2882 183.61 90.7944 206.199 93.0787C198.896 91.1919 206.199 28 138.121 28C73.9004 28 70.042 84.763 70.042 84.763H70.0473Z" fill="#614343"/>
<path d="M138.126 103.334C139.912 109.196 143.172 118.874 149.537 120.893L150.088 121.052C148.286 123.882 145.429 126.13 142.064 126.628C140.824 126.771 139.541 126.67 138.338 126.331C137.803 126.23 137.119 125.87 136.6 125.69C137.135 125.806 137.845 126.082 138.38 126.145L139.281 126.278C143.219 126.713 146.966 124.275 149.071 121.073L149.314 121.688C142.424 119.595 139.281 109.721 138.121 103.334H138.126Z" fill="#E0B3A4"/>
<path d="M119.756 139.517C126.243 148.019 138.74 150.441 148.28 145.994C151.482 144.531 154.322 142.31 156.49 139.517C154.593 142.56 151.757 144.966 148.567 146.588C138.984 151.543 125.634 148.856 119.756 139.517Z" fill="#D49292"/>
<path d="M90.9979 134.461C95.649 134.461 99.4196 130.691 99.4196 126.039C99.4196 121.388 95.649 117.618 90.9979 117.618C86.3467 117.618 82.5762 121.388 82.5762 126.039C82.5762 130.691 86.3467 134.461 90.9979 134.461Z" fill="#F2A7A7"/>
<path d="M185.254 134.461C189.905 134.461 193.675 130.691 193.675 126.039C193.675 121.388 189.905 117.618 185.254 117.618C180.603 117.618 176.832 121.388 176.832 126.039C176.832 130.691 180.603 134.461 185.254 134.461Z" fill="#F2A7A7"/>
<path d="M115.918 88.0172C114.053 85.7806 111.005 84.3019 107.523 84.3019C104.041 84.3019 100.994 85.7806 99.1279 88.0172" stroke="#614343" stroke-width="0.81" stroke-linecap="round" stroke-linejoin="round"/>
<path d="M177.123 86.1569C175.258 83.9203 172.21 82.4417 168.728 82.4417C165.246 82.4417 162.199 83.9203 160.333 86.1569" stroke="#614343" stroke-width="0.81" stroke-linecap="round" stroke-linejoin="round"/>
<path d="M107.524 107.823L99.4199 105.253" stroke="#614343" stroke-width="0.81" stroke-linecap="round" stroke-linejoin="round"/>
<path d="M111.923 101.829C111.923 106.281 109.957 109.89 107.524 109.89C105.091 109.89 103.125 106.281 103.125 101.829C103.125 97.377 105.091 93.7677 107.524 93.7677C109.957 93.7677 111.923 97.377 111.923 101.829Z" fill="#614343"/>
<path d="M168.729 107.823L176.832 105.253" stroke="#614343" stroke-width="0.81" stroke-linecap="round" stroke-linejoin="round"/>
<path d="M168.728 109.89C171.158 109.89 173.127 106.281 173.127 101.829C173.127 97.3769 171.158 93.7677 168.728 93.7677C166.299 93.7677 164.329 97.3769 164.329 101.829C164.329 106.281 166.299 109.89 168.728 109.89Z" fill="#614343"/>
</g>
</svg>
