<svg width="279" height="279" viewBox="0 0 279 279" fill="none" xmlns="http://www.w3.org/2000/svg">
<mask id="mask0_354_219" style="mask-type:alpha" maskUnits="userSpaceOnUse" x="1" y="1" width="277" height="277">
<circle cx="139.5" cy="139.5" r="138.5" fill="#D9D9D9"/>
</mask>
<g mask="url(#mask0_354_219)">
<path d="M139.296 278.1H46C46 184.793 118.573 188.689 118.573 188.689L139.296 189.802L160.019 188.689C160.019 188.689 232.592 184.793 232.592 278.1H139.296Z" fill="#C0D9F2"/>
<path d="M139.296 218.443C146.473 218.443 152.287 245.155 152.287 278.1H126.301C126.301 245.15 132.115 218.443 139.291 218.443H139.296Z" fill="#FE6D6D"/>
<path d="M127.96 216.138C127.96 222.397 133.037 227.474 139.297 227.474C145.556 227.474 150.633 222.397 150.633 216.138C150.633 209.878 145.556 204.801 139.297 204.801C133.037 204.801 127.96 209.878 127.96 216.138Z" fill="#FE6D6D"/>
<path d="M139.296 212.486C123.788 212.486 110.31 207.356 113.331 192.998C116.347 178.64 121.095 157.101 121.095 157.101L139.301 159.152L157.506 157.101C157.506 157.101 162.25 178.64 165.271 192.998C168.287 207.356 154.814 212.486 139.306 212.486H139.296Z" fill="#FFD9CC"/>
<path d="M162.929 182.032C162.929 182.032 170.629 183.643 175.447 190.311C175.447 190.311 166.538 218.194 151.136 227.57C151.136 227.57 149.302 213.323 139.296 212.486C139.296 212.486 165.589 201.674 162.929 182.032Z" fill="white"/>
<path d="M115.663 182.032C115.663 182.032 107.962 183.643 103.145 190.311C103.145 190.311 112.054 218.194 127.456 227.57C127.456 227.57 129.289 213.323 139.296 212.486C139.296 212.486 113.003 201.674 115.663 182.032Z" fill="white"/>
<path d="M122.51 183.362C120.12 183.362 117.762 183.272 115.43 183.129C118.154 170.446 121.095 157.101 121.095 157.101L139.301 159.152L157.506 157.101C157.506 157.101 159.451 165.92 161.64 176.033C150.092 180.681 136.752 183.362 122.521 183.362H122.51Z" fill="#F2C1B1"/>
<path d="M203.145 138.487C213.794 138.487 222.426 128.799 222.426 116.848C222.426 104.896 213.794 95.2076 203.145 95.2076C192.496 95.2076 183.863 104.896 183.863 116.848C183.863 128.799 192.496 138.487 203.145 138.487Z" fill="#FFD9CC"/>
<path d="M197.135 96.2941C199.027 95.5998 201.041 95.2076 203.145 95.2076C205.249 95.2076 207.136 95.568 208.975 96.2199C209.24 102.85 209.07 109.375 208.593 115.475C207.952 123.7 205.763 131.423 202.376 138.434C200.511 138.35 198.709 137.979 197.018 137.343C191.209 133.283 187.287 125.651 187.287 116.874C187.287 108.097 191.262 100.338 197.14 96.2888L197.135 96.2941Z" fill="#F2C1B1"/>
<path d="M75.4464 138.487C86.0953 138.487 94.7278 128.799 94.7278 116.848C94.7278 104.896 86.0953 95.2076 75.4464 95.2076C64.7976 95.2076 56.165 104.896 56.165 116.848C56.165 128.799 64.7976 138.487 75.4464 138.487Z" fill="#FFD9CC"/>
<path d="M81.457 96.2942C87.3347 100.338 91.3097 108.034 91.3097 116.879C91.3097 125.725 87.3877 133.288 81.5789 137.348C79.8829 137.984 78.0862 138.355 76.2206 138.44C72.8339 131.428 70.645 123.701 70.0037 115.48C69.5267 109.38 69.3571 102.856 69.6221 96.2253C71.4612 95.5681 73.4169 95.213 75.4521 95.213C77.4873 95.213 79.5702 95.5999 81.4623 96.2995L81.457 96.2942Z" fill="#F2C1B1"/>
<path d="M76.6123 116.371C76.6123 150.195 104.676 176.722 139.295 176.722C173.915 176.722 201.973 150.19 201.973 116.371C201.973 82.5512 191.946 39.2661 139.295 39.2661C86.6452 39.2661 76.6123 82.5459 76.6123 116.371Z" fill="#FFD9CC"/>
<path d="M136.789 138.212C136.789 138.212 146.535 140.804 160.75 140.236C173.528 139.728 177.079 131.73 177.079 131.73C168.265 137.761 157.692 132.159 149.175 131.73C140.658 131.301 136.783 137.253 136.783 137.253C136.783 137.253 132.909 131.301 124.392 131.73C115.875 132.159 105.301 137.761 96.4873 131.73C96.4873 131.73 100.07 139.214 112.817 140.236C126.321 141.323 136.778 138.212 136.778 138.212H136.789Z" fill="#AD7878"/>
<path d="M138.532 29C225.092 29 199.901 124.347 199.901 124.347C199.901 124.347 184.436 106.157 179.904 68.2889C179.406 64.1072 178.664 62.1197 175.489 64.8863C169.357 70.2287 154.798 75.8838 138.532 75.8838C122.267 75.8838 107.702 70.2287 101.575 64.8863C98.4008 62.1197 97.6587 64.1125 97.1605 68.2889C92.6343 106.157 77.1637 124.347 77.1637 124.347C77.1637 124.347 51.9727 29 138.532 29Z" fill="#AD7878"/>
<path d="M122.95 143.496C130.545 147.598 139.301 148.329 147.325 145.017C148.459 144.588 149.556 144.074 150.632 143.496C142.497 149.421 131.086 149.416 122.95 143.496Z" fill="#AD7777"/>
<path d="M138.485 95.8913C137.801 100.518 136.455 105.066 134.462 109.3C132.75 112.586 131.097 115.899 130.201 119.508C129.984 120.393 129.803 121.299 129.793 122.174C129.809 122.688 129.825 123.186 130.153 123.483C131.16 124.156 132.416 124.273 133.63 124.379C135.458 124.506 137.319 124.379 139.153 124.151C140.992 123.918 142.82 123.552 144.58 122.937C142.878 123.716 141.05 124.167 139.211 124.527C137.366 124.861 135.49 125.041 133.598 124.988C132.305 124.925 130.842 124.84 129.708 124.071C128.118 122.64 129.692 118.369 130.222 116.598C131.367 113.031 133.402 109.836 134.828 106.401C136.28 102.983 137.451 99.4635 138.479 95.886L138.485 95.8913Z" fill="#E0B3A4"/>
<path d="M163.479 88.3706C165.361 86.1181 168.43 84.6288 171.933 84.6288C175.436 84.6288 178.51 86.1181 180.392 88.3706" stroke="#AD7878" stroke-linecap="round" stroke-linejoin="round"/>
<path d="M98.1992 90.2945C100.081 88.042 103.149 86.5527 106.658 86.5527C110.167 86.5527 113.235 88.042 115.112 90.2945" stroke="#AD7878" stroke-linecap="round" stroke-linejoin="round"/>
<path d="M166.182 106.168C165.403 103.285 165.213 94.3225 170.12 94.3225C175.028 94.3225 174.832 103.306 174.058 106.168" stroke="#435B75" stroke-linecap="round" stroke-linejoin="round"/>
<path d="M104.538 106.168C103.759 103.285 103.568 94.3225 108.476 94.3225C113.378 94.3225 113.188 103.306 112.414 106.168" stroke="#435B75" stroke-linecap="round" stroke-linejoin="round"/>
</g>
<circle cx="139.5" cy="139.5" r="139" stroke="#5688C7"/>
</svg>
