<svg width="277" height="277" viewBox="0 0 277 277" fill="none" xmlns="http://www.w3.org/2000/svg">
<circle cx="138.5" cy="138.5" r="138.5" fill="#BBCFE9"/>
<mask id="mask0_354_219" style="mask-type:alpha" maskUnits="userSpaceOnUse" x="0" y="0" width="277" height="277">
<circle cx="138.5" cy="138.5" r="138.5" fill="#D9D9D9"/>
</mask>
<g mask="url(#mask0_354_219)">
<path d="M138.296 277.1H45C45 183.793 117.573 187.689 117.573 187.689L138.296 188.802L159.019 187.689C159.019 187.689 231.592 183.793 231.592 277.1H138.296Z" fill="#C0D9F2"/>
<path d="M138.296 217.443C145.473 217.443 151.287 244.155 151.287 277.1H125.301C125.301 244.15 131.115 217.443 138.291 217.443H138.296Z" fill="#FE6D6D"/>
<path d="M126.96 215.138C126.96 221.397 132.037 226.474 138.297 226.474C144.556 226.474 149.633 221.397 149.633 215.138C149.633 208.878 144.556 203.801 138.297 203.801C132.037 203.801 126.96 208.878 126.96 215.138Z" fill="#FE6D6D"/>
<path d="M138.296 211.486C122.788 211.486 109.31 206.356 112.331 191.998C115.347 177.64 120.095 156.101 120.095 156.101L138.301 158.152L156.506 156.101C156.506 156.101 161.25 177.64 164.271 191.998C167.287 206.356 153.814 211.486 138.306 211.486H138.296Z" fill="#FFD9CC"/>
<path d="M161.929 181.032C161.929 181.032 169.629 182.643 174.447 189.311C174.447 189.311 165.538 217.194 150.136 226.57C150.136 226.57 148.302 212.323 138.296 211.486C138.296 211.486 164.589 200.674 161.929 181.032Z" fill="white"/>
<path d="M114.663 181.032C114.663 181.032 106.962 182.643 102.145 189.311C102.145 189.311 111.054 217.194 126.456 226.57C126.456 226.57 128.289 212.323 138.296 211.486C138.296 211.486 112.003 200.674 114.663 181.032Z" fill="white"/>
<path d="M121.51 182.362C119.12 182.362 116.762 182.272 114.43 182.129C117.154 169.446 120.095 156.101 120.095 156.101L138.301 158.152L156.506 156.101C156.506 156.101 158.451 164.92 160.64 175.033C149.092 179.681 135.752 182.362 121.521 182.362H121.51Z" fill="#F2C1B1"/>
<path d="M202.145 137.487C212.794 137.487 221.426 127.799 221.426 115.848C221.426 103.896 212.794 94.2076 202.145 94.2076C191.496 94.2076 182.863 103.896 182.863 115.848C182.863 127.799 191.496 137.487 202.145 137.487Z" fill="#FFD9CC"/>
<path d="M196.135 95.2941C198.027 94.5998 200.041 94.2076 202.145 94.2076C204.249 94.2076 206.136 94.568 207.975 95.2199C208.24 101.85 208.07 108.375 207.593 114.475C206.952 122.7 204.763 130.423 201.376 137.434C199.511 137.35 197.709 136.979 196.018 136.343C190.209 132.283 186.287 124.651 186.287 115.874C186.287 107.097 190.262 99.338 196.14 95.2888L196.135 95.2941Z" fill="#F2C1B1"/>
<path d="M74.4464 137.487C85.0953 137.487 93.7278 127.799 93.7278 115.848C93.7278 103.896 85.0953 94.2076 74.4464 94.2076C63.7976 94.2076 55.165 103.896 55.165 115.848C55.165 127.799 63.7976 137.487 74.4464 137.487Z" fill="#FFD9CC"/>
<path d="M80.457 95.2942C86.3347 99.3381 90.3097 107.034 90.3097 115.879C90.3097 124.725 86.3877 132.288 80.5789 136.348C78.8829 136.984 77.0862 137.355 75.2206 137.44C71.8339 130.428 69.645 122.701 69.0037 114.48C68.5267 108.38 68.3571 101.856 68.6221 95.2253C70.4612 94.5681 72.4169 94.213 74.4521 94.213C76.4873 94.213 78.5702 94.5999 80.4623 95.2995L80.457 95.2942Z" fill="#F2C1B1"/>
<path d="M75.6123 115.371C75.6123 149.195 103.676 175.722 138.295 175.722C172.915 175.722 200.973 149.19 200.973 115.371C200.973 81.5512 190.946 38.2661 138.295 38.2661C85.6452 38.2661 75.6123 81.5459 75.6123 115.371Z" fill="#FFD9CC"/>
<path d="M135.789 137.212C135.789 137.212 145.535 139.804 159.75 139.236C172.528 138.728 176.079 130.73 176.079 130.73C167.265 136.761 156.692 131.159 148.175 130.73C139.658 130.301 135.783 136.253 135.783 136.253C135.783 136.253 131.909 130.301 123.392 130.73C114.875 131.159 104.301 136.761 95.4873 130.73C95.4873 130.73 99.0701 138.214 111.817 139.236C125.321 140.323 135.778 137.212 135.778 137.212H135.789Z" fill="#AD7878"/>
<path d="M137.532 28C224.092 28 198.901 123.347 198.901 123.347C198.901 123.347 183.436 105.157 178.904 67.2889C178.406 63.1072 177.664 61.1197 174.489 63.8863C168.357 69.2287 153.798 74.8838 137.532 74.8838C121.267 74.8838 106.702 69.2287 100.575 63.8863C97.4008 61.1197 96.6587 63.1125 96.1605 67.2889C91.6343 105.157 76.1637 123.347 76.1637 123.347C76.1637 123.347 50.9727 28 137.532 28Z" fill="#AD7878"/>
<path d="M121.95 142.496C129.545 146.598 138.301 147.329 146.325 144.017C147.459 143.588 148.556 143.074 149.632 142.496C141.497 148.421 130.086 148.416 121.95 142.496Z" fill="#AD7777"/>
<path d="M137.485 94.8913C136.801 99.5182 135.455 104.066 133.462 108.3C131.75 111.586 130.097 114.899 129.201 118.508C128.984 119.393 128.803 120.299 128.793 121.174C128.809 121.688 128.825 122.186 129.153 122.483C130.16 123.156 131.416 123.273 132.63 123.379C134.458 123.506 136.319 123.379 138.153 123.151C139.992 122.918 141.82 122.552 143.58 121.937C141.878 122.716 140.05 123.167 138.211 123.527C136.366 123.861 134.49 124.041 132.598 123.988C131.305 123.925 129.842 123.84 128.708 123.071C127.118 121.64 128.692 117.369 129.222 115.598C130.367 112.031 132.402 108.836 133.828 105.401C135.28 101.983 136.451 98.4635 137.479 94.886L137.485 94.8913Z" fill="#E0B3A4"/>
<path d="M162.479 87.3706C164.361 85.1181 167.43 83.6288 170.933 83.6288C174.436 83.6288 177.51 85.1181 179.392 87.3706" stroke="#AD7878" stroke-linecap="round" stroke-linejoin="round"/>
<path d="M97.1992 89.2945C99.0807 87.042 102.149 85.5527 105.658 85.5527C109.167 85.5527 112.235 87.042 114.112 89.2945" stroke="#AD7878" stroke-linecap="round" stroke-linejoin="round"/>
<path d="M165.182 105.168C164.403 102.285 164.213 93.3225 169.12 93.3225C174.028 93.3225 173.832 102.306 173.058 105.168" stroke="#435B75" stroke-linecap="round" stroke-linejoin="round"/>
<path d="M103.538 105.168C102.759 102.285 102.568 93.3225 107.476 93.3225C112.378 93.3225 112.188 102.306 111.414 105.168" stroke="#435B75" stroke-linecap="round" stroke-linejoin="round"/>
</g>
</svg>
