<svg width="277" height="277" viewBox="0 0 277 277" fill="none" xmlns="http://www.w3.org/2000/svg">
<circle cx="138.5" cy="138.5" r="138.5" fill="#BBCFE9"/>
<mask id="mask0_354_218" style="mask-type:alpha" maskUnits="userSpaceOnUse" x="0" y="0" width="277" height="277">
<circle cx="138.5" cy="138.5" r="138.5" fill="#D9D9D9"/>
</mask>
<g mask="url(#mask0_354_218)">
<path d="M138.708 277.1H231.426C231.426 182.304 159.303 186.258 159.303 186.258L138.713 187.392L118.122 186.258C118.122 186.258 46 182.304 46 277.1H138.718H138.708Z" fill="#FFD675"/>
<path d="M138.708 210.437C154.12 210.437 167.513 205.227 164.513 190.636C161.514 176.045 156.797 154.167 156.797 154.167L138.708 156.249L120.619 154.167C120.619 154.167 115.902 176.05 112.902 190.636C109.902 205.227 123.295 210.437 138.708 210.437Z" fill="#FFD9CC"/>
<path d="M115.223 179.501C115.223 179.501 107.57 181.138 102.779 187.912C102.779 187.912 101.719 207.596 122.627 217.12C122.627 217.12 128.759 211.29 138.707 210.437C138.707 210.437 112.578 199.45 115.223 179.495V179.501Z" fill="#D9B45C"/>
<path d="M162.191 179.501C162.191 179.501 169.845 181.138 174.636 187.912C174.636 187.912 175.696 207.596 154.787 217.12C154.787 217.12 148.655 211.29 138.707 210.437C138.707 210.437 164.836 199.45 162.191 179.495V179.501Z" fill="#D9B45C"/>
<path d="M155.386 180.852C157.761 180.852 160.103 180.762 162.425 180.613C159.716 167.729 156.796 154.172 156.796 154.172L138.707 156.255L120.618 154.172C120.618 154.172 118.689 163.134 116.511 173.405C127.991 178.128 141.246 180.852 155.392 180.852H155.386Z" fill="#F2C1B1"/>
<path d="M75.2562 128.806C85.8377 128.806 94.4157 118.963 94.4157 106.822C94.4157 94.68 85.8377 84.8373 75.2562 84.8373C64.6747 84.8373 56.0967 94.68 56.0967 106.822C56.0967 118.963 64.6747 128.806 75.2562 128.806Z" fill="#FFD9CC"/>
<path d="M81.2291 85.9397C79.3476 85.2295 77.3442 84.8373 75.256 84.8373C73.1678 84.8373 71.2916 85.203 69.4631 85.8655C69.1981 92.6071 69.3677 99.2321 69.8394 105.433C70.4754 113.786 72.6537 121.635 76.0192 128.764C77.8742 128.679 79.6603 128.303 81.3457 127.656C87.1174 123.527 91.0182 115.779 91.0182 106.859C91.0182 97.9389 87.0697 90.0578 81.2291 85.945V85.9397Z" fill="#F2C1B1"/>
<path d="M202.159 128.806C212.741 128.806 221.319 118.963 221.319 106.822C221.319 94.68 212.741 84.8373 202.159 84.8373C191.578 84.8373 183 94.68 183 106.822C183 118.963 191.578 128.806 202.159 128.806Z" fill="#FFD9CC"/>
<path d="M196.187 85.9396C190.346 90.0524 186.397 97.8699 186.397 106.853C186.397 115.837 190.298 123.522 196.07 127.651C197.755 128.297 199.541 128.674 201.396 128.758C204.762 121.63 206.94 113.786 207.576 105.428C208.048 99.2267 208.218 92.6017 207.953 85.8601C206.124 85.1976 204.179 84.8319 202.16 84.8319C200.14 84.8319 198.068 85.2294 196.187 85.9343V85.9396Z" fill="#F2C1B1"/>
<path d="M200.999 106.334C200.999 140.699 173.11 174.1 138.708 174.1C104.306 174.1 76.417 140.699 76.417 106.334C76.417 71.9688 86.381 28 138.708 28C191.035 28 200.999 71.9741 200.999 106.334Z" fill="#FFD9CC"/>
<path d="M139.466 191.934C162.245 191.934 194.893 179.331 202.52 138.887C210.147 98.437 197.851 76.0392 197.851 76.0392C197.851 76.0392 190.574 91.5046 187.918 113.955C185.263 136.406 174.191 119.467 139.466 119.467C104.74 119.467 93.6686 136.401 91.0133 113.955C88.358 91.5046 79.5441 76.0392 79.5441 76.0392C79.5441 76.0392 68.7797 98.437 76.4065 138.887C84.0332 179.331 116.681 191.934 139.461 191.934H139.466Z" fill="#435B75"/>
<path d="M161.657 127.629C153.092 134.843 140.801 137.609 130.281 133.216C126.82 131.864 123.55 130.02 120.735 127.629C126.724 131.769 133.874 134.456 141.193 134.519C148.513 134.456 155.662 131.769 161.651 127.629H161.657Z" fill="white"/>
<path d="M139.513 85.5315C141.871 91.017 144.14 96.529 146.822 101.85C147.839 104.124 153.436 113.208 149.753 114.491C145.55 115.895 137.51 114.745 133.455 113.012C135.331 113.68 137.303 114.003 139.269 114.236C142.629 114.517 146.223 114.936 149.456 113.823C152.196 112.943 146.885 104.028 146.064 102.242C143.366 96.8894 141.257 91.2608 139.518 85.5368L139.513 85.5315Z" fill="#E0B3A4"/>
<path d="M114.672 77.8889C112.801 75.5993 109.754 74.0835 106.266 74.0835C102.779 74.0835 99.7313 75.5993 97.8604 77.8889" stroke="#435B75" stroke-width="0.86" stroke-linecap="round" stroke-linejoin="round"/>
<path d="M179.55 79.8446C177.679 77.555 174.631 76.0392 171.144 76.0392C167.657 76.0392 164.609 77.555 162.738 79.8446" stroke="#435B75" stroke-width="0.86" stroke-linecap="round" stroke-linejoin="round"/>
<path d="M111.99 95.9672C112.764 93.0363 112.95 83.9309 108.079 83.9309C103.208 83.9309 103.399 93.0575 104.168 95.9672" stroke="#435B75" stroke-linecap="round" stroke-linejoin="round"/>
<path d="M173.253 95.9672C174.027 93.0363 174.212 83.9309 169.342 83.9309C164.471 83.9309 164.662 93.0575 165.43 95.9672" stroke="#435B75" stroke-linecap="round" stroke-linejoin="round"/>
</g>
</svg>
