<svg width="279" height="279" viewBox="0 0 279 279" fill="none" xmlns="http://www.w3.org/2000/svg">
<mask id="mask0_354_218" style="mask-type:alpha" maskUnits="userSpaceOnUse" x="1" y="1" width="277" height="277">
<circle cx="139.5" cy="139.5" r="138.5" fill="#D9D9D9"/>
</mask>
<g mask="url(#mask0_354_218)">
<path d="M139.708 278.1H232.426C232.426 183.304 160.303 187.258 160.303 187.258L139.713 188.392L119.122 187.258C119.122 187.258 47 183.304 47 278.1H139.718H139.708Z" fill="#FFD675"/>
<path d="M139.708 211.437C155.12 211.437 168.513 206.227 165.513 191.636C162.514 177.045 157.797 155.167 157.797 155.167L139.708 157.249L121.619 155.167C121.619 155.167 116.902 177.05 113.902 191.636C110.902 206.227 124.295 211.437 139.708 211.437Z" fill="#FFD9CC"/>
<path d="M116.223 180.501C116.223 180.501 108.57 182.138 103.779 188.912C103.779 188.912 102.719 208.596 123.627 218.12C123.627 218.12 129.759 212.29 139.707 211.437C139.707 211.437 113.578 200.45 116.223 180.495V180.501Z" fill="#D9B45C"/>
<path d="M163.191 180.501C163.191 180.501 170.845 182.138 175.636 188.912C175.636 188.912 176.696 208.596 155.787 218.12C155.787 218.12 149.655 212.29 139.707 211.437C139.707 211.437 165.836 200.45 163.191 180.495V180.501Z" fill="#D9B45C"/>
<path d="M156.386 181.852C158.761 181.852 161.103 181.762 163.425 181.613C160.716 168.729 157.796 155.172 157.796 155.172L139.707 157.255L121.618 155.172C121.618 155.172 119.689 164.134 117.511 174.405C128.991 179.128 142.246 181.852 156.392 181.852H156.386Z" fill="#F2C1B1"/>
<path d="M76.2562 129.806C86.8377 129.806 95.4157 119.963 95.4157 107.822C95.4157 95.68 86.8377 85.8373 76.2562 85.8373C65.6747 85.8373 57.0967 95.68 57.0967 107.822C57.0967 119.963 65.6747 129.806 76.2562 129.806Z" fill="#FFD9CC"/>
<path d="M82.2291 86.9397C80.3476 86.2295 78.3442 85.8373 76.256 85.8373C74.1678 85.8373 72.2916 86.203 70.4631 86.8655C70.1981 93.6071 70.3677 100.232 70.8394 106.433C71.4754 114.786 73.6537 122.635 77.0192 129.764C78.8742 129.679 80.6603 129.303 82.3457 128.656C88.1174 124.527 92.0182 116.779 92.0182 107.859C92.0182 98.9389 88.0697 91.0578 82.2291 86.945V86.9397Z" fill="#F2C1B1"/>
<path d="M203.159 129.806C213.741 129.806 222.319 119.963 222.319 107.822C222.319 95.68 213.741 85.8373 203.159 85.8373C192.578 85.8373 184 95.68 184 107.822C184 119.963 192.578 129.806 203.159 129.806Z" fill="#FFD9CC"/>
<path d="M197.187 86.9396C191.346 91.0524 187.397 98.8699 187.397 107.853C187.397 116.837 191.298 124.522 197.07 128.651C198.755 129.297 200.541 129.674 202.396 129.758C205.762 122.63 207.94 114.786 208.576 106.428C209.048 100.227 209.218 93.6017 208.953 86.8601C207.124 86.1976 205.179 85.8319 203.16 85.8319C201.14 85.8319 199.068 86.2294 197.187 86.9343V86.9396Z" fill="#F2C1B1"/>
<path d="M201.999 107.334C201.999 141.699 174.11 175.1 139.708 175.1C105.306 175.1 77.417 141.699 77.417 107.334C77.417 72.9688 87.381 29 139.708 29C192.035 29 201.999 72.9741 201.999 107.334Z" fill="#FFD9CC"/>
<path d="M140.466 192.934C163.245 192.934 195.893 180.331 203.52 139.887C211.147 99.437 198.851 77.0392 198.851 77.0392C198.851 77.0392 191.574 92.5046 188.918 114.955C186.263 137.406 175.191 120.467 140.466 120.467C105.74 120.467 94.6686 137.401 92.0133 114.955C89.358 92.5046 80.5441 77.0392 80.5441 77.0392C80.5441 77.0392 69.7797 99.437 77.4065 139.887C85.0332 180.331 117.681 192.934 140.461 192.934H140.466Z" fill="#435B75"/>
<path d="M162.657 128.629C154.092 135.843 141.801 138.609 131.281 134.216C127.82 132.864 124.55 131.02 121.735 128.629C127.724 132.769 134.874 135.456 142.193 135.519C149.513 135.456 156.662 132.769 162.651 128.629H162.657Z" fill="white"/>
<path d="M140.513 86.5315C142.871 92.017 145.14 97.529 147.822 102.85C148.839 105.124 154.436 114.208 150.753 115.491C146.55 116.895 138.51 115.745 134.455 114.012C136.331 114.68 138.303 115.003 140.269 115.236C143.629 115.517 147.223 115.936 150.456 114.823C153.196 113.943 147.885 105.028 147.064 103.242C144.366 97.8894 142.257 92.2608 140.518 86.5368L140.513 86.5315Z" fill="#E0B3A4"/>
<path d="M115.672 78.8889C113.801 76.5993 110.754 75.0835 107.266 75.0835C103.779 75.0835 100.731 76.5993 98.8604 78.8889" stroke="#435B75" stroke-width="0.86" stroke-linecap="round" stroke-linejoin="round"/>
<path d="M180.55 80.8446C178.679 78.555 175.631 77.0392 172.144 77.0392C168.657 77.0392 165.609 78.555 163.738 80.8446" stroke="#435B75" stroke-width="0.86" stroke-linecap="round" stroke-linejoin="round"/>
<path d="M112.99 96.9672C113.764 94.0363 113.95 84.9309 109.079 84.9309C104.208 84.9309 104.399 94.0575 105.168 96.9672" stroke="#435B75" stroke-linecap="round" stroke-linejoin="round"/>
<path d="M174.253 96.9672C175.027 94.0363 175.212 84.9309 170.342 84.9309C165.471 84.9309 165.662 94.0575 166.43 96.9672" stroke="#435B75" stroke-linecap="round" stroke-linejoin="round"/>
</g>
<circle cx="139.5" cy="139.5" r="139" stroke="#5688C7"/>
</svg>
