<svg width="277" height="277" viewBox="0 0 277 277" fill="none" xmlns="http://www.w3.org/2000/svg">
<circle cx="138.5" cy="138.5" r="138.5" fill="#BBCFE9"/>
<mask id="mask0_354_217" style="mask-type:alpha" maskUnits="userSpaceOnUse" x="0" y="0" width="277" height="277">
<circle cx="138.5" cy="138.5" r="138.5" fill="#D9D9D9"/>
</mask>
<g mask="url(#mask0_354_217)">
<path d="M138.166 277.098H223.342C223.342 191.911 157.087 195.467 157.087 195.467L138.171 196.485L119.255 195.467C119.255 195.467 53 191.911 53 277.098H138.176H138.166Z" fill="#83B4E6"/>
<path d="M138.166 222.815C158.879 222.815 175.669 211.754 175.685 198.106C165.164 195.043 157.082 195.472 157.082 195.472L138.166 196.49L119.25 195.472C119.25 195.472 111.168 195.043 100.647 198.106C100.663 211.754 117.454 222.815 138.166 222.815Z" fill="#78A7D6"/>
<path d="M138.166 217.197C152.328 217.197 164.629 212.517 161.873 199.405C159.117 186.298 154.787 166.63 154.787 166.63L138.166 168.501L121.546 166.63C121.546 166.63 117.21 186.293 114.459 199.405C111.703 212.512 124.005 217.197 138.166 217.197Z" fill="#FFD9CC"/>
<path d="M153.489 190.607C155.667 190.607 157.824 190.527 159.955 190.39C157.469 178.809 154.782 166.63 154.782 166.63L138.161 168.501L121.54 166.63C121.54 166.63 119.765 174.68 117.767 183.913C128.314 188.158 140.488 190.607 153.483 190.607H153.489Z" fill="#F2C1B1"/>
<path d="M79.8767 143.84C89.5976 143.84 97.478 134.996 97.478 124.087C97.478 113.178 89.5976 104.334 79.8767 104.334C70.1558 104.334 62.2754 113.178 62.2754 124.087C62.2754 134.996 70.1558 143.84 79.8767 143.84Z" fill="#FFD9CC"/>
<path d="M85.3617 105.319C83.6339 104.683 81.7948 104.328 79.8762 104.328C77.9576 104.328 76.2351 104.657 74.555 105.251C74.3112 111.308 74.4649 117.26 74.9048 122.831C75.4931 130.341 77.4912 137.39 80.5811 143.792C82.2877 143.718 83.9307 143.379 85.473 142.796C90.773 139.086 94.3558 132.122 94.3558 124.108C94.3558 116.094 90.7253 109.008 85.3617 105.314V105.319Z" fill="#F2C1B1"/>
<path d="M196.456 143.84C206.177 143.84 214.057 134.996 214.057 124.087C214.057 113.177 206.177 104.334 196.456 104.334C186.735 104.334 178.854 113.177 178.854 124.087C178.854 134.996 186.735 143.84 196.456 143.84Z" fill="#FFD9CC"/>
<path d="M190.971 105.319C185.607 109.014 181.977 116.036 181.977 124.113C181.977 132.19 185.559 139.091 190.859 142.801C192.407 143.384 194.05 143.723 195.751 143.797C198.846 137.395 200.839 130.341 201.428 122.836C201.862 117.266 202.016 111.308 201.777 105.256C200.097 104.657 198.311 104.334 196.456 104.334C194.601 104.334 192.698 104.689 190.971 105.325V105.319Z" fill="#F2C1B1"/>
<path d="M195.391 123.647C195.391 154.525 169.77 184.544 138.166 184.544C106.563 184.544 80.9424 154.53 80.9424 123.647C80.9424 92.7637 90.1008 53.2522 138.166 53.2522C186.232 53.2522 195.391 92.7637 195.391 123.647Z" fill="#FFD9CC"/>
<path d="M185.161 65.0553C185.161 65.0553 212.769 88.4495 195.358 125.242C195.358 125.242 191.007 119.979 181.239 94.8148C177.593 85.4179 175.77 77.0757 175.77 77.0757L185.161 65.0553Z" fill="#435B75"/>
<path d="M140.837 104.954C142.146 111.844 143.54 118.824 146.036 125.385C146.619 127.134 147.7 128.523 147.965 130.42C148.204 132.731 145.559 133.447 143.763 133.462C140.206 133.579 136.602 132.991 133.343 131.581C136.666 132.662 140.249 133.081 143.715 132.837C149.518 132.339 146.466 129.09 145.247 125.698C142.756 119.036 141.537 112.003 140.842 104.959L140.837 104.954Z" fill="#E0B3A4"/>
<path d="M116.087 98.0849C114.37 96.0285 111.571 94.6664 108.365 94.6664C105.158 94.6664 102.36 96.0285 100.643 98.0849" stroke="#435B75" stroke-width="0.86" stroke-linecap="round" stroke-linejoin="round"/>
<path d="M175.69 99.8445C173.973 97.7881 171.175 96.426 167.968 96.426C164.762 96.426 161.963 97.7881 160.246 99.8445" stroke="#435B75" stroke-width="0.86" stroke-linecap="round" stroke-linejoin="round"/>
<path d="M114.072 110.932C114.072 115.029 112.26 118.347 110.028 118.347C107.797 118.347 105.984 115.029 105.984 110.932C105.984 106.835 107.797 103.517 110.028 103.517C112.26 103.517 114.072 106.835 114.072 110.932Z" fill="#435B75"/>
<path d="M166.304 118.347C168.537 118.347 170.348 115.027 170.348 110.932C170.348 106.837 168.537 103.517 166.304 103.517C164.07 103.517 162.26 106.837 162.26 110.932C162.26 115.027 164.07 118.347 166.304 118.347Z" fill="#435B75"/>
<path d="M121.72 145.064C120.713 145.064 120.04 146.241 120.427 147.295C123.337 155.187 130.179 160.736 138.166 160.736C146.153 160.736 152.996 155.187 155.905 147.295C156.292 146.241 155.619 145.064 154.612 145.064H121.715H121.72Z" fill="white"/>
<path d="M80.979 125.242C80.979 125.242 85.0918 119.979 94.8597 94.8148C98.5061 85.4179 100.329 77.0757 100.329 77.0757C100.329 77.0757 109.318 82.4181 130.778 86.1811C151.029 89.7321 196.466 93.8555 197.823 59.0345C198.713 36.1226 188.876 26.4766 166.304 28.1938C149.238 29.4923 130.704 32.2748 110.829 41.5339C97.4726 47.7561 88.1287 55.6955 86.4486 68.3784C86.4486 68.3784 68.7731 92.2284 80.9737 125.242H80.979Z" fill="#526F8F"/>
</g>
</svg>
