<svg width="279" height="279" viewBox="0 0 279 279" fill="none" xmlns="http://www.w3.org/2000/svg">
<mask id="mask0_354_217" style="mask-type:alpha" maskUnits="userSpaceOnUse" x="1" y="1" width="277" height="277">
<circle cx="139.5" cy="139.5" r="138.5" fill="#D9D9D9"/>
</mask>
<g mask="url(#mask0_354_217)">
<path d="M139.166 278.098H224.342C224.342 192.911 158.087 196.467 158.087 196.467L139.171 197.485L120.255 196.467C120.255 196.467 54 192.911 54 278.098H139.176H139.166Z" fill="#83B4E6"/>
<path d="M139.166 223.815C159.879 223.815 176.669 212.754 176.685 199.106C166.164 196.043 158.082 196.472 158.082 196.472L139.166 197.49L120.25 196.472C120.25 196.472 112.168 196.043 101.647 199.106C101.663 212.754 118.454 223.815 139.166 223.815Z" fill="#78A7D6"/>
<path d="M139.166 218.197C153.328 218.197 165.629 213.517 162.873 200.405C160.117 187.298 155.787 167.63 155.787 167.63L139.166 169.501L122.546 167.63C122.546 167.63 118.21 187.293 115.459 200.405C112.703 213.512 125.005 218.197 139.166 218.197Z" fill="#FFD9CC"/>
<path d="M154.489 191.607C156.667 191.607 158.824 191.527 160.955 191.39C158.469 179.809 155.782 167.63 155.782 167.63L139.161 169.501L122.54 167.63C122.54 167.63 120.765 175.68 118.767 184.913C129.314 189.158 141.488 191.607 154.483 191.607H154.489Z" fill="#F2C1B1"/>
<path d="M80.8767 144.84C90.5976 144.84 98.478 135.996 98.478 125.087C98.478 114.178 90.5976 105.334 80.8767 105.334C71.1558 105.334 63.2754 114.178 63.2754 125.087C63.2754 135.996 71.1558 144.84 80.8767 144.84Z" fill="#FFD9CC"/>
<path d="M86.3617 106.319C84.6339 105.683 82.7948 105.328 80.8762 105.328C78.9576 105.328 77.2351 105.657 75.555 106.251C75.3112 112.308 75.4649 118.26 75.9048 123.831C76.4931 131.341 78.4912 138.39 81.5811 144.792C83.2877 144.718 84.9307 144.379 86.473 143.796C91.773 140.086 95.3558 133.122 95.3558 125.108C95.3558 117.094 91.7253 110.008 86.3617 106.314V106.319Z" fill="#F2C1B1"/>
<path d="M197.456 144.84C207.177 144.84 215.057 135.996 215.057 125.087C215.057 114.177 207.177 105.334 197.456 105.334C187.735 105.334 179.854 114.177 179.854 125.087C179.854 135.996 187.735 144.84 197.456 144.84Z" fill="#FFD9CC"/>
<path d="M191.971 106.319C186.607 110.014 182.977 117.036 182.977 125.113C182.977 133.19 186.559 140.091 191.859 143.801C193.407 144.384 195.05 144.723 196.751 144.797C199.846 138.395 201.839 131.341 202.428 123.836C202.862 118.266 203.016 112.308 202.777 106.256C201.097 105.657 199.311 105.334 197.456 105.334C195.601 105.334 193.698 105.689 191.971 106.325V106.319Z" fill="#F2C1B1"/>
<path d="M196.391 124.647C196.391 155.525 170.77 185.544 139.166 185.544C107.563 185.544 81.9424 155.53 81.9424 124.647C81.9424 93.7637 91.1008 54.2522 139.166 54.2522C187.232 54.2522 196.391 93.7637 196.391 124.647Z" fill="#FFD9CC"/>
<path d="M186.161 66.0553C186.161 66.0553 213.769 89.4495 196.358 126.242C196.358 126.242 192.007 120.979 182.239 95.8148C178.593 86.4179 176.77 78.0757 176.77 78.0757L186.161 66.0553Z" fill="#435B75"/>
<path d="M141.837 105.954C143.146 112.844 144.54 119.824 147.036 126.385C147.619 128.134 148.7 129.523 148.965 131.42C149.204 133.731 146.559 134.447 144.763 134.462C141.206 134.579 137.602 133.991 134.343 132.581C137.666 133.662 141.249 134.081 144.715 133.837C150.518 133.339 147.466 130.09 146.247 126.698C143.756 120.036 142.537 113.003 141.842 105.959L141.837 105.954Z" fill="#E0B3A4"/>
<path d="M117.087 99.0849C115.37 97.0285 112.571 95.6664 109.365 95.6664C106.158 95.6664 103.36 97.0285 101.643 99.0849" stroke="#435B75" stroke-width="0.86" stroke-linecap="round" stroke-linejoin="round"/>
<path d="M176.69 100.845C174.973 98.7881 172.175 97.426 168.968 97.426C165.762 97.426 162.963 98.7881 161.246 100.845" stroke="#435B75" stroke-width="0.86" stroke-linecap="round" stroke-linejoin="round"/>
<path d="M115.072 111.932C115.072 116.029 113.26 119.347 111.028 119.347C108.797 119.347 106.984 116.029 106.984 111.932C106.984 107.835 108.797 104.517 111.028 104.517C113.26 104.517 115.072 107.835 115.072 111.932Z" fill="#435B75"/>
<path d="M167.304 119.347C169.537 119.347 171.348 116.027 171.348 111.932C171.348 107.837 169.537 104.517 167.304 104.517C165.07 104.517 163.26 107.837 163.26 111.932C163.26 116.027 165.07 119.347 167.304 119.347Z" fill="#435B75"/>
<path d="M122.72 146.064C121.713 146.064 121.04 147.241 121.427 148.295C124.337 156.187 131.179 161.736 139.166 161.736C147.153 161.736 153.996 156.187 156.905 148.295C157.292 147.241 156.619 146.064 155.612 146.064H122.715H122.72Z" fill="white"/>
<path d="M81.979 126.242C81.979 126.242 86.0918 120.979 95.8597 95.8148C99.5061 86.4179 101.329 78.0757 101.329 78.0757C101.329 78.0757 110.318 83.4181 131.778 87.1811C152.029 90.7321 197.466 94.8555 198.823 60.0345C199.713 37.1226 189.876 27.4766 167.304 29.1938C150.238 30.4923 131.704 33.2748 111.829 42.5339C98.4726 48.7561 89.1287 56.6955 87.4486 69.3784C87.4486 69.3784 69.7731 93.2284 81.9737 126.242H81.979Z" fill="#526F8F"/>
</g>
<circle cx="139.5" cy="139.5" r="139" stroke="#5688C7"/>
</svg>
