<svg width="32" height="32" viewBox="0 0 32 32" fill="none" xmlns="http://www.w3.org/2000/svg">
<path d="M28.8648 26.5C26.9611 23.2087 24.0273 20.8487 20.6036 19.73C22.2971 18.7218 23.6129 17.1856 24.3489 15.3572C25.0848 13.5289 25.2002 11.5095 24.6774 9.60919C24.1546 7.70889 23.0224 6.03274 21.4548 4.83815C19.8872 3.64357 17.9708 2.9966 15.9999 2.9966C14.0289 2.9966 12.1125 3.64357 10.5449 4.83815C8.97725 6.03274 7.84509 7.70889 7.32228 9.60919C6.79946 11.5095 6.91489 13.5289 7.65083 15.3572C8.38678 17.1856 9.70256 18.7218 11.3961 19.73C7.97235 20.8475 5.0386 23.2075 3.13485 26.5C3.06504 26.6138 3.01873 26.7405 2.99866 26.8725C2.97859 27.0045 2.98517 27.1392 3.01801 27.2687C3.05084 27.3981 3.10927 27.5197 3.18984 27.6262C3.27041 27.7327 3.3715 27.8219 3.48713 27.8887C3.60277 27.9555 3.73061 27.9985 3.86311 28.0151C3.99561 28.0316 4.1301 28.0215 4.25863 27.9853C4.38716 27.9491 4.50713 27.8874 4.61146 27.8041C4.71579 27.7208 4.80238 27.6174 4.8661 27.5C7.2211 23.43 11.3836 21 15.9999 21C20.6161 21 24.7786 23.43 27.1336 27.5C27.1973 27.6174 27.2839 27.7208 27.3882 27.8041C27.4926 27.8874 27.6125 27.9491 27.7411 27.9853C27.8696 28.0215 28.0041 28.0316 28.1366 28.0151C28.2691 27.9985 28.3969 27.9555 28.5126 27.8887C28.6282 27.8219 28.7293 27.7327 28.8099 27.6262C28.8904 27.5197 28.9489 27.3981 28.9817 27.2687C29.0145 27.1392 29.0211 27.0045 29.001 26.8725C28.981 26.7405 28.9347 26.6138 28.8648 26.5ZM8.99985 12C8.99985 10.6155 9.41039 9.26215 10.1796 8.11101C10.9487 6.95986 12.042 6.06265 13.3211 5.53284C14.6001 5.00303 16.0076 4.8644 17.3655 5.1345C18.7234 5.4046 19.9706 6.07128 20.9496 7.05025C21.9286 8.02922 22.5953 9.2765 22.8653 10.6344C23.1354 11.9922 22.9968 13.3997 22.467 14.6788C21.9372 15.9579 21.04 17.0511 19.8888 17.8203C18.7377 18.5895 17.3843 19 15.9999 19C14.1439 18.998 12.3646 18.2599 11.0523 16.9476C9.73997 15.6352 9.00184 13.8559 8.99985 12Z" fill="#FFFFFC"/>
</svg>
