<svg width="40" height="40" viewBox="0 0 40 40" fill="none" xmlns="http://www.w3.org/2000/svg">
<path d="M34.2672 16.9813L21.7672 4.48126C21.2984 4.01277 20.6628 3.7496 20 3.7496C19.3373 3.7496 18.7016 4.01277 18.2328 4.48126L5.73283 16.9813C5.49955 17.2128 5.31464 17.4884 5.18883 17.7921C5.06303 18.0957 4.99885 18.4213 5.00002 18.75V33.75C5.00002 34.0815 5.13171 34.3995 5.36613 34.6339C5.60055 34.8683 5.91849 35 6.25002 35H16.25C16.5815 35 16.8995 34.8683 17.1339 34.6339C17.3683 34.3995 17.5 34.0815 17.5 33.75V25H22.5V33.75C22.5 34.0815 22.6317 34.3995 22.8661 34.6339C23.1006 34.8683 23.4185 35 23.75 35H33.75C34.0815 35 34.3995 34.8683 34.6339 34.6339C34.8683 34.3995 35 34.0815 35 33.75V18.75C35.0012 18.4213 34.937 18.0957 34.8112 17.7921C34.6854 17.4884 34.5005 17.2128 34.2672 16.9813ZM32.5 32.5H25V23.75C25 23.4185 24.8683 23.1005 24.6339 22.8661C24.3995 22.6317 24.0815 22.5 23.75 22.5H16.25C15.9185 22.5 15.6006 22.6317 15.3661 22.8661C15.1317 23.1005 15 23.4185 15 23.75V32.5H7.50002V18.75L20 6.25001L32.5 18.75V32.5Z" fill="#FFFFFC" fill-opacity="0.988235"/>
</svg>
