<?xml version="1.0" encoding="UTF-8"?>
<svg id="objects" xmlns="http://www.w3.org/2000/svg" viewBox="0 0 1200 1200">
  <defs>
    <style>
      .cls-1 {
        fill: #c94e23;
        stroke: #000;
        stroke-miterlimit: 10;
      }
    </style>
  </defs>
  <path class="cls-1" d="m838.59,289.67c-33.1-12.81-66.54.82-79.51,32.43-1.81,4.41-3.06,8.93-3.79,13.47.23-14.78.18-27.79.04-37.95v-21.08c0-1.31-.96-2.43-2.26-2.64-101.28-15.97-203.98-15.97-305.26,0-1.26.2-2.21,1.26-2.26,2.53-.01.35-1.07,26.36-.42,62.32-.58-5.59-1.98-11.2-4.21-16.64-12.97-31.6-46.41-45.23-79.5-32.43-41.01,15.86-32.45,73.33-28.85,90.56,7.49,35.81,29.7,68.27,69.9,102.14,3.76,3.17,7.65,6.34,11.9,9.68,3.11,2.45,6.26,4.75,9.77,7.3,11.68,8.5,22.72,16.52,27.9,28.97,3.14,7.54,2.54,16.59-1.62,24.21-4.91,9.01-14.54,13.13-23.41,10.02-5.47-1.93-16.58-8.85-13.95-16.89.83-2.53.62-5.23-.59-7.6-1.21-2.38-3.28-4.13-5.81-4.95-2.53-.83-5.23-.63-7.61.57-2.39,1.21-4.17,3.27-5,5.81-6.21,18.98,8.91,35.72,26.29,41.83,4.19,1.47,8.51,2.22,12.86,2.22h.01c14.45,0,27.45-8.04,34.79-21.52,5.96-10.95,7.51-23.79,4.48-35.41,1.46,3.35,2.97,6.55,4.54,9.48,23.89,44.35,63.25,77.15,93.31,97.44-1.6,1.68-2.55,3.94-2.55,6.39v9.51c0,5.15,4.21,9.34,9.38,9.34h3.24v85.97l-15.46,26.48h-17.13c-.72,0-1.41.29-1.91.8l-34.05,34.45c-.49.5-.77,1.17-.77,1.87v53.44h-14.12c-1.48,0-2.68,1.2-2.68,2.67v13.32c0,1.47,1.2,2.67,2.68,2.67h206.44c1.48,0,2.68-1.2,2.68-2.67v-13.32c0-1.47-1.2-2.67-2.68-2.67h-14.12v-54c0-.73-.3-1.42-.82-1.92l-35.32-33.89c-.5-.48-1.17-.75-1.86-.75h-15.85l-15.46-26.71v-85.74h.75c5.17,0,9.38-4.19,9.38-9.34v-9.51c0-1.94-.59-3.78-1.67-5.3,25.68-17.18,69.51-51.38,94.91-98.53,1.3-2.42,2.53-5,3.73-7.65-2.42,11.13-.72,23.21,4.93,33.58,7.34,13.47,20.35,21.52,34.79,21.52h.01c4.35,0,8.68-.75,12.86-2.22,17.38-6.11,32.5-22.86,26.29-41.83-.83-2.54-2.61-4.6-5-5.81-2.39-1.2-5.09-1.41-7.6-.58-2.54.82-4.61,2.58-5.82,4.95-1.21,2.37-1.42,5.07-.59,7.6,2.63,8.04-8.47,14.97-13.94,16.89-8.87,3.11-18.51-1-23.42-10.02-4.15-7.62-4.75-16.67-1.61-24.21,5.19-12.46,16.22-20.48,27.9-28.98,3.52-2.55,6.68-4.87,9.77-7.3,4.25-3.34,8.14-6.51,11.9-9.68,40.2-33.87,62.41-66.33,69.9-102.15,3.6-17.23,12.17-74.7-28.84-90.56Zm-402.82,193.48c-3.05-2.22-6.08-4.43-8.98-6.71-4.18-3.3-7.91-6.33-11.4-9.27-25.46-21.45-42.91-42.01-53.32-62.85-5.63-18.88-6.19-38.66-1.58-55.72,2.94-10.88,10.89-29.2,31.07-29.66,13.57-.44,26.46,8.81,29.99,21.21.55,1.92.76,3.95.92,6.41.33,5.09-.09,9.47-1.34,14.14-3.5,5.71-9.04,9.95-16.04,12.29-5.23,1.75-8.05,7.4-6.3,12.61.85,2.52,2.63,4.56,5.02,5.75,2.39,1.19,5.1,1.38,7.64.53,13.37-4.47,23.82-13.62,29.42-25.78,2.6-5.64,4.08-11.8,4.46-18.15.25,9.76.63,20.1,1.19,30.75,3.14,59.72,10.43,105.68,21.69,137.16-7.8-14.76-20.74-24.2-32.45-32.72Zm319.19-132.08c.63,5.25,2.01,10.32,4.18,15.04,5.6,12.16,16.04,21.32,29.42,25.78,2.53.85,5.25.66,7.64-.53,2.39-1.19,4.17-3.23,5.02-5.75,1.75-5.2-1.07-10.86-6.3-12.61-7.01-2.34-12.55-6.58-16.04-12.29-1.25-4.68-1.66-9.06-1.33-14.14.16-2.46.37-4.49.92-6.41,3.54-12.41,16.44-21.58,29.99-21.22,20.18.46,28.13,18.78,31.07,29.66,4.62,17.06,4.05,36.84-1.58,55.72-10.42,20.84-27.87,41.4-53.33,62.85-3.45,2.91-7.18,5.94-11.4,9.27-2.94,2.31-6.01,4.55-9.16,6.84-11.1,8.07-23.48,17.09-31.35,30.87,15.61-45.11,20.79-111.57,22.24-163.08Z"/>
  <g>
    <g>
      <g>
        <path class="cls-1" d="m939.57,72.68c26.85,24.49,31.68,62.92,31.68,62.92,0,0-38.71-1.28-65.56-25.77-26.85-24.49-31.68-62.92-31.68-62.92,0,0,38.71,1.28,65.56,25.77Z"/>
        <g>
          <g>
            <path class="cls-1" d="m750.75,975.13c-23.12,29.66-24.51,64.68-24.2,64.79-.09.44,48.51-13.14,70.31-45.86,21.81-32.3,11.19-65.77,11.51-65.68-.12.32-34.54,17.36-57.62,46.74Z"/>
            <path class="cls-1" d="m784.79,1077.83c-42.66-7.24-58.56-39.49-58.55-39.21.5.16,46.21-13.03,85.59-8.4,39.78,4.84,63.14,29.54,63.14,29.81.56.13-47.06,25.22-90.18,17.8Z"/>
          </g>
          <g>
            <path class="cls-1" d="m835.07,938.08c-15.89,32.52-10.18,66.53-9.89,66.59-.04.45,42.68-20.75,57.06-56.06,14.43-34.9-1.99-65.5-1.69-65.46-.07.33-29.59,22.68-45.48,54.93Z"/>
            <path class="cls-1" d="m887.16,1031.55c-41.46.13-62.56-28.36-62.53-28.08.47.07,40.53-20.27,78.76-22.44,38.6-2.03,65.65,17.89,65.68,18.15.53.04-40.01,32.34-81.91,32.37Z"/>
          </g>
          <g>
            <path class="cls-1" d="m907.87,887.97c-9.02,34.19,2.99,66.09,3.26,66.1.02.45,36.6-27.29,43.92-63.98,7.4-36.3-13.97-63.17-13.7-63.17-.02.34-24.42,27.13-33.48,61.05Z"/>
            <path class="cls-1" d="m975.31,969.56c-39.58,7.17-64.99-16.82-64.93-16.55.43,0,34.63-26.47,71.01-35.13,36.74-8.59,66.55,6.06,66.61,6.3.49-.05-32.7,38.23-72.7,45.38Z"/>
          </g>
          <g>
            <path class="cls-1" d="m968.63,826.87c-2.52,34.75,14.97,63.58,15.22,63.55.07.44,30.27-32.76,30.89-69.7.74-36.57-24.73-59-24.47-59.05.03.34-19.04,30.69-21.64,65.19Z"/>
            <path class="cls-1" d="m1048.64,894.38c-36.98,13.79-65.81-5.11-65.72-4.85.39-.07,28.51-31.62,62.34-46.38,34.16-14.74,65.8-5.72,65.89-5.49.46-.12-25.14,42.89-62.51,56.72Z"/>
          </g>
          <g>
            <path class="cls-1" d="m1016.85,756.85c3.58,34.29,25.71,59.26,25.95,59.19.12.42,23.7-37.14,18.01-73.29-5.53-35.81-34.21-53.23-33.98-53.32.08.33-13.44,33.38-9.98,67.42Z"/>
            <path class="cls-1" d="m1106.59,808.54c-33.65,19.9-64.98,6.54-64.85,6.78.35-.13,22.17-35.73,52.72-56.11,30.86-20.4,63.36-17.21,63.48-16.99.42-.19-17.33,46.32-51.35,66.32Z"/>
          </g>
          <g>
            <path class="cls-1" d="m1052.01,679.97c9.28,32.89,35.19,53.33,35.4,53.23.18.39,16.87-40.45,5.27-74.86-11.39-34.09-42.39-46.09-42.17-46.21.14.31-7.62,35.17,1.5,67.84Z"/>
            <path class="cls-1" d="m1148.55,714.58c-29.57,25.41-62.45,17.89-62.3,18.11.31-.18,15.62-38.8,42.14-64.21,26.81-25.48,59.19-28.17,59.35-27.98.38-.25-9.26,48.52-39.19,74.08Z"/>
          </g>
          <g>
            <path class="cls-1" d="m1073.61,598.34c14.57,30.65,43.35,46.04,43.54,45.91.23.36,9.79-42.67-7.3-74.47-16.84-31.52-49.22-37.81-49.02-37.96.19.29-1.58,36.07,12.78,66.53Z"/>
            <path class="cls-1" d="m1173.94,615.05c-24.73,30.24-58.2,28.71-58.01,28.9.27-.23,8.84-40.84,30.59-70.61,22.01-29.89,53.26-38.38,53.44-38.21.34-.3-.95,49.48-26.02,79.92Z"/>
          </g>
          <g>
            <path class="cls-1" d="m1081.13,514.04c19.42,27.65,50.17,37.62,50.33,37.46.29.32,2.46-43.81-19.7-72.22-21.87-28.18-54.66-28.63-54.48-28.81.25.26,4.68,36.08,23.85,63.57Z"/>
            <path class="cls-1" d="m1182.17,512.51c-19.13,34.28-52.17,38.76-51.95,38.92.23-.26,1.84-41.83,18.04-75.21,16.44-33.54,45.51-47.6,45.73-47.46.3-.35,7.61,49.21-11.82,83.75Z"/>
          </g>
          <g>
            <path class="cls-1" d="m1074.05,429.18c23.82,23.98,55.6,28.31,55.74,28.12.35.28-5.13-43.85-31.9-68.19-26.44-24.15-58.67-18.78-58.52-18.97.31.22,11.15,35.2,34.69,59.05Z"/>
            <path class="cls-1" d="m1172.65,409.51c-12.73,37.46-44.34,47.82-44.08,47.94.18-.29-5.38-41.78,4.49-77.94,10.08-36.35,35.92-55.59,36.17-55.48.25-.38,16.43,47.72,3.42,85.47Z"/>
          </g>
          <g>
            <path class="cls-1" d="m1051.87,345.86c27.76,19.72,59.59,18.32,59.71,18.12.41.22-12.96-42.81-43.9-62.47-30.56-19.52-61.22-8.48-61.09-8.69.37.17,17.85,33.41,45.28,53.04Z"/>
            <path class="cls-1" d="m1144.78,308.62c-5.54,39.69-34.66,55.64-34.37,55.73.13-.32-12.81-40.7-10.07-78.69,2.92-38.21,24.45-62.12,24.73-62.05.21-.41,25.5,44.99,19.71,85.01Z"/>
          </g>
          <g>
            <path class="cls-1" d="m1014.07,266.2c31.22,14.97,62.13,7.9,62.22,7.68.48.16-21.05-40.67-55.67-55.13-34.2-14.38-62.26,2.03-62.16,1.8.43.12,24.77,30.72,55.62,45.65Z"/>
            <path class="cls-1" d="m1097.97,212.43c2.48,40.87-23.09,61.99-22.77,62.04.09-.33-20.47-38.57-25.67-77.38-5.05-39.05,11.04-66.96,11.36-66.93.16-.44,34.82,41.04,37.07,82.27Z"/>
          </g>
          <g>
            <path class="cls-1" d="m960.11,192.34c34.19,9.8,63.16-2.73,63.22-2.95.54.09-29.39-37.43-67.21-46.26-37.35-8.81-61.76,12.52-61.69,12.28.49.06,31.91,27.13,65.68,36.94Z"/>
            <path class="cls-1" d="m1031.63,123.52c11.33,40.92-9.59,66.64-9.23,66.64.04-.34-28.35-35.41-42.32-73.93-13.85-38.77-4.32-69.87-3.97-69.88.12-.45,44.39,35.86,55.52,77.16Z"/>
          </g>
        </g>
        <path class="cls-1" d="m589.84,1050.67l.68-7.5c62.15,5.63,124.1-1.3,184.14-20.58,58.5-18.79,112.66-48.44,160.98-88.15,100.28-82.4,164.94-199.98,182.09-331.09,14.04-107.36,6.84-203.03-21.41-284.36-30.33-87.33-84.35-155.67-160.55-203.11l3.98-6.39c77.7,48.38,132.78,118.03,163.69,207.03,28.64,82.44,35.96,179.28,21.76,287.81-17.4,133.01-83.02,252.32-184.78,335.93-49.06,40.31-104.05,70.42-163.46,89.5-61.01,19.59-123.96,26.62-187.12,20.91Z"/>
      </g>
      <g>
        <path class="cls-1" d="m260.43,72.68c-26.85,24.49-31.68,62.92-31.68,62.92,0,0,38.71-1.28,65.56-25.77,26.85-24.49,31.68-62.92,31.68-62.92,0,0-38.71,1.28-65.56,25.77Z"/>
        <g>
          <g>
            <path class="cls-1" d="m449.25,975.13c23.12,29.66,24.51,64.68,24.2,64.79.09.44-48.51-13.14-70.31-45.86-21.81-32.3-11.19-65.77-11.51-65.68.12.32,34.54,17.36,57.62,46.74Z"/>
            <path class="cls-1" d="m415.21,1077.83c42.66-7.24,58.56-39.49,58.56-39.21-.5.16-46.21-13.03-85.59-8.4-39.78,4.84-63.14,29.54-63.14,29.81-.56.13,47.06,25.22,90.18,17.8Z"/>
          </g>
          <g>
            <path class="cls-1" d="m364.93,938.08c15.89,32.52,10.18,66.53,9.89,66.59.04.45-42.68-20.75-57.06-56.06-14.43-34.9,1.99-65.5,1.69-65.46.07.33,29.59,22.68,45.48,54.93Z"/>
            <path class="cls-1" d="m312.84,1031.55c41.46.13,62.56-28.36,62.53-28.08-.47.07-40.53-20.27-78.76-22.44-38.6-2.03-65.65,17.89-65.68,18.15-.53.04,40.01,32.34,81.91,32.37Z"/>
          </g>
          <g>
            <path class="cls-1" d="m292.13,887.97c9.02,34.19-2.99,66.09-3.26,66.1-.02.45-36.6-27.29-43.92-63.98-7.4-36.3,13.97-63.17,13.7-63.17.02.34,24.42,27.13,33.48,61.05Z"/>
            <path class="cls-1" d="m224.69,969.56c39.58,7.17,64.99-16.82,64.93-16.55-.43,0-34.63-26.47-71.01-35.13-36.74-8.59-66.55,6.06-66.61,6.3-.49-.05,32.7,38.23,72.7,45.38Z"/>
          </g>
          <g>
            <path class="cls-1" d="m231.37,826.87c2.52,34.75-14.97,63.58-15.22,63.55-.07.44-30.27-32.76-30.89-69.7-.74-36.57,24.73-59,24.47-59.05-.03.34,19.04,30.69,21.64,65.19Z"/>
            <path class="cls-1" d="m151.36,894.38c36.98,13.79,65.81-5.11,65.72-4.85-.39-.07-28.51-31.62-62.34-46.38-34.16-14.74-65.8-5.72-65.89-5.49-.46-.12,25.14,42.89,62.51,56.72Z"/>
          </g>
          <g>
            <path class="cls-1" d="m183.15,756.85c-3.58,34.29-25.71,59.26-25.95,59.19-.12.42-23.7-37.14-18.01-73.29,5.53-35.81,34.21-53.23,33.98-53.32-.08.33,13.44,33.38,9.98,67.42Z"/>
            <path class="cls-1" d="m93.41,808.54c33.65,19.9,64.98,6.54,64.85,6.78-.35-.13-22.17-35.73-52.72-56.11-30.86-20.4-63.36-17.21-63.48-16.99-.42-.19,17.33,46.32,51.35,66.32Z"/>
          </g>
          <g>
            <path class="cls-1" d="m147.99,679.97c-9.28,32.89-35.19,53.33-35.4,53.23-.18.39-16.87-40.45-5.27-74.86,11.39-34.09,42.39-46.09,42.17-46.21-.14.31,7.62,35.17-1.5,67.84Z"/>
            <path class="cls-1" d="m51.45,714.58c29.57,25.41,62.45,17.89,62.3,18.11-.31-.18-15.62-38.8-42.14-64.21-26.81-25.48-59.19-28.17-59.35-27.98-.38-.25,9.26,48.52,39.19,74.08Z"/>
          </g>
          <g>
            <path class="cls-1" d="m126.39,598.34c-14.57,30.65-43.35,46.04-43.54,45.91-.23.36-9.79-42.67,7.3-74.47,16.84-31.52,49.22-37.81,49.02-37.96-.19.29,1.58,36.07-12.78,66.53Z"/>
            <path class="cls-1" d="m26.06,615.05c24.73,30.24,58.2,28.71,58.01,28.9-.27-.23-8.84-40.84-30.59-70.61C31.47,543.45.22,534.96.04,535.13c-.34-.3.95,49.48,26.02,79.92Z"/>
          </g>
          <g>
            <path class="cls-1" d="m118.87,514.04c-19.42,27.65-50.17,37.62-50.33,37.46-.29.32-2.46-43.81,19.7-72.22,21.87-28.18,54.66-28.63,54.48-28.81-.25.26-4.68,36.08-23.85,63.57Z"/>
            <path class="cls-1" d="m17.83,512.51c19.13,34.28,52.17,38.76,51.95,38.92-.23-.26-1.84-41.83-18.04-75.21-16.44-33.54-45.51-47.6-45.73-47.46-.3-.35-7.61,49.21,11.82,83.75Z"/>
          </g>
          <g>
            <path class="cls-1" d="m125.95,429.18c-23.82,23.98-55.6,28.31-55.74,28.12-.35.28,5.13-43.85,31.9-68.19,26.44-24.15,58.67-18.78,58.52-18.97-.31.22-11.15,35.2-34.69,59.05Z"/>
            <path class="cls-1" d="m27.35,409.51c12.73,37.46,44.34,47.82,44.08,47.94-.18-.29,5.38-41.78-4.49-77.94-10.08-36.35-35.92-55.59-36.17-55.48-.25-.38-16.43,47.72-3.42,85.47Z"/>
          </g>
          <g>
            <path class="cls-1" d="m148.13,345.86c-27.76,19.72-59.59,18.32-59.71,18.12-.41.22,12.96-42.81,43.9-62.47,30.56-19.52,61.22-8.48,61.09-8.69-.37.17-17.85,33.41-45.28,53.04Z"/>
            <path class="cls-1" d="m55.22,308.62c5.54,39.69,34.66,55.64,34.37,55.73-.13-.32,12.81-40.7,10.07-78.69-2.92-38.21-24.45-62.12-24.73-62.05-.21-.41-25.5,44.99-19.71,85.01Z"/>
          </g>
          <g>
            <path class="cls-1" d="m185.94,266.2c-31.22,14.97-62.13,7.9-62.22,7.68-.48.16,21.05-40.67,55.67-55.13,34.2-14.38,62.26,2.03,62.16,1.8-.43.12-24.77,30.72-55.62,45.65Z"/>
            <path class="cls-1" d="m102.03,212.43c-2.48,40.87,23.09,61.99,22.77,62.04-.09-.33,20.47-38.57,25.67-77.38,5.05-39.05-11.04-66.96-11.36-66.93-.16-.44-34.82,41.04-37.07,82.27Z"/>
          </g>
          <g>
            <path class="cls-1" d="m239.89,192.34c-34.19,9.8-63.16-2.73-63.22-2.95-.54.09,29.39-37.43,67.21-46.26,37.35-8.81,61.76,12.52,61.69,12.28-.49.06-31.91,27.13-65.68,36.94Z"/>
            <path class="cls-1" d="m168.37,123.52c-11.33,40.92,9.59,66.64,9.23,66.64-.04-.34,28.35-35.41,42.32-73.93,13.85-38.77,4.32-69.87,3.97-69.88-.12-.45-44.39,35.86-55.52,77.16Z"/>
          </g>
        </g>
        <path class="cls-1" d="m610.16,1050.67l-.68-7.5c-62.15,5.63-124.1-1.3-184.14-20.58-58.5-18.79-112.66-48.44-160.98-88.15-100.28-82.4-164.94-199.98-182.09-331.09-14.04-107.36-6.84-203.03,21.41-284.36,30.33-87.33,84.35-155.67,160.55-203.11l-3.98-6.39c-77.7,48.38-132.78,118.03-163.69,207.03-28.64,82.44-35.96,179.28-21.76,287.81,17.4,133.01,83.02,252.32,184.78,335.93,49.06,40.31,104.05,70.42,163.46,89.5,61.01,19.59,123.96,26.62,187.12,20.91Z"/>
      </g>
    </g>
    <polygon class="cls-1" points="597.77 1012.3 540.85 1054.16 597.77 1096.01 654.69 1054.16 597.77 1012.3"/>
  </g>
</svg>