<?xml version="1.0" encoding="UTF-8"?>
<svg id="objects" xmlns="http://www.w3.org/2000/svg" viewBox="0 0 1200 1200">
  <defs>
    <style>
      .cls-1 {
        fill: #c94e23;
        stroke: #000;
        stroke-miterlimit: 10;
      }
    </style>
  </defs>
  <polygon class="cls-1" points="600 331.73 667.07 483.84 832.33 465.87 734.13 600 832.33 734.13 667.07 716.16 600 868.27 532.93 716.16 367.67 734.13 465.87 600 367.67 465.87 532.93 483.84 600 331.73"/>
  <g>
    <g>
      <path class="cls-1" d="m32.24,804.48c-.1,0-.19,0-.29-.02-1.23-.15-2.77-1.07-3.03-3.2-3.43-27.9-7.63-47.99-13.44-75.8l-2.17-10.39c-7.07-36.16-5.29-66.12,6.13-103.47,2.91-9.7,12.5-25.31,22.24-28.11,3.46-1,6.67-.32,9.27,1.96,1.08.92,1.83,2.21,2.13,3.71.32,1.62.09,3.21-.09,4.5-1.17,8.16-.59,17.7,1.63,26.96,2.08,8.7,5.35,16.43,8.24,23,2.39,5.4,4.75,10.5,7.06,15.46,2.22,4.78,4.39,9.45,6.46,14.16,6.02,13.58,10.3,25.44,13.89,38.44,6.2,22.2,9.25,41.75,12.47,62.45l.44,2.81c.19,1.23-.36,2.46-1.4,3.14-.72.47-1.61.63-2.45.43-2.75-.64-28.93-33.11-31.88-36.86l-.02.02c-6.21-7.76-12.25-15.62-17.63-25.2.02,1.72.02,3.41.02,5.08.02,20.01-.94,35.27-3.01,48-1.06,6.52-2.6,12.85-4.7,19.35-.01.04-.03.09-.04.13-.05.14-5.07,13.45-9.82,13.45Zm12.39-215.1c-.37,0-.77.07-1.21.19-6.35,1.83-15.17,14.65-17.93,23.86-11.24,36.76-12.92,64.9-5.99,100.38l2.16,10.35c5.3,25.33,9.26,44.3,12.53,68.59.88-1.69,1.64-3.25,1.91-3.9,1.98-6.16,3.43-12.15,4.44-18.31,2.01-12.39,2.94-27.32,2.92-46.98,0-6.11-.11-12.58-.3-19.23-.04-1.52,1-2.86,2.49-3.18,1.52-.33,3,.46,3.59,1.87,6.42,15.28,14.26,25.66,23.09,36.7.09.12.18.24.25.36,1.52,2.57,14.4,17.8,22.66,27.31-2.8-17.72-5.78-34.92-11.11-54.02-3.51-12.7-7.7-24.28-13.58-37.57-2.07-4.68-4.21-9.31-6.42-14.05-2.32-5-4.71-10.13-7.11-15.58-3.01-6.83-6.4-14.87-8.6-24.08-2.4-10.02-3.03-20.4-1.76-29.22.14-.97.28-1.92.17-2.46-.72-.71-1.42-1.03-2.23-1.03Zm-5.54,200.55h.03-.03Z"/>
      <path class="cls-1" d="m112.09,959.2c-1.37,0-2.58-.82-3.2-2.2-10.97-24.67-20.61-41.59-33.95-65l-3.61-6.34c-16.23-29.41-22.09-55.91-20.24-91.51.41-8.9,5.69-25.02,14.2-30.83,3.12-2.14,6.45-2.69,9.63-1.61,1.39.45,2.55,1.39,3.3,2.7.79,1.37.97,2.86,1.12,4.05.87,7.21,3.77,14.95,8.19,21.98,4.14,6.59,9.05,11.89,13.72,16.76,3.43,3.57,6.79,6.93,10.07,10.21,3.63,3.63,7.16,7.17,10.61,10.79,9.33,9.78,16.56,18.71,23.42,28.98,11.94,17.74,20.1,34.49,28.74,52.22l.78,1.59c.64,1.33.29,2.92-.86,3.85q-1.9,1.54-21.73-9.59c-6.7-3.77-18.13-10.26-20.75-12.23-8.45-5.05-16.31-9.99-23.98-16.65.49,1.62.97,3.22,1.44,4.81,5.17,17.67,8.19,31.53,9.49,43.62.66,6.2.82,12.39.47,18.92,0,.05,0,.1-.01.15-.02.14-1.59,14.52-6.29,15.27-.19.03-.37.05-.55.05Zm-40.22-191.73c-.72,0-1.72.2-3.01,1.08-5.87,4.01-11.06,17.46-11.45,25.91-1.81,34.79,3.64,59.49,19.44,88.11l3.58,6.3c12.22,21.44,21.34,37.47,31.25,58.96.46-1.95.83-3.8.94-4.55.32-6.15.18-11.97-.45-17.79-1.26-11.71-4.21-25.22-9.28-42.52-1.57-5.37-3.33-11-5.21-16.73-.47-1.42.12-2.97,1.42-3.72s2.93-.5,3.94.61c10.08,11.12,20.4,17.71,31.87,24.56.13.08.25.16.37.26,2.02,1.64,19.06,11.28,29.61,17.09-7.53-15.36-14.67-29.24-24.81-44.32-6.65-9.96-13.67-18.63-22.74-28.13-3.42-3.59-6.92-7.09-10.51-10.68-3.3-3.31-6.69-6.69-10.16-10.3-4.9-5.11-10.06-10.68-14.52-17.78-4.91-7.8-8.14-16.48-9.1-24.43-.08-.68-.19-1.56-.34-1.82-.21-.04-.5-.09-.86-.09Zm43.91,176.09h.03-.03Z"/>
      <path class="cls-1" d="m227.85,1072.93c-1,0-1.98-.45-2.72-1.31-17.85-20.7-31.63-33.33-52.5-52.47l-1.94-1.78c-23.18-21.79-35.6-43.76-42.9-75.87-2.12-9.03-.52-23.72,5.25-31.14,2.47-3.18,5.6-4.9,9.06-4.97,1.41-.03,2.85.43,3.95,1.39,1.2,1.03,1.8,2.4,2.24,3.4,2.62,5.96,7.31,11.81,13.27,16.59,5.59,4.5,11.64,7.69,17.35,10.57,3.83,1.93,7.55,3.73,11.19,5.49,4.84,2.34,9.41,4.55,14,6.94,11.48,5.96,20.72,11.87,29.95,19.17,16.44,12.9,28.34,25.74,42.13,40.61,1.15,1.24,1.3,3.37.11,4.57q-1.39,1.42-22.91-2.96c-7.42-1.51-20.08-4.14-23.05-5.11-9.49-2.14-18.36-4.33-27.44-8.09.87,1.3,1.73,2.6,2.57,3.88,9.5,14.52,15.99,26.35,20.43,37.23,2.26,5.53,4.02,11.22,5.39,17.38,0,.05.02.1.03.15.02.14,2.25,13.98-2.02,16-.47.22-.96.33-1.45.33Zm-85.83-161.19c-1.47.11-2.76.93-3.98,2.51-4.39,5.65-5.8,18.53-4.08,25.83,7.09,31.19,18.59,51.55,41.03,72.65l1.92,1.76c19.23,17.63,32.49,29.8,48.46,47.79-.07-1.97-.19-3.83-.28-4.58-1.29-5.77-2.93-11.08-5.04-16.24-4.28-10.49-10.59-21.98-19.86-36.15-2.92-4.45-6.04-9.03-9.29-13.62-.85-1.21-.76-2.85.23-3.95.99-1.1,2.61-1.36,3.9-.64,12.42,6.97,24.05,9.92,36.88,12.81.13.03.26.07.39.11,2.39.87,21.3,4.77,32.96,7.05-11.17-11.95-21.62-22.58-35.11-33.16-8.92-7.05-17.84-12.76-28.96-18.52-4.51-2.35-9.04-4.54-13.84-6.86-3.67-1.77-7.42-3.59-11.29-5.53-6.01-3.04-12.39-6.41-18.46-11.29-6.74-5.41-12.08-12.1-15.04-18.84-.17-.39-.38-.86-.54-1.13Z"/>
      <path class="cls-1" d="m369.06,1148.04c-.7,0-1.42-.22-2.08-.65-23.62-15.66-40.75-24.06-66.67-36.79-28.03-14.14-45.72-31.19-61.1-58.87-4.27-7.55-6.61-21.42-3.28-30,1.51-3.89,4.11-6.54,7.51-7.65,1.36-.47,2.81-.44,4.13.13,1.48.63,2.44,1.76,3.15,2.58,3.99,4.66,10,8.69,16.96,11.41,6.49,2.54,13.16,3.8,19.42,4.86,3.82.65,7.53,1.23,11.16,1.79,5.63.87,10.94,1.7,16.32,2.72,12.57,2.37,23.01,5.38,33.87,9.77,19.72,7.91,35.18,17.39,51.55,27.44.73.45,1.25,1.18,1.44,2.03.18.84.02,1.72-.47,2.44q-1,1.49-22.71,3.04c-7.55.54-20.41,1.42-23.52,1.31-9.71.54-18.83.87-28.51-.19,1.15.96,2.28,1.92,3.39,2.88,12.72,10.92,22.37,20.67,29.5,29.81,3.64,4.68,6.84,9.63,9.78,15.14.02.05.05.09.07.14.06.12,5.84,12.77,2.3,15.84-.64.55-1.41.83-2.2.83Zm1.42-5.93s0,0,0,0t0,0Zm-125.26-121.95c-1.51.58-2.61,1.84-3.39,3.86-2.57,6.61-.58,18.45,2.9,24.61,14.91,26.84,31.28,42.62,58.4,56.3,23.12,11.35,40.37,19.81,61.6,33.42-.58-1.84-1.18-3.56-1.47-4.24-2.76-5.14-5.75-9.77-9.14-14.12-6.87-8.8-16.23-18.26-28.63-28.9-3.98-3.41-8.19-6.88-12.51-10.29-1.16-.92-1.53-2.52-.89-3.85.64-1.33,2.1-2.07,3.56-1.72,13.71,3.12,25.73,2.77,38.89,2.04.12,0,.24,0,.37,0,2.58.12,21.73-1.17,33.59-2.09-13.25-8.03-26.46-15.56-42.42-21.96-10.46-4.22-20.53-7.13-32.68-9.42-5.28-1-10.54-1.82-16.11-2.69-3.66-.57-7.39-1.15-11.24-1.8-6.59-1.12-13.62-2.45-20.67-5.21-7.91-3.09-14.8-7.75-19.4-13.12-.23-.27-.53-.62-.74-.82Z"/>
      <path class="cls-1" d="m525.25,1184.53c-.42,0-.86-.07-1.3-.22-26.4-9.14-44.48-12.96-74.18-18.94-30.79-6.52-52.36-18.3-74.49-40.67-6.09-6.07-12.02-18.66-11.11-27.71.42-4.14,2.22-7.38,5.22-9.36,1.22-.81,2.61-1.15,4.01-.97,1.57.2,2.79,1.02,3.69,1.61,5.1,3.39,11.95,5.65,19.38,6.42,6.91.73,13.68.19,20.03-.41,3.64-.35,7.17-.73,10.62-1.1,5.88-.63,11.43-1.23,17.1-1.64,12.74-.93,23.62-.68,35.29.82,21.37,2.71,39.54,8.31,57.11,13.73.85.26,1.54.86,1.93,1.66.38.8.41,1.72.08,2.54q-.64,1.58-21.13,8.38c-7.16,2.38-19.43,6.41-22.36,7.06-9.21,2.92-17.9,5.49-27.47,6.91,1.35.63,2.68,1.26,4,1.9,15.14,7.31,27.05,14.31,36.42,21.42,4.75,3.61,9.15,7.6,13.47,12.2.03.04.06.07.1.11.09.11,9,10.97,6.41,14.76-.65.96-1.68,1.48-2.82,1.48Zm-152.51-91.51c-1.32.96-2.05,2.45-2.26,4.6-.7,6.94,4.33,17.66,9.29,22.61,21.48,21.71,41.46,32.62,71.29,38.94,26.58,5.35,44.9,9.2,68.29,16.9-1.03-1.6-2.04-3.07-2.49-3.64-4.05-4.31-8.17-8.04-12.6-11.4-9.03-6.84-20.59-13.63-35.34-20.75-4.76-2.29-9.75-4.57-14.81-6.76-1.36-.59-2.13-2.04-1.85-3.5.28-1.46,1.53-2.53,3.01-2.57,14.05-.46,25.11-3.65,38.1-7.77.11-.04.23-.06.34-.09,2.46-.49,20.58-6.46,31.83-10.26-14.49-4.37-29.67-8.51-46.83-10.68-11.24-1.46-21.73-1.7-34.03-.79-5.56.4-11.06.99-16.88,1.62-3.48.37-7.03.76-10.69,1.11-6.67.64-13.8,1.2-21.29.41-8.42-.87-16.29-3.5-22.15-7.39-.32-.21-.69-.46-.93-.59Z"/>
      <path class="cls-1" d="m686,1182.41c-.13,0-.26,0-.39-.02-28.17-2.58-47.55-1.94-76.83-.68-31.49,1.03-55.47-5.14-82.82-21.34-7.59-4.43-16.69-15.22-18.1-24.21-.63-4.02.27-7.53,2.62-10.14.95-1.09,2.21-1.77,3.63-1.94,1.56-.22,2.96.29,3.98.64,5.86,2.02,13.09,2.54,20.49,1.47,6.83-.97,13.01-3.04,19.25-5.26,3.33-1.18,6.56-2.37,9.72-3.53,5.61-2.06,10.9-4.01,16.36-5.79,12.09-3.96,22.69-6.32,34.38-7.65,21.33-2.47,40.44-1.37,58.92-.29.87.05,1.68.46,2.24,1.13.56.67.82,1.54.72,2.4q-.2,1.73-18.27,13.21c-6.3,4-17.09,10.81-19.76,12.16-8.11,5-15.81,9.55-24.66,13.2,1.5.29,2.98.59,4.44.89,16.57,3.45,29.95,7.4,40.93,12.06,5.56,2.37,10.89,5.18,16.27,8.59.05.03.09.06.13.09.12.08,11.71,8.32,10.06,12.78-.51,1.38-1.78,2.23-3.3,2.23Zm-170.95-52.01c-.96,1.19-1.26,2.75-.94,4.78,1.09,6.9,8.85,16.11,15.06,19.73,26.58,15.76,48.81,21.51,79.37,20.48,26.95-1.17,45.6-1.81,70.41.09-1.4-1.28-2.74-2.44-3.32-2.88-5.06-3.2-10.05-5.84-15.25-8.05-10.59-4.5-23.59-8.32-39.75-11.69-5.19-1.08-10.61-2.09-16.13-3.01-1.46-.24-2.56-1.47-2.64-2.95-.08-1.48.87-2.82,2.3-3.22,13.46-3.8,23.31-9.51,34.78-16.59.1-.06.2-.12.31-.17,2.24-1.06,18.16-11.12,28.03-17.47-15.26-.79-31.1-1.19-48.29.8-11.25,1.27-21.46,3.55-33.13,7.37-5.35,1.75-10.6,3.68-16.15,5.72-3.18,1.17-6.43,2.36-9.79,3.56-6.3,2.24-13.07,4.5-20.47,5.56-8.38,1.21-16.67.6-23.35-1.72-.36-.12-.79-.27-1.07-.34Z"/>
      <path class="cls-1" d="m725.7,1165.86c-14.28,0-28.6-2.37-44.52-7.11-8.64-2.51-20.36-10.87-24-19.3-1.58-3.66-1.6-7.19-.06-10.23.85-1.68,2.14-2.45,3.07-2.8,1.47-.56,2.95-.43,4.03-.32,6.18.58,13.32-.66,20.2-3.44,6.34-2.56,11.76-6.03,17.22-9.66,2.93-1.95,5.76-3.88,8.52-5.78,4.86-3.32,9.45-6.45,14.23-9.47,10.63-6.72,20.27-11.55,31.24-15.65,19.66-7.41,37.76-10.91,56.91-14.62.84-.17,1.72.02,2.42.52.7.49,1.18,1.25,1.31,2.1q.27,1.76-14.17,17.33c-5.01,5.41-13.62,14.62-15.89,16.59-6.51,6.8-12.76,13.07-20.36,18.74,1.56-.08,3.13-.15,4.67-.21,16.98-.66,30.98-.08,42.8,1.74,6.01.93,11.91,2.35,18.02,4.34.04.02.08.03.12.04.14.05,13.57,5.18,13.09,9.91-.13,1.3-1.12,2.76-3.04,3.06-27.76,4.4-45.52,9.45-74.52,18-14.59,4.14-27.94,6.21-41.31,6.21Zm-63.04-33.53c-.56,1.3-.45,2.81.33,4.61,2.77,6.39,13.01,13.71,19.98,15.74,29.97,8.93,53.03,9.18,82.28.89,25.85-7.62,43.78-12.75,68.02-16.97-1.72-.91-3.32-1.7-3.98-1.98-5.75-1.86-11.28-3.2-16.92-4.07-11.41-1.76-25.02-2.3-41.59-1.68-5.41.21-10.93.54-16.41.97-1.42.11-2.84-.81-3.27-2.22-.44-1.42.16-2.94,1.45-3.68,12-6.89,20.33-15.14,29.21-24.42.09-.09.18-.18.28-.25,1.89-1.56,14.63-15.22,22.47-23.77-15.54,3.09-30.63,6.49-46.64,12.52-10.55,3.95-19.83,8.6-30.08,15.08-4.69,2.96-9.23,6.06-14.04,9.34-2.79,1.9-5.63,3.85-8.59,5.82-5.51,3.67-11.47,7.48-18.35,10.26-7.79,3.16-15.97,4.54-23.05,3.89-.36-.03-.79-.07-1.09-.08Zm177.89,3.06h0,0Z"/>
      <path class="cls-1" d="m839.3,1120.01c-2.72,0-5.49-.06-8.34-.17-9.05-.31-22.62-5.53-28.36-12.83-2.45-3.12-3.39-6.51-2.71-9.81.28-1.46,1.07-2.69,2.27-3.52,1.28-.9,2.74-1.13,3.81-1.3,6.14-.96,12.7-3.9,18.6-8.29,5.47-4.07,9.94-8.95,14.05-13.61,2.41-2.73,4.71-5.41,6.96-8.03,3.72-4.33,7.23-8.42,10.96-12.46,8.48-9.2,16.5-16.35,25.99-23.17,16.5-11.92,32.05-19.73,50.04-28.77l.94-.47c.79-.4,1.72-.45,2.55-.13.83.32,1.49.97,1.81,1.79q.63,1.6-9.09,20.51c-3.39,6.59-9.22,17.83-10.9,20.36-4.47,8.33-8.84,16.08-14.71,23.58,1.54-.49,3.06-.98,4.55-1.44,16.31-5.05,29.97-8.17,41.75-9.52,6.07-.69,12.13-.88,18.54-.58.05,0,.1,0,.15,0,.15.02,14.45,1.4,15.25,6.11.27,1.57-.55,3.05-2.09,3.75-26.2,12.03-42.49,22.01-67.14,37.12-24.45,14.6-46.66,20.87-74.9,20.87Zm-33.25-21.22c-.17,1.38.34,2.78,1.53,4.3,4.38,5.57,16.29,10.17,23.62,10.42,31.45,1.27,53.76-4.28,79.72-19.78,21.89-13.41,38.24-23.43,61.19-34.38-1.93-.43-3.73-.78-4.48-.88-6.03-.27-11.72-.09-17.41.55-11.39,1.31-24.67,4.34-40.6,9.27-4.97,1.54-10.22,3.28-15.6,5.17-1.39.49-2.94-.05-3.73-1.3-.79-1.25-.6-2.88.44-3.92,9.78-9.8,15.6-19.96,21.68-31.28.06-.12.13-.23.21-.34,1.43-2.01,10.1-18.76,15.36-29.16-14.69,7.44-27.92,14.52-41.72,24.49-9.14,6.56-16.86,13.45-25.04,22.32-3.65,3.96-7.13,8-10.81,12.29-2.27,2.64-4.59,5.34-7.01,8.09-4.33,4.91-9.06,10.08-15.02,14.51-6.71,4.99-14.27,8.34-21.29,9.44-.33.05-.74.11-1.02.18Z"/>
      <path class="cls-1" d="m956.51,1044.56c-7.78,0-16.57-1.86-21.9-5.78-3.26-2.39-5.1-5.46-5.33-8.88-.11-1.48.31-2.88,1.23-4,1.01-1.24,2.39-1.86,3.39-2.31,5.62-2.56,11.16-7.18,15.66-13.05,4.19-5.45,7.19-11.46,9.9-17.15,1.65-3.47,3.21-6.86,4.74-10.18,2.36-5.13,4.59-9.98,7.03-14.86,5.68-11.39,11.47-20.7,18.77-30.18,12.13-15.84,24.34-27.79,38.48-41.62l2.58-2.52c.68-.67,1.65-1.01,2.59-.88.96.12,1.81.66,2.31,1.47q.83,1.34-3.35,22.81c-1.47,7.57-4.04,20.48-4.98,23.45-2.06,9.57-4.17,18.53-7.83,27.66,1.32-.92,2.64-1.82,3.94-2.7,14.71-9.97,26.64-16.87,37.54-21.72,5.6-2.49,11.36-4.5,17.63-6.16.06-.02.11-.03.16-.04.15-.03,14.16-2.89,16.33,1.35.72,1.42.38,3.08-.87,4.23-20.95,19.1-33.56,33.2-52.64,54.54l-1.92,2.15c-21.45,23.38-43.07,35.96-74.66,43.43-2.55.62-5.59.94-8.79.94Zm-20.88-14.77c.2,1.43,1.1,2.7,2.72,3.89,5.75,4.22,18.41,5.51,25.47,3.79,30.66-7.26,50.69-18.91,71.44-41.53l1.9-2.12c16.96-18.97,29.61-33.11,47.89-50.19-2,.16-3.88.36-4.64.49-5.89,1.57-11.31,3.46-16.56,5.8-10.55,4.69-22.16,11.42-36.56,21.17-4.44,3.01-9.02,6.24-13.62,9.59-1.19.88-2.84.8-3.95-.18-1.11-.98-1.4-2.59-.69-3.9,6.8-12.48,9.66-24.24,12.44-37.21.03-.13.07-.26.11-.39.86-2.44,4.66-21.66,6.89-33.58-12.12,11.89-22.86,22.77-33.44,36.6-7.05,9.15-12.64,18.14-18.13,29.15-2.4,4.79-4.6,9.59-6.94,14.68-1.54,3.35-3.11,6.76-4.77,10.26-2.86,5.99-6.04,12.34-10.59,18.28-5.11,6.68-11.51,11.99-18.01,14.94-.3.14-.69.31-.95.45Z"/>
      <path class="cls-1" d="m1052.14,935.84c-3.15,0-6.13-.41-8.67-1.32-3.88-1.4-6.54-3.92-7.69-7.28-.49-1.37-.46-2.83.09-4.16.61-1.47,1.71-2.46,2.51-3.18,4.8-4.31,8.89-10.64,11.63-17.93,2.57-6.8,3.81-13.76,4.87-20.3.67-4.17,1.27-8.21,1.85-12.19.84-5.75,1.64-11.19,2.63-16.74,2.34-13.32,5.34-24.62,9.72-36.64,6.94-19.26,15.26-35.8,24.07-53.3l3-5.97c.48-.96,1.41-1.61,2.48-1.73,1.08-.11,2.12.31,2.8,1.14,1.62,1.98,4.18,45.48,4.41,50.04h.02c.66,10.52,1.1,20.4.1,30.95.97-1.31,1.94-2.6,2.9-3.87,11.47-15.19,20.96-26.25,29.87-34.81,4.66-4.47,9.6-8.52,15.11-12.39.05-.03.1-.07.16-.1.51-.31,12.55-7.66,16.01-4.37.89.84,1.58,2.49.57,4.35-14.01,25.74-22.21,44.21-33.57,69.78l-3.09,6.96c-14.29,31.03-31.03,49.87-59.72,67.24-5.49,3.37-14.26,5.84-22.04,5.84Zm-10.31-10.49c.57,1.46,1.81,2.5,3.79,3.21,6.79,2.44,18.94-.09,25.27-3.98,27.52-16.65,43.56-34.72,57.25-64.44l3.07-6.92c10.46-23.57,18.26-41.14,30.38-63.91-1.84.84-3.54,1.69-4.25,2.08-5.2,3.65-9.86,7.48-14.26,11.7-8.66,8.32-17.94,19.14-29.21,34.06-3.43,4.54-6.94,9.34-10.44,14.26-.87,1.22-2.47,1.66-3.85,1.06-1.37-.6-2.14-2.08-1.83-3.55,3.13-15,2.64-28.02,1.74-42.27,0-.13,0-.26,0-.38.17-2.84-1.5-23.74-2.64-36.85-8.29,16.51-15.53,31.23-21.86,48.81-4.25,11.67-7.16,22.64-9.43,35.59-.97,5.47-1.76,10.86-2.6,16.57-.59,4-1.19,8.08-1.86,12.28-1.11,6.86-2.42,14.17-5.19,21.52-3.09,8.22-7.78,15.42-13.21,20.3-.32.29-.7.63-.89.86Z"/>
      <path class="cls-1" d="m1119.82,794.12c-.25,0-.5,0-.75-.02-4.06-.19-7.26-1.9-9.27-4.96-.8-1.19-1.17-2.61-1.01-4.07.16-1.59.88-2.89,1.46-3.93,3.43-6.16,5.61-14.24,6.22-22.88.57-8.05-.17-15.82-.97-23.1-.51-4.6-1.07-9.06-1.61-13.45-.79-6.4-1.55-12.44-2.15-18.7-1.47-14.94-1.77-28.07-.98-42.58,1.17-22.59,4.13-42.24,7.56-65l1.45-9.66c.18-1.18,1.01-2.17,2.15-2.54,1.14-.37,2.39-.07,3.23.78,1.73,1.74,16.57,48.36,17.93,52.74h.01c3.55,11.05,6.71,21.48,8.71,33,.54-1.71,1.08-3.4,1.62-5.07,6.83-21.1,12.55-36.14,18.56-48.76,3.16-6.62,6.69-12.89,10.8-19.18.03-.05.07-.1.11-.15.97-1.31,9.61-12.78,14-10.9,1.17.5,2.39,1.87,2,4.09-5.81,32.52-8.49,55.8-11.88,85.27l-1.38,11.96c-4.9,38.16-15.59,63.92-38.14,91.91-5.95,7.47-18.31,15.2-27.64,15.2Zm4.31-194.86c-3.22,21.38-5.95,40.17-7.06,61.51-.78,14.18-.48,27.02.96,41.63.6,6.18,1.35,12.18,2.14,18.54.55,4.41,1.11,8.9,1.62,13.53.84,7.57,1.6,15.67.99,24.25-.67,9.54-3.14,18.56-6.94,25.39-.33.59-.73,1.31-.76,1.62.57.8,1.61,1.94,4.27,2.06.16,0,.32,0,.49,0,7.06,0,17.85-6.77,22.67-12.83,18.15-22.52,31.35-46.22,36.8-88.72l1.38-11.92c3.12-27.13,5.65-49.03,10.55-77.71-1.48,1.6-2.79,3.11-3.25,3.69-3.93,6.02-7.31,12.02-10.32,18.34-5.88,12.36-11.51,27.16-18.25,47.98-1.99,6.18-3.99,12.62-5.95,19.16-.44,1.47-1.87,2.4-3.38,2.24-1.52-.17-2.7-1.4-2.81-2.92-1.22-17.22-5.36-31.21-10.24-46.42-.03-.11-.06-.22-.09-.33-.65-3.18-8.01-25.09-12.82-39.09Z"/>
    </g>
    <g>
      <path class="cls-1" d="m1155.29,616.97c-2.29,0-4.41-.81-6.23-2.41-1.08-.92-1.83-2.21-2.13-3.71-.32-1.62-.09-3.21.09-4.49,1.18-8.18.59-17.71-1.63-26.96-2.08-8.7-5.34-16.43-8.24-23-2.38-5.4-4.75-10.48-7.05-15.44-2.23-4.79-4.4-9.46-6.48-14.18-6.02-13.58-10.3-25.44-13.89-38.44-6.2-22.17-9.24-41.7-12.46-62.38l-.45-2.88c-.19-1.24.36-2.48,1.42-3.15.72-.46,1.61-.63,2.45-.41,2.76.66,28.91,33.09,31.87,36.85l.02-.02c6.21,7.76,12.25,15.62,17.63,25.2-.02-1.71-.02-3.41-.03-5.07-.01-20.03.95-35.28,3.01-48.01,1.07-6.55,2.6-12.88,4.7-19.35.01-.04.03-.09.04-.13.05-.14,5.2-14.12,10.11-13.44,1.24.15,2.77,1.07,3.04,3.2,3.43,27.91,7.63,48.01,13.45,75.82l2.17,10.38c7.07,36.16,5.29,66.13-6.13,103.47-2.91,9.7-12.51,25.31-22.24,28.11-1.04.3-2.05.45-3.03.45Zm-50.56-184.34c2.8,17.72,5.78,34.93,11.11,54.01,3.51,12.7,7.7,24.29,13.58,37.58,2.07,4.68,4.22,9.32,6.43,14.07,2.32,4.99,4.7,10.12,7.1,15.55,3.01,6.83,6.4,14.88,8.6,24.08,2.41,10.01,3.03,20.39,1.76,29.21-.14.97-.28,1.92-.17,2.47,1.05,1.04,2.05,1.22,3.44.83,6.35-1.83,15.16-14.65,17.93-23.86,11.24-36.76,12.92-64.9,5.99-100.38l-2.16-10.33c-5.3-25.34-9.26-44.31-12.53-68.6-.88,1.69-1.64,3.25-1.91,3.9-1.98,6.13-3.43,12.12-4.44,18.31-2.01,12.38-2.94,27.31-2.93,46.98,0,6.14.11,12.61.3,19.23.04,1.52-1,2.86-2.5,3.18-1.51.33-3-.47-3.59-1.87-6.42-15.29-14.26-25.67-23.09-36.7-.09-.12-.18-.24-.25-.37-1.52-2.56-14.4-17.79-22.66-27.31Z"/>
      <path class="cls-1" d="m1128.28,438.83c-1.08,0-2.15-.18-3.2-.53-1.39-.45-2.54-1.39-3.3-2.69-.8-1.39-.98-2.9-1.13-4.11-.86-7.16-3.77-14.91-8.19-21.93-4.15-6.61-9.06-11.9-13.72-16.76-3.44-3.58-6.81-6.94-10.09-10.23-3.62-3.62-7.15-7.15-10.59-10.77-9.34-9.79-16.57-18.72-23.42-28.98-11.92-17.71-20.06-34.43-28.69-52.13l-.82-1.68c-.65-1.32-.29-2.92.85-3.85q1.9-1.56,21.74,9.59c6.7,3.77,18.12,10.26,20.75,12.23,8.46,5.05,16.31,9.99,23.98,16.65-.49-1.63-.97-3.23-1.44-4.81-5.17-17.66-8.19-31.52-9.49-43.62-.66-6.2-.82-12.39-.47-18.92,0-.05,0-.1.01-.15.02-.14,1.59-14.52,6.29-15.28,1.6-.26,3.06.59,3.75,2.15,10.98,24.68,20.62,41.6,33.97,65.03l3.59,6.31c16.23,29.4,22.09,55.91,20.24,91.51-.41,8.9-5.7,25.02-14.21,30.83-2.08,1.43-4.26,2.15-6.42,2.15Zm-93.18-143.85c7.53,15.36,14.67,29.24,24.81,44.32,6.65,9.95,13.66,18.62,22.75,28.14,3.41,3.58,6.9,7.08,10.48,10.66,3.31,3.31,6.7,6.71,10.18,10.32,4.68,4.87,10.04,10.66,14.52,17.78,4.91,7.8,8.14,16.47,9.1,24.43.08.66.19,1.56.34,1.83.64.12,1.92.33,3.86-.99,5.87-4.01,11.06-17.45,11.45-25.91,1.81-34.79-3.64-59.48-19.44-88.1l-3.57-6.27c-12.22-21.45-21.36-37.49-31.26-59-.46,1.96-.83,3.8-.94,4.56-.32,6.15-.18,11.97.45,17.79,1.26,11.71,4.21,25.22,9.28,42.51,1.56,5.34,3.31,10.97,5.2,16.74.47,1.42-.13,2.97-1.42,3.72-1.28.75-2.93.49-3.94-.61-10.08-11.12-20.4-17.7-31.87-24.56-.13-.08-.25-.16-.37-.26-2.03-1.64-19.06-11.28-29.61-17.09Z"/>
      <path class="cls-1" d="m1057.7,294.61c-1.39,0-2.69-.48-3.75-1.39-1.22-1.06-1.83-2.45-2.28-3.47-2.59-5.91-7.28-11.75-13.24-16.53-5.59-4.49-11.63-7.68-17.35-10.57-3.82-1.92-7.53-3.71-11.15-5.47-4.85-2.35-9.43-4.57-14.04-6.96-11.46-5.94-20.7-11.85-29.96-19.16-16.46-12.92-28.38-25.78-42.18-40.66-1.15-1.23-1.26-3.29-.09-4.5q1.4-1.44,22.93,2.94c7.41,1.51,20.08,4.14,23.05,5.12,9.49,2.14,18.36,4.33,27.44,8.09-.87-1.3-1.73-2.59-2.58-3.88-9.49-14.5-15.99-26.33-20.43-37.23-2.25-5.53-4.01-11.22-5.38-17.38,0-.05-.02-.1-.03-.15-.02-.14-2.22-14.01,2.02-16.01,1.43-.69,3.07-.29,4.17.98,17.83,20.67,31.59,33.3,52.43,52.4l2.01,1.85c23.17,21.79,35.59,43.76,42.9,75.86,2.12,9.03.52,23.72-5.25,31.15-2.47,3.18-5.6,4.89-9.06,4.96-.06,0-.13,0-.2,0Zm-122.95-101.68c11.15,11.92,21.6,22.57,35.1,33.16,8.93,7.06,17.86,12.77,28.96,18.52,4.53,2.36,9.07,4.55,13.88,6.88,3.66,1.77,7.4,3.58,11.24,5.52,6.02,3.04,12.41,6.42,18.47,11.29,6.74,5.41,12.08,12.1,15.04,18.84.16.37.37.85.53,1.13,1.47-.11,2.76-.93,3.98-2.51,4.39-5.65,5.8-18.53,4.08-25.83-7.09-31.19-18.6-51.55-41.03-72.65l-1.98-1.82c-19.2-17.61-32.45-29.76-48.39-47.73.07,1.97.19,3.83.28,4.58,1.29,5.77,2.93,11.08,5.04,16.24,4.29,10.51,10.6,21.99,19.87,36.14,2.97,4.54,6.1,9.12,9.29,13.62.86,1.21.76,2.85-.23,3.95-.99,1.1-2.61,1.36-3.9.64-12.42-6.97-24.05-9.92-36.88-12.81-.13-.03-.26-.07-.39-.11-2.39-.87-21.3-4.77-32.95-7.06Z"/>
      <path class="cls-1" d="m954.66,186.25c-.76,0-1.5-.15-2.21-.45-1.47-.62-2.42-1.73-3.12-2.55-4.03-4.7-10.03-8.72-16.99-11.45-6.48-2.54-13.15-3.79-19.42-4.86-3.82-.65-7.52-1.22-11.14-1.79-5.63-.88-10.95-1.71-16.34-2.73-12.58-2.37-23.03-5.38-33.87-9.77-19.69-7.89-35.16-17.38-51.54-27.43-.74-.45-1.26-1.19-1.44-2.04-.18-.85,0-1.73.49-2.45q1.01-1.47,22.7-3.02c7.56-.54,20.47-1.42,23.52-1.31,9.71-.53,18.83-.87,28.51.19-1.15-.96-2.28-1.92-3.39-2.88-12.73-10.93-22.38-20.68-29.5-29.81-3.63-4.67-6.83-9.62-9.78-15.14-.02-.05-.05-.09-.07-.14-.06-.12-5.84-12.77-2.3-15.84,1.21-1.04,2.88-1.11,4.28-.18,23.63,15.66,40.75,24.07,66.68,36.79,28.03,14.14,45.72,31.19,61.1,58.87,4.27,7.55,6.61,21.42,3.28,30-1.51,3.89-4.11,6.54-7.51,7.65-.63.22-1.28.32-1.92.32Zm-143.14-61.43c13.27,8.04,26.48,15.57,42.42,21.96,10.45,4.22,20.52,7.13,32.68,9.42,5.28,1,10.55,1.82,16.14,2.69,3.65.57,7.38,1.15,11.23,1.8,6.6,1.12,13.63,2.45,20.67,5.21,7.91,3.09,14.8,7.75,19.4,13.12.26.3.54.63.74.82,1.51-.57,2.61-1.83,3.39-3.86,2.57-6.61.58-18.45-2.9-24.62-14.92-26.84-31.28-42.62-58.4-56.3-23.12-11.35-40.36-19.81-61.59-33.42.58,1.85,1.18,3.56,1.47,4.24,2.76,5.15,5.75,9.77,9.14,14.12,6.86,8.8,16.22,18.25,28.63,28.9,3.97,3.4,8.17,6.87,12.51,10.3,1.16.92,1.53,2.52.89,3.85-.64,1.33-2.12,2.06-3.56,1.72-13.72-3.12-25.73-2.77-38.89-2.04-.13,0-.25,0-.37,0-2.51-.18-21.72,1.17-33.59,2.09Z"/>
      <path class="cls-1" d="m827.35,113.39c-.25,0-.49-.02-.74-.05-1.58-.21-2.79-1.01-3.68-1.6-5.11-3.4-11.97-5.66-19.4-6.43-6.92-.72-13.68-.19-20.02.42-3.62.35-7.13.73-10.57,1.1-5.9.63-11.47,1.23-17.15,1.64-12.73.93-23.62.68-35.3-.82-21.34-2.7-39.52-8.31-57.11-13.73-.84-.26-1.53-.86-1.92-1.65s-.42-1.71-.1-2.53q.62-1.6,21.14-8.42c7.16-2.38,19.42-6.41,22.36-7.06,9.2-2.92,17.9-5.5,27.47-6.91-1.35-.63-2.68-1.26-3.99-1.9-15.15-7.31-27.06-14.32-36.42-21.42-4.75-3.61-9.16-7.6-13.47-12.2-.03-.03-.07-.07-.1-.11-.09-.11-9.04-10.9-6.41-14.76.9-1.32,2.5-1.82,4.11-1.26,26.4,9.14,44.49,12.96,74.18,18.94,30.79,6.52,52.36,18.3,74.49,40.67,6.09,6.07,12.02,18.66,11.11,27.71-.42,4.14-2.23,7.38-5.22,9.35-.98.67-2.1,1.02-3.25,1.02Zm-30.89-14.77c2.53,0,5.1.11,7.73.39,8.43.88,16.3,3.5,22.15,7.39.32.21.69.46.94.59,1.32-.96,2.05-2.46,2.26-4.6.7-6.94-4.33-17.66-9.29-22.61-21.48-21.71-41.46-32.62-71.29-38.94-26.58-5.35-44.9-9.2-68.29-16.9,1.03,1.6,2.04,3.07,2.49,3.65,4.04,4.3,8.17,8.03,12.6,11.4,9.02,6.84,20.58,13.63,35.34,20.76,4.73,2.28,9.71,4.55,14.81,6.76,1.36.59,2.13,2.04,1.85,3.5-.28,1.45-1.53,2.52-3.01,2.57-14.03.45-25.56,3.78-38.1,7.77-.11.03-.23.07-.34.09-2.46.49-20.58,6.46-31.83,10.26,14.51,4.38,29.69,8.51,46.83,10.68,11.24,1.45,21.73,1.7,34.03.79,5.57-.4,11.09-1,16.93-1.62,3.46-.37,6.99-.75,10.64-1.1,4.33-.42,8.86-.8,13.56-.8Z"/>
      <path class="cls-1" d="m554.4,97.54c-10.91,0-21.35-.6-31.6-1.2-.86-.05-1.67-.45-2.23-1.11-.56-.66-.83-1.51-.74-2.37q.18-1.76,18.27-13.26c6.29-4,17.08-10.81,19.76-12.15,8.11-5,15.82-9.55,24.67-13.2-1.49-.29-2.98-.59-4.44-.9-16.58-3.45-29.96-7.4-40.93-12.05-5.57-2.37-10.89-5.18-16.27-8.6-.04-.03-.09-.06-.13-.09-.12-.08-11.7-8.31-10.06-12.78.55-1.5,2.03-2.34,3.69-2.21,28.16,2.58,47.54,1.94,76.83.68,31.48-1.06,55.47,5.14,82.82,21.34,7.59,4.43,16.7,15.22,18.11,24.21.63,4.02-.28,7.53-2.62,10.14-.96,1.09-2.22,1.77-3.64,1.94-1.55.22-2.95-.29-3.96-.64-5.86-2.02-13.09-2.54-20.49-1.47-6.84.98-13.01,3.05-19.25,5.26-3.3,1.17-6.49,2.35-9.62,3.5-5.64,2.07-10.97,4.03-16.46,5.83-12.07,3.96-22.67,6.32-34.38,7.65-9.5,1.1-18.56,1.49-27.32,1.49Zm-21.69-6.98c15.65.82,31.01,1.21,48.29-.8,11.27-1.28,21.48-3.55,33.13-7.37,5.38-1.76,10.66-3.7,16.24-5.75,3.15-1.16,6.37-2.34,9.69-3.52,6.29-2.23,13.06-4.5,20.47-5.56,8.38-1.2,16.67-.59,23.35,1.72.37.13.79.27,1.07.34.96-1.19,1.26-2.75.94-4.78-1.08-6.9-8.85-16.11-15.06-19.73-26.59-15.75-48.82-21.48-79.37-20.47-26.97,1.17-45.61,1.81-70.41-.09,1.41,1.29,2.74,2.44,3.32,2.88,5.05,3.2,10.04,5.84,15.25,8.05,10.58,4.49,23.58,8.31,39.75,11.68,5.22,1.09,10.65,2.1,16.13,3.01,1.46.24,2.56,1.47,2.64,2.95.08,1.48-.87,2.82-2.3,3.22-13.46,3.79-23.31,9.51-34.79,16.59-.1.06-.21.12-.31.17-2.25,1.06-18.17,11.12-28.04,17.47Z"/>
      <path class="cls-1" d="m386.85,132.59c-.65,0-1.28-.2-1.82-.57-.7-.49-1.18-1.25-1.31-2.1q-.27-1.76,14.17-17.33c5.01-5.41,13.63-14.61,15.89-16.58,6.51-6.8,12.75-13.07,20.36-18.74-1.56.08-3.12.15-4.67.21-16.99.65-30.99.07-42.8-1.75-5.99-.92-11.88-2.34-18.02-4.34-.04-.02-.08-.03-.12-.04-.14-.05-13.57-5.17-13.09-9.91.13-1.31,1.12-2.76,3.03-3.06,27.76-4.4,45.52-9.45,74.52-18,30.17-8.55,55.03-8.29,85.83.9,8.64,2.51,20.36,10.87,24,19.3,1.58,3.66,1.6,7.19.05,10.23-.65,1.32-1.72,2.3-3.07,2.8-1.46.55-2.92.43-3.99.33-6.22-.57-13.35.65-20.23,3.44-6.35,2.57-11.77,6.03-17.21,9.66-2.92,1.95-5.74,3.87-8.5,5.76-4.87,3.32-9.46,6.46-14.26,9.49-10.63,6.72-20.27,11.55-31.24,15.65-19.64,7.4-37.74,10.91-56.91,14.62-.2.04-.4.06-.6.06Zm59.03-62.43c1.38,0,2.61.9,3.02,2.23.44,1.42-.16,2.94-1.45,3.68-12,6.9-20.33,15.14-29.21,24.42-.09.09-.18.18-.28.25-1.89,1.56-14.63,15.21-22.47,23.77,15.55-3.09,30.65-6.5,46.64-12.52,10.56-3.95,19.83-8.59,30.08-15.07,4.7-2.96,9.25-6.07,14.06-9.36,2.78-1.9,5.61-3.84,8.56-5.8,5.5-3.66,11.45-7.47,18.35-10.26,7.8-3.16,15.99-4.54,23.06-3.89.38.03.8.07,1.08.07.56-1.31.45-2.81-.33-4.61-2.77-6.4-13.01-13.71-19.98-15.74-29.97-8.94-53.03-9.19-82.28-.89-25.85,7.62-43.79,12.75-68.02,16.97,1.72.91,3.32,1.7,3.99,1.98,5.77,1.87,11.3,3.2,16.92,4.07,11.4,1.76,25.01,2.31,41.59,1.68,5.48-.22,11.01-.54,16.41-.97.08,0,.17,0,.25,0Z"/>
      <path class="cls-1" d="m265.06,202.77c-.38,0-.76-.07-1.13-.21-.83-.32-1.49-.97-1.81-1.79q-.63-1.6,9.09-20.51c3.39-6.59,9.22-17.83,10.9-20.36,4.47-8.33,8.84-16.08,14.71-23.59-1.53.49-3.05.98-4.55,1.44-16.57,5.13-29.83,8.15-41.76,9.51-6.06.69-12.13.87-18.53.58-.05,0-.11,0-.16-.01-.15-.01-14.46-1.44-15.24-6.12-.27-1.57.56-3.05,2.1-3.75,26.2-12.03,42.49-22.01,67.14-37.12,26.81-16.01,50.92-22,83.23-20.69,9.05.31,22.62,5.54,28.36,12.84,2.45,3.12,3.39,6.51,2.71,9.81-.28,1.46-1.07,2.69-2.26,3.52-1.29.91-2.77,1.14-3.84,1.31-6.11.96-12.68,3.9-18.57,8.28-5.46,4.05-9.76,8.75-14.05,13.61-2.39,2.71-4.67,5.37-6.91,7.97-3.73,4.35-7.26,8.46-11.01,12.51-8.47,9.2-16.49,16.35-25.99,23.17-16.51,11.92-32.06,19.74-50.06,28.79l-.92.46c-.45.22-.93.34-1.42.34Zm41.98-76.41c1.06,0,2.09.54,2.68,1.48.79,1.25.6,2.88-.44,3.93-9.78,9.79-15.6,19.96-21.67,31.28-.06.12-.13.23-.21.34-1.43,2.01-10.1,18.76-15.36,29.16,14.68-7.44,27.92-14.53,41.72-24.5,9.15-6.57,16.87-13.45,25.04-22.32,3.67-3.98,7.17-8.04,10.86-12.35,2.26-2.62,4.56-5.3,6.97-8.04,4.34-4.92,9.08-10.09,15.02-14.51,6.7-4.99,14.26-8.34,21.29-9.44.33-.05.74-.11,1.02-.18.17-1.37-.34-2.77-1.53-4.3-4.38-5.57-16.29-10.17-23.61-10.43-31.42-1.28-53.76,4.28-79.72,19.78-21.89,13.41-38.24,23.43-61.19,34.38,1.93.43,3.73.78,4.49.88,6.03.27,11.72.09,17.4-.55,11.52-1.32,24.42-4.27,40.6-9.27,5.02-1.56,10.27-3.3,15.6-5.17.34-.12.7-.18,1.05-.18Z"/>
      <path class="cls-1" d="m166.74,306.89c-.13,0-.26,0-.39-.02-.96-.12-1.81-.66-2.31-1.48-1.49-2.43,7.3-41.71,8.32-46.08h-.01c2.06-9.64,4.18-18.63,7.86-27.83-1.33.92-2.65,1.82-3.94,2.7-14.73,9.97-26.65,16.87-37.54,21.72-5.62,2.5-11.38,4.51-17.63,6.16-.06.02-.11.03-.16.04-.15.03-14.17,2.89-16.33-1.35-.73-1.42-.38-3.08.87-4.23,20.99-19.13,33.62-33.26,52.73-54.64l1.83-2.05c21.46-23.38,43.08-35.96,74.66-43.43,8.73-2.14,23.15-.7,30.69,4.84,3.26,2.39,5.1,5.46,5.32,8.87.11,1.48-.31,2.88-1.23,4-1.02,1.25-2.4,1.87-3.4,2.32-5.61,2.55-11.15,7.18-15.64,13.05-4.2,5.47-7.2,11.47-9.9,17.15-1.65,3.48-3.21,6.86-4.74,10.19-2.36,5.13-4.59,9.98-7.03,14.86-5.69,11.4-11.47,20.71-18.77,30.18-12.13,15.86-24.35,27.81-38.5,41.65l-2.55,2.5c-.59.58-1.39.9-2.21.9Zm21.47-88.16c.75,0,1.49.26,2.09.79,1.11.98,1.4,2.59.69,3.9-6.81,12.49-9.66,24.24-12.44,37.21-.03.13-.06.26-.11.39-.86,2.44-4.66,21.67-6.89,33.58,12.12-11.89,22.86-22.78,33.44-36.61,7.04-9.14,12.63-18.13,18.13-29.15,2.4-4.79,4.6-9.59,6.94-14.67,1.54-3.35,3.11-6.76,4.78-10.27,2.85-5.98,6.02-12.32,10.6-18.28,5.12-6.68,11.51-11.99,18.01-14.94.3-.13.68-.31.94-.45-.2-1.43-1.09-2.7-2.72-3.89-5.76-4.23-18.41-5.51-25.47-3.79-30.66,7.26-50.68,18.9-71.45,41.53l-1.81,2.02c-16.99,19-29.66,33.18-47.98,50.29,2-.16,3.88-.36,4.65-.49,5.87-1.56,11.29-3.46,16.56-5.8,10.53-4.68,22.15-11.41,36.56-21.17,4.38-2.97,8.96-6.2,13.62-9.59.56-.41,1.21-.61,1.86-.61Zm-67.92,40.26h.03-.03Z"/>
      <path class="cls-1" d="m101.04,444.94c-.94,0-1.85-.42-2.45-1.16-1.62-1.98-4.18-45.48-4.41-50.04h-.02c-.66-10.53-1.1-20.41-.1-30.95-.96,1.3-1.93,2.59-2.89,3.87-11.47,15.19-20.96,26.25-29.88,34.81-4.69,4.5-9.63,8.55-15.11,12.39-.05.03-.1.07-.15.1-.13.08-12.54,7.68-16.02,4.37-.89-.84-1.58-2.49-.56-4.36,14-25.73,22.2-44.19,33.55-69.74l3.1-6.99c14.29-31.02,31.03-49.87,59.72-67.24,7.71-4.74,21.9-7.69,30.72-4.53,3.88,1.4,6.54,3.92,7.69,7.28.49,1.37.46,2.82-.09,4.16-.61,1.48-1.72,2.47-2.53,3.2-4.78,4.31-8.87,10.63-11.62,17.91-2.57,6.82-3.82,13.77-4.87,20.3-.67,4.15-1.26,8.19-1.84,12.15-.85,5.77-1.65,11.21-2.63,16.78-2.34,13.31-5.34,24.61-9.72,36.65-6.94,19.27-15.27,35.82-24.08,53.34l-2.99,5.94c-.48.96-1.41,1.61-2.48,1.73-.12.01-.23.02-.35.02Zm-1.91-97.68c.43,0,.86.09,1.27.27,1.37.6,2.14,2.08,1.83,3.55-3.12,14.98-2.63,28.01-1.74,42.27,0,.13,0,.26,0,.38-.17,2.84,1.5,23.74,2.64,36.85,8.29-16.51,15.53-31.24,21.86-48.81,4.25-11.69,7.16-22.66,9.43-35.59.97-5.48,1.77-10.88,2.61-16.6.58-3.99,1.18-8.05,1.85-12.24,1.11-6.85,2.42-14.16,5.2-21.53,3.09-8.21,7.78-15.42,13.2-20.29.32-.29.7-.63.9-.86-.58-1.46-1.81-2.5-3.79-3.21-6.79-2.43-18.94.09-25.27,3.98-22.96,13.9-41.47,30.17-57.25,64.44l-3.09,6.95c-10.46,23.55-18.26,41.12-30.37,63.88,1.84-.84,3.54-1.69,4.24-2.09,5.17-3.63,9.84-7.45,14.26-11.69,8.67-8.33,17.95-19.15,29.21-34.06,3.49-4.64,7.01-9.44,10.43-14.26.61-.86,1.58-1.33,2.58-1.33Zm-54.77,64.01h.03-.03Z"/>
      <path class="cls-1" d="m77.11,616.94c-.83,0-1.65-.33-2.26-.95-1.59-1.61-16.56-48.35-17.92-52.74h-.01c-3.55-11.04-6.71-21.47-8.71-33-.54,1.72-1.09,3.41-1.62,5.07-6.84,21.12-12.56,36.16-18.56,48.76-3.16,6.63-6.69,12.9-10.8,19.18-.03.05-.07.11-.11.15-1.59,2.14-9.74,12.73-14,10.89-1.17-.5-2.39-1.88-2-4.09,5.81-32.55,8.49-55.85,11.88-85.34l1.37-11.88c4.9-38.16,15.59-63.92,38.14-91.91,6.11-7.68,19.04-15.71,28.39-15.18,4.06.19,7.27,1.9,9.27,4.96.81,1.2,1.17,2.62,1.01,4.07-.16,1.59-.87,2.88-1.45,3.91-3.44,6.18-5.62,14.26-6.24,22.9-.58,8.07.16,15.84.97,23.09.51,4.62,1.07,9.09,1.62,13.49.79,6.38,1.54,12.42,2.15,18.66,1.47,14.94,1.77,28.07.98,42.58-1.17,22.6-4.12,42.26-7.55,65.02l-1.45,9.65c-.18,1.19-1.01,2.17-2.15,2.54-.32.11-.65.15-.98.15Zm3.04-204.72c-7.05,0-17.85,6.77-22.67,12.83-18.15,22.52-31.34,46.22-36.8,88.72l-1.37,11.84c-3.13,27.16-5.65,49.09-10.55,77.8,1.47-1.6,2.78-3.1,3.25-3.69,3.92-6.01,7.3-12.01,10.32-18.34,5.87-12.34,11.5-27.14,18.25-47.98,2.02-6.27,4.01-12.68,5.95-19.16.44-1.46,1.91-2.38,3.38-2.24,1.52.17,2.7,1.4,2.81,2.92,1.22,17.24,5.36,31.22,10.24,46.42.03.11.06.22.09.33.65,3.18,8.02,25.09,12.83,39.09,3.22-21.38,5.95-40.18,7.06-61.51.78-14.18.48-27.02-.96-41.63-.6-6.16-1.34-12.15-2.13-18.5-.55-4.43-1.11-8.93-1.63-13.57-.84-7.55-1.61-15.64-.99-24.24.67-9.54,3.14-18.56,6.94-25.39.35-.63.73-1.32.76-1.62-.57-.79-1.61-1.94-4.28-2.06-.16,0-.32,0-.49,0ZM14.58,601.53h.03-.03Z"/>
    </g>
  </g>
</svg>