<?xml version="1.0" encoding="UTF-8"?>
<svg id="objects" xmlns="http://www.w3.org/2000/svg" viewBox="0 0 1200 1200">
  <defs>
    <style>
      .cls-1 {
        stroke: #000;
        stroke-miterlimit: 10;
      }
    </style>
  </defs>
  <g>
    <polygon points="588.98 150.57 607.5 187.96 648.9 193.95 618.94 223.05 626.01 264.14 588.98 244.74 551.95 264.14 559.02 223.05 529.06 193.95 570.47 187.96 588.98 150.57"/>
    <path d="m588.66,150.76c5.46,11.03,10.93,22.06,16.39,33.09l1.44,2.91c.19.38.37,1.04.67,1.35.24.26.49.24.84.29l2.46.36c7.1,1.03,14.21,2.06,21.31,3.09,5.67.82,11.35,1.64,17.02,2.46l-.17-.63c-8.84,8.59-17.68,17.17-26.52,25.76l-2.34,2.27c-.31.3-.87.67-1.08,1.05-.18.32-.09.57-.03.93l.41,2.39c1.21,7.05,2.43,14.11,3.64,21.16.98,5.67,1.95,11.33,2.93,17l.55-.42c-10.93-5.72-21.85-11.45-32.78-17.17l-2.89-1.51c-.4-.21-.9-.6-1.34-.7-.86-.19-2.31.98-3.05,1.37-6.36,3.33-12.71,6.66-19.07,9.99-5.11,2.68-10.21,5.35-15.32,8.03l.55.42c2.09-12.12,4.17-24.24,6.26-36.37l.55-3.2c.08-.45.29-1.03.26-1.49-.06-.88-1.63-1.89-2.23-2.47-5.14-4.99-10.28-9.99-15.43-14.98-4.13-4.01-8.26-8.03-12.4-12.04l-.17.63c12.17-1.76,24.34-3.52,36.51-5.29l3.27-.47c.44-.06,1.17-.03,1.57-.23.77-.38,1.23-2.11,1.59-2.85,3.18-6.42,6.36-12.83,9.53-19.25,2.55-5.16,5.11-10.31,7.66-15.47.21-.43-.43-.81-.65-.38-5.41,10.93-10.83,21.86-16.24,32.79-.75,1.51-1.47,3.04-2.25,4.54-.1.19.36-.13.1-.1-.22.03-.43.06-.65.09l-2.6.38c-7.09,1.03-14.18,2.05-21.28,3.08-5.59.81-11.19,1.62-16.78,2.43-.29.04-.35.45-.17.63,8.76,8.51,17.52,17.01,26.27,25.52l2.43,2.36c.28.28.82,1.05,1.21,1.17.13.04.02-.37-.06-.25-.08.14-.08.44-.1.6l-.44,2.53c-1.21,7.04-2.42,14.08-3.64,21.13-.96,5.59-1.92,11.17-2.88,16.76-.06.32.25.58.55.42,10.83-5.67,21.65-11.34,32.48-17.01l3-1.57c.37-.19,1.23-.45,1.49-.78.09-.11-.34-.11-.25,0,.1.12.41.21.54.28l2.28,1.2c6.35,3.32,12.69,6.65,19.04,9.97,5.03,2.64,10.07,5.27,15.1,7.91.31.16.61-.1.55-.42-2.07-12.01-4.13-24.02-6.2-36.04l-.57-3.33c-.08-.44-.05-1.27-.29-1.66-.08-.13-.19.29-.06.25s.34-.33.44-.43l1.85-1.79c5.13-4.99,10.27-9.97,15.4-14.96,4.07-3.96,8.15-7.91,12.22-11.87.18-.18.12-.59-.17-.63-12.06-1.75-24.12-3.49-36.18-5.24-1.71-.25-3.42-.53-5.13-.74-.26-.03.2.29.1.1s-.18-.36-.27-.55l-1.14-2.31c-3.17-6.41-6.35-12.81-9.52-19.22-2.52-5.08-5.03-10.16-7.55-15.25-.21-.43-.86-.05-.65.38Z"/>
  </g>
  <g>
    <path class="cls-1" d="m587.97,853.45l-2.04-561.64s106.86-7.87,145.4-199.45c0,0,8.49,228.32,7.83,246.69-.66,18.37-151.19,514.4-151.19,514.4Z"/>
    <path class="cls-1" d="m574.3,351.4s-67.12-14.39-113.5-205.48c0,0,6.35,235.26,6.75,254.21.4,18.95,114.31,456.58,114.31,456.58l-7.56-505.32Z"/>
  </g>
  <polygon class="cls-1" points="687.39 885.37 581.38 910.1 482.26 885.37 516.22 832.03 652.07 832.03 687.39 885.37"/>
  <g>
    <path class="cls-1" d="m433.55,1071.55c13.05-10.76,27.88-18.74,43.08-24.99,5.65-2.32,11.45-4.43,17.37-6.32-15.52-8.23-26.87-20.56-38.5-33.99-4.33-3.86-36.63-43-36.26-43.02,20.1-4.46,37.63-8.06,58.26-4.45,12.91,2.22,23.88,7.37,35.01,14.34,9.14,5.71,18.38,12.63,28.87,19.81,7.19,4.91,14.71,9.79,22.92,12.37,8.19,2.58,17.25,2.65,24.56-1.91.91-.57,1.91-1.23,2.96-.92.9.26,1.62,1.17,2.15,2.12,10.18,17.41-.49,51.85-10.33,62.42-26.35,29.52-52.74,42.85-90.77,39.38-33.35-3.5-54.53-4.66-85.68,1.25-2.94.58,8.43-17.62,9.28-18.79,5.28-6.34,10.82-12.13,17.06-17.29Z"/>
    <path class="cls-1" d="m279.52,1008.19c13.95-5.59,28.81-8.19,43.54-9.17,5.47-.36,11.03-.5,16.63-.41-11.57-11.79-18.61-26-25.7-41.31-2.85-4.64-22.32-49-22.04-48.95,18.84,2.24,35.18,4.45,52.45,13.89,10.82,5.87,19.19,13.69,27.22,23.11,6.6,7.73,12.97,16.51,20.32,25.86,5.04,6.4,10.35,12.85,16.78,17.48,6.41,4.63,14.14,7.3,21.46,5.45.91-.23,1.92-.52,2.74.05.71.49,1.1,1.48,1.33,2.46,4.51,18.03-12.74,44.91-23.65,51.32-29.51,18.19-55.3,22.36-87.46,8.27-28.13-12.77-46.4-20.06-75.11-24.1-2.72-.37,11.48-13.02,12.5-13.8,6.1-4.01,12.31-7.46,18.99-10.14Z"/>
    <path class="cls-1" d="m157.53,904.96c13.64-.63,27.45,1.69,40.78,5.4,4.95,1.38,9.93,2.98,14.89,4.8-7.65-14.07-10.76-28.94-13.7-44.84-1.48-5-9.19-50.93-8.98-50.85,16.37,8.04,30.55,15.24,43.92,29.14,8.38,8.66,14.13,18.26,19.18,29.14,4.15,8.93,7.84,18.71,12.25,29.26,3.02,7.23,6.27,14.57,10.89,20.63,4.62,6.05,10.84,10.77,17.72,11.36.86.07,1.81.13,2.41.88.51.64.63,1.64.6,2.57-.21,17.25-21.62,35.73-32.71,38.11-30.22,7.15-53.91,3.1-79.24-19.27-22.07-19.99-36.7-32.16-61.28-44.75-2.33-1.18,13.06-8.06,14.15-8.43,6.31-1.68,12.59-2.82,19.12-3.13Z"/>
    <path class="cls-1" d="m71.9,772.97c12.13,3.87,23.81,10.47,34.81,18.14,4.09,2.86,8.15,5.91,12.16,9.16-3.75-15.2-3.31-29.69-2.51-45.12-.24-4.98,2.77-49.47,2.94-49.36,12.7,12.78,23.74,24.05,32.68,41.06,5.62,10.62,8.7,21.19,10.87,32.67,1.8,9.42,2.99,19.44,4.64,30.36,1.14,7.48,2.44,15.13,5.26,22.05,2.81,6.91,7.33,13.12,13.35,15.83.75.34,1.59.69,1.96,1.55.31.74.2,1.67-.02,2.49-3.98,15.38-27.14,25.15-37.53,23.79-28.46-3.13-48.59-14.24-66.13-42.55-15.16-25.14-25.42-40.93-44.2-60.4-1.78-1.83,13.19-3.08,14.23-3.07,5.9.53,11.65,1.54,17.47,3.38Z"/>
    <path class="cls-1" d="m26.9,623.23c9.42,7.67,17.91,17.72,25.65,28.5,2.87,4.01,5.7,8.2,8.44,12.53.13-15.3,3.75-28.59,7.9-42.69.89-4.67,13.58-45.27,13.73-45.16,7.82,16.32,14.76,30.61,18.74,49.45,2.52,11.77,2.9,22.6,2.31,33.94-.48,9.31-1.6,18.94-2.5,29.52-.62,7.25-1.12,14.7-.13,21.97.98,7.26,3.62,14.42,8.35,18.88.59.56,1.25,1.15,1.4,2.06.12.78-.18,1.59-.55,2.27-6.81,12.71-29.32,14.03-38.12,9.39-24.26-12.21-39.35-28.95-48.14-60.86-7.4-28.22-12.56-46.32-23.85-70.74-1.08-2.31,11.87,1.55,12.75,1.91,4.87,2.47,9.51,5.34,14.03,9.01Z"/>
    <path class="cls-1" d="m26.83,466.68c5.51,10.53,9.73,23.02,13.3,35.92,1.32,4.8,2.57,9.74,3.74,14.79,3.98-14.49,10.41-25.96,17.53-38.06,1.89-4.11,23.24-38.99,23.4-38.91,1.74,18.49,3.6,34.66,2.08,54.08-.91,12.14-3.27,22.6-6.52,33.17-2.66,8.68-5.91,17.42-9.19,27.1-2.24,6.64-4.42,13.48-5.28,20.64-.87,7.15-.29,14.76,2.71,20.53.37.72.8,1.5.72,2.4-.07.77-.52,1.42-.99,1.93-8.7,9.58-28.17,3.22-34.5-4.08-17.61-19.6-26.19-40.36-25.26-73.53,1.19-29.24,1.87-48.27-.26-75.5-.21-2.58,9.1,5.48,9.71,6.13,3.22,4.01,6.17,8.33,8.82,13.38Z"/>
    <path class="cls-1" d="m76,314.12c.41,12.22-.7,25.95-2.23,39.83-.58,5.16-1.22,10.44-1.95,15.78,7.82-12.91,16.69-22.1,26.38-31.78,2.79-3.37,31.77-31.31,31.96-31.26-5.54,19.13-9.72,35.93-17.28,54.73-4.68,11.75-9.81,21.3-15.63,30.6-4.77,7.64-9.97,15.11-15.42,23.46-3.73,5.72-7.46,11.64-10.2,18.3-2.74,6.65-4.41,14.2-3.57,20.78.1.82.24,1.72-.08,2.56-.27.72-.81,1.2-1.33,1.53-9.67,6.27-23.7-6.44-26.68-15.61-8.53-24.85-9.12-47.76,2.47-79.86,10.64-28.2,17.88-46.74,26.59-74.37.82-2.62,4.89,8.37,5.13,9.21.97,5.02,1.63,10.26,1.84,16.11Z"/>
    <path class="cls-1" d="m178.69,176.28c-5.87,12.49-13.38,26.08-20.93,39.67-2.81,5.05-5.69,10.19-8.61,15.38,11.64-10.67,22.59-17.35,34.47-24.38,3.56-2.52,39.17-22.89,39.42-22.88-14.02,18.1-25.2,34.17-39.33,51.16-8.78,10.63-16.72,18.81-25,26.47-6.78,6.3-13.76,12.24-21.22,18.94-5.1,4.59-10.25,9.37-14.88,15.17-4.63,5.8-8.72,12.81-10.48,19.66-.22.86-.44,1.8-.99,2.53-.47.63-1.05.93-1.58,1.09-9.71,3.1-15.92-14.1-14.69-24.18,2.98-27.51,11.83-50.48,35.06-79.16,20.93-25.09,35.47-41.69,56.67-67.07,2.01-2.42-.76,9.85-1,10.77-1.9,5.35-4.1,10.84-6.91,16.83Z"/>
  </g>
  <g>
    <path class="cls-1" d="m766.45,1071.55c-13.05-10.76-27.88-18.74-43.08-24.99-5.65-2.32-11.45-4.43-17.37-6.32,15.52-8.23,26.87-20.56,38.5-33.99,4.33-3.86,36.63-43,36.26-43.02-20.1-4.46-37.63-8.06-58.26-4.45-12.91,2.22-23.88,7.37-35.01,14.34-9.14,5.71-18.38,12.63-28.87,19.81-7.19,4.91-14.71,9.79-22.92,12.37-8.19,2.58-17.25,2.65-24.56-1.91-.91-.57-1.91-1.23-2.96-.92-.9.26-1.62,1.17-2.15,2.12-10.18,17.41.49,51.85,10.33,62.42,26.35,29.52,52.74,42.85,90.77,39.38,33.35-3.5,54.53-4.66,85.68,1.25,2.94.58-8.43-17.62-9.28-18.79-5.28-6.34-10.82-12.13-17.06-17.29Z"/>
    <path class="cls-1" d="m920.48,1008.19c-13.95-5.59-28.81-8.19-43.54-9.17-5.47-.36-11.03-.5-16.63-.41,11.57-11.79,18.61-26,25.7-41.31,2.84-4.64,22.32-49,22.04-48.95-18.84,2.24-35.18,4.45-52.45,13.89-10.82,5.87-19.19,13.69-27.22,23.11-6.6,7.73-12.97,16.51-20.32,25.86-5.04,6.4-10.35,12.85-16.78,17.48-6.41,4.63-14.14,7.3-21.46,5.45-.91-.23-1.92-.52-2.74.05-.71.49-1.1,1.48-1.33,2.46-4.51,18.03,12.74,44.91,23.65,51.32,29.51,18.19,55.3,22.36,87.46,8.27,28.13-12.77,46.4-20.06,75.11-24.1,2.72-.37-11.48-13.02-12.5-13.8-6.1-4.01-12.31-7.46-18.99-10.14Z"/>
    <path class="cls-1" d="m1042.47,904.96c-13.64-.63-27.45,1.69-40.78,5.4-4.95,1.38-9.93,2.98-14.89,4.8,7.65-14.07,10.76-28.94,13.7-44.84,1.48-5,9.19-50.93,8.98-50.85-16.37,8.04-30.55,15.24-43.92,29.14-8.38,8.66-14.13,18.26-19.18,29.14-4.15,8.93-7.84,18.71-12.25,29.26-3.02,7.23-6.27,14.57-10.89,20.63-4.62,6.05-10.83,10.77-17.72,11.36-.86.07-1.81.13-2.41.88-.51.64-.63,1.64-.61,2.57.21,17.25,21.62,35.73,32.71,38.11,30.22,7.15,53.91,3.1,79.24-19.27,22.07-19.99,36.7-32.16,61.28-44.75,2.33-1.18-13.06-8.06-14.15-8.43-6.31-1.68-12.59-2.82-19.12-3.13Z"/>
    <path class="cls-1" d="m1128.1,772.97c-12.13,3.87-23.81,10.47-34.81,18.14-4.09,2.86-8.15,5.91-12.16,9.16,3.75-15.2,3.31-29.69,2.51-45.12.24-4.98-2.77-49.47-2.94-49.36-12.7,12.78-23.74,24.05-32.68,41.06-5.62,10.62-8.7,21.19-10.87,32.67-1.8,9.42-2.99,19.44-4.64,30.36-1.14,7.48-2.44,15.13-5.26,22.05-2.81,6.91-7.33,13.12-13.35,15.83-.75.34-1.59.69-1.96,1.55-.32.74-.2,1.67.02,2.49,3.98,15.38,27.14,25.15,37.53,23.79,28.46-3.13,48.59-14.24,66.13-42.55,15.16-25.14,25.42-40.93,44.19-60.4,1.78-1.83-13.19-3.08-14.23-3.07-5.9.53-11.65,1.54-17.47,3.38Z"/>
    <path class="cls-1" d="m1173.1,623.23c-9.42,7.67-17.91,17.72-25.65,28.5-2.88,4.01-5.7,8.2-8.44,12.53-.13-15.3-3.75-28.59-7.9-42.69-.89-4.67-13.58-45.27-13.73-45.16-7.82,16.32-14.76,30.61-18.74,49.45-2.52,11.77-2.9,22.6-2.31,33.94.48,9.31,1.6,18.94,2.5,29.52.62,7.25,1.12,14.7.13,21.97-.98,7.26-3.62,14.42-8.35,18.88-.59.56-1.25,1.15-1.4,2.06-.12.78.18,1.59.55,2.27,6.81,12.71,29.32,14.03,38.12,9.39,24.26-12.21,39.35-28.95,48.14-60.86,7.4-28.22,12.56-46.32,23.85-70.74,1.08-2.31-11.87,1.55-12.75,1.91-4.87,2.47-9.51,5.34-14.03,9.01Z"/>
    <path class="cls-1" d="m1173.17,466.68c-5.51,10.53-9.73,23.02-13.3,35.92-1.32,4.8-2.57,9.74-3.74,14.79-3.98-14.49-10.41-25.96-17.53-38.06-1.89-4.11-23.24-38.99-23.4-38.91-1.74,18.49-3.6,34.66-2.08,54.08.91,12.14,3.27,22.6,6.52,33.17,2.66,8.68,5.91,17.42,9.19,27.1,2.24,6.64,4.42,13.48,5.28,20.64.87,7.15.29,14.76-2.71,20.53-.37.72-.8,1.5-.72,2.4.07.77.52,1.42.99,1.93,8.7,9.58,28.17,3.22,34.5-4.08,17.61-19.6,26.19-40.36,25.26-73.53-1.2-29.24-1.87-48.27.26-75.5.21-2.58-9.1,5.48-9.71,6.13-3.22,4.01-6.17,8.33-8.82,13.38Z"/>
    <path class="cls-1" d="m1124,314.12c-.41,12.22.7,25.95,2.23,39.83.58,5.16,1.23,10.44,1.95,15.78-7.82-12.91-16.69-22.1-26.38-31.78-2.79-3.37-31.77-31.31-31.96-31.26,5.54,19.13,9.72,35.93,17.28,54.73,4.68,11.75,9.81,21.3,15.63,30.6,4.77,7.64,9.97,15.11,15.42,23.46,3.73,5.72,7.46,11.64,10.2,18.3,2.74,6.65,4.41,14.2,3.57,20.78-.1.82-.24,1.72.08,2.56.27.72.81,1.2,1.33,1.53,9.67,6.27,23.7-6.44,26.68-15.61,8.53-24.85,9.12-47.76-2.47-79.86-10.64-28.2-17.88-46.74-26.59-74.37-.82-2.62-4.89,8.37-5.13,9.21-.97,5.02-1.63,10.26-1.84,16.11Z"/>
    <path class="cls-1" d="m1021.31,176.28c5.87,12.49,13.38,26.08,20.93,39.67,2.81,5.05,5.69,10.19,8.61,15.38-11.64-10.67-22.59-17.35-34.47-24.38-3.56-2.52-39.17-22.89-39.42-22.88,14.02,18.1,25.2,34.17,39.33,51.16,8.78,10.63,16.72,18.81,25,26.47,6.78,6.3,13.76,12.24,21.21,18.94,5.1,4.59,10.25,9.37,14.88,15.17,4.63,5.8,8.72,12.81,10.48,19.66.22.86.44,1.8.99,2.53.47.63,1.05.93,1.58,1.09,9.71,3.1,15.92-14.1,14.69-24.18-2.98-27.51-11.83-50.48-35.06-79.16-20.93-25.09-35.47-41.69-56.67-67.07-2.01-2.42.76,9.85,1,10.77,1.9,5.35,4.1,10.84,6.91,16.83Z"/>
  </g>
</svg>