<svg width="148" height="49" viewBox="0 0 148 49" fill="none" xmlns="http://www.w3.org/2000/svg">
<g clip-path="url(#clip0_20_484)">
<path d="M16.0669 22.7242V49H20.3689V22.7242H16.0669Z" fill="#C94E23"/>
<path d="M0 0.300329L0 4.28397L20.0981 4.30994L36.5042 4.28397V0.300329L0 0.300329Z" fill="#C94E23"/>
<path d="M57.9037 21.2202C48.7818 18.9446 46.1442 16.8582 46.1442 11.9231C46.1442 7.91163 48.2528 5.21505 52.2433 4.12456L52.4423 4.07077V0.00180377L52.1161 0.0704283C44.3895 1.70618 41.6357 7.37379 41.6357 12.1308C41.6357 18.9557 45.6207 22.4961 56.337 25.1908C66.9721 27.8318 69.0531 31.2813 69.0531 36.3462C69.0531 38.95 68.2034 42.457 64.1576 44.3802L64.0027 44.4544V48.5939L64.3585 48.4752C70.2051 46.5167 73.5596 41.9952 73.5596 36.0698C73.5596 30.1444 71.663 24.6641 57.9018 21.222L57.9037 21.2202Z" fill="#C94E23"/>
<path d="M83.4758 22.7242V49H87.7096V22.7242H83.4758Z" fill="#C94E23"/>
<path d="M92.4004 8.30493C91.5857 5.33574 90.8465 2.65401 90.2475 0.498979L90.1922 0.300537H85.8018L88.102 8.65173H92.4962L92.4022 8.30678L92.4004 8.30493Z" fill="#C94E23"/>
<path d="M114.587 0.300478L114.533 0.502627C113.018 6.25555 110.611 14.7477 108.283 22.9598C105.524 32.6889 102.917 41.8784 102.431 44.3283L101.306 49H105.49L105.546 48.8034C108.926 36.9693 118.925 1.00893 119.027 0.647284L119.123 0.300478H114.588H114.587Z" fill="#C94E23"/>
<path d="M143.101 0.300478L143.046 0.497063C139.802 11.8527 129.178 48.2841 129.071 48.6513L128.969 49H133.203L148 0.300478H143.101Z" fill="#C94E23"/>
</g>
<defs>
<clipPath id="clip0_20_484">
<rect width="49" height="148" fill="white" transform="matrix(0 -1 1 0 0 49)"/>
</clipPath>
</defs>
</svg>
