<svg width="217" height="72" viewBox="0 0 217 72" fill="none" xmlns="http://www.w3.org/2000/svg">
<g clip-path="url(#clip0_138_373)">
<path d="M23.5576 33.3907L23.5576 72H29.8653L29.8653 33.3907H23.5576Z" fill="white"/>
<path d="M0 0.4414L0 6.29492L29.4681 6.33307L53.5231 6.29492V0.4414L0 0.4414Z" fill="white"/>
<path d="M84.8992 31.1806C71.5245 27.8369 67.6572 24.7711 67.6572 17.5196C67.6572 11.6252 70.7489 7.6629 76.5998 6.06053L76.8916 5.98151V0.00260925L76.4133 0.103447C65.0844 2.507 61.0469 10.8349 61.0469 17.8248C61.0469 27.8532 66.8897 33.0555 82.602 37.015C98.1955 40.8956 101.247 45.9643 101.247 53.4066C101.247 57.2326 100.001 62.3858 94.0687 65.2118L93.8417 65.3208V71.4032L94.3633 71.2288C102.936 68.3511 107.854 61.7073 107.854 53.0005C107.854 44.2938 105.073 36.2411 84.8965 31.1833L84.8992 31.1806Z" fill="white"/>
<path d="M122.394 33.3907V72H128.601V33.3907H122.394Z" fill="white"/>
<path d="M135.479 12.2031C134.284 7.84019 133.2 3.89969 132.322 0.73312L132.241 0.441532H125.804L129.176 12.7127H135.619L135.481 12.2058L135.479 12.2031Z" fill="white"/>
<path d="M168.009 0.441513L167.93 0.738548C165.709 9.19182 162.179 21.6701 158.766 33.7368C154.72 48.0327 150.899 61.5356 150.186 65.1355L148.537 72H154.672L154.753 71.7111C159.709 54.3223 174.37 1.48251 174.519 0.951111L174.66 0.441513H168.011H168.009Z" fill="white"/>
<path d="M209.817 0.441513L209.736 0.730377C204.979 17.4162 189.402 70.9481 189.245 71.4877L189.097 72H195.304L217 0.441513H209.817Z" fill="white"/>
</g>
<defs>
<clipPath id="clip0_138_373">
<rect width="72" height="217" fill="white" transform="matrix(0 -1 1 0 0 72)"/>
</clipPath>
</defs>
</svg>
