<svg width="407" height="408" viewBox="0 0 407 408" fill="none" xmlns="http://www.w3.org/2000/svg">
<path d="M193.093 50.2064C193.093 50.2064 222.515 37.0533 245.705 49.3356C268.895 61.6179 284.041 110.701 305.444 129.996C326.846 149.29 343.482 172.205 330.994 194.134C318.505 216.04 306.337 214.161 318.826 244.844C331.314 275.527 279.046 282.86 289.747 305.637C289.747 305.637 262.639 255.362 270.659 211.526C278.679 167.69 256.383 63.3594 220.728 66.8654L188.624 65.101L193.093 50.2064Z" fill="#965450"/>
<path d="M202.9 37.9469C202.9 37.9469 217.474 14.9405 248.501 35.6325C263.739 45.7838 270.247 70.5317 298.317 84.3951C329.138 99.6334 334.454 113.886 321.621 136.114C313.693 149.863 338.143 147.182 326.067 181.347C316.626 208.043 235.004 62.4886 235.004 62.4886L201.113 58.1119L202.9 37.9469Z" fill="#965450"/>
<path d="M297.767 139.872C297.767 139.872 321.851 159.303 314.312 182.287C306.773 205.247 285.187 213.749 300.288 245.898C315.389 278.048 286.264 286.182 286.264 286.182C286.264 286.182 215.801 281.233 224.44 206.668C233.056 132.104 269.559 129.858 269.559 129.858L297.767 139.895V139.872Z" fill="#824846"/>
<path d="M297.767 139.872C297.767 139.872 321.851 159.303 314.312 182.287C306.773 205.247 285.187 213.749 300.288 245.898C315.389 278.048 286.264 286.182 286.264 286.182C286.264 286.182 215.801 281.233 224.44 206.668C233.056 132.104 269.559 129.858 269.559 129.858L297.767 139.895V139.872Z" fill="#824846"/>
<path d="M118.161 84.6931C118.161 84.6931 91.2824 110.724 93.0697 135.862C94.8571 160.999 86.9973 179.95 74.0276 191.201C61.0349 202.452 61.6078 226.535 74.0734 240.582C74.0734 240.582 67.2219 224.977 75.0816 206.05C75.0816 206.05 63.6242 271.173 129.642 279.148C129.642 279.148 127.281 278.162 120.178 259.143C120.178 259.143 123.753 277.269 164.174 280.156C204.596 283.043 224.852 228.758 205.787 170.394C186.722 112.03 148.844 96.3338 148.844 96.3338L118.161 84.716V84.6931Z" fill="#824846"/>
<path d="M357.712 338.039C344.078 301.421 260.76 283.937 246.163 273.327C227.419 259.693 233.4 214.574 233.4 214.574L202.74 215.376L172.08 214.574C172.08 214.574 178.038 259.716 159.316 273.327C144.72 283.937 61.3786 301.421 47.7672 338.039C34.1329 374.656 29.0229 407.012 29.0229 407.012H376.457C376.457 407.012 371.347 374.656 357.712 338.039Z" fill="#FDDEC0"/>
<path d="M166.374 264.918C180.719 263.451 195.155 260.541 207.643 253.552C216.741 248.465 224.944 242.438 232.575 235.678C232.116 224.084 233.377 214.574 233.377 214.574L202.717 215.376L172.057 214.574C172.057 214.574 176.296 246.7 166.374 264.918Z" fill="#E2C6AF"/>
<path d="M360.118 337.534C346.851 301.856 267.932 284.212 249.44 273.419C234.843 281.92 217.016 286.916 197.79 286.916C181.062 286.916 165.434 283.135 152.029 276.581C126.113 287.603 59.9349 305.133 47.8818 337.534C34.1558 374.427 29 407.012 29 407.012H379C379 407.012 373.844 374.404 360.118 337.534Z" fill="#6F96BD"/>
<path d="M151.25 144.203C146.301 128.85 134.568 132.402 133.468 132.768C132.323 132.906 120.201 134.693 122.286 150.71C124.394 166.819 133.743 175.527 142.497 172.961C151.502 171.54 156.223 159.647 151.25 144.203Z" fill="#E2C6AF"/>
<path d="M252.671 144.203C257.621 128.85 269.353 132.402 270.453 132.768C271.599 132.906 283.72 134.693 281.635 150.71C279.527 166.819 270.178 175.527 261.424 172.961C252.419 171.54 247.698 159.647 252.671 144.203Z" fill="#E2C6AF"/>
<path d="M262.891 120.028C256.75 52.6812 205.558 56.4621 200.723 56.9663C195.888 56.4621 144.697 52.6812 138.556 120.028C132.391 187.764 162.547 232.012 200.723 229.583C238.876 232.012 269.055 187.764 262.891 120.028Z" fill="#FDDEC0"/>
<path d="M208.033 143.034C211.883 151.742 213.258 161.182 213.83 170.6C210.76 172.961 207.689 175.252 204.115 177.039C205.948 173.808 208.193 171.036 210.508 168.309L209.935 169.982C207.987 161.16 206.841 152.062 208.033 143.034Z" fill="#E2C6AF"/>
<path d="M171.072 186.939L231.819 186.297C231.819 186.297 207.529 210.197 171.072 186.939Z" fill="white"/>
<path d="M186.654 199.13C199.99 203.827 214.22 202.979 225.929 194.661C216.42 205.821 198.5 207.058 186.654 199.13Z" fill="#E2C6AF"/>
<path d="M168.872 144.042C168.872 149.106 170.751 153.231 173.065 153.231C175.38 153.231 177.259 149.129 177.259 144.042C177.259 138.955 175.38 134.854 173.065 134.854C170.751 134.854 168.872 138.955 168.872 144.042Z" fill="#352C38"/>
<path d="M226.663 144.042C226.663 149.106 228.542 153.231 230.856 153.231C233.171 153.231 235.05 149.129 235.05 144.042C235.05 138.955 233.171 134.854 230.856 134.854C228.542 134.854 226.663 138.955 226.663 144.042Z" fill="#352C38"/>
<path d="M158.56 129.01C163.945 116.155 182.093 114.047 187.845 127.796C186.424 127.177 185.279 126.375 184.018 125.756C175.379 120.6 166.557 124.198 158.537 129.01H158.56Z" fill="#352C38"/>
<path d="M216.741 129.01C222.126 116.155 240.274 114.047 246.026 127.796C244.605 127.177 243.459 126.375 242.199 125.756C233.56 120.6 224.738 124.198 216.718 129.01H216.741Z" fill="#352C38"/>
<path d="M203.061 76.1228C203.061 76.1228 178.725 64.4134 166.993 92.3465C155.283 120.302 157.781 159.853 126.342 173.969C90.7324 189.963 103.885 227.566 103.885 227.566C103.885 227.566 80.4437 208.639 87.6618 190.605C94.8799 172.571 129.138 148.236 136.333 113.978C143.551 79.7205 180.512 47.2732 203.038 76.1228H203.061Z" fill="#965450"/>
<path d="M202.992 76.6041C162.478 67.6215 166.97 121.105 156.406 146.265C152.19 158.089 143.917 168.859 132.323 174.175C111.516 183.639 104.687 205.087 112.639 225.94C106.383 210.678 108.239 191.178 121.392 180.018C127.419 174.29 135.806 171.884 141.695 166.017C147.63 160.449 151.663 153.185 154.298 145.486C163.785 121.036 157.391 76.4208 191.213 70.4859C195.796 69.8442 200.081 69.9359 204.71 71.0587L203.037 76.627L202.992 76.6041Z" fill="#965450"/>
<path d="M204.825 37.6949L203.061 76.1229C203.061 76.1229 156.177 53.5748 139.06 144.638C139.06 144.638 66.7178 216.659 83.9038 181.141C101.09 145.623 65.1366 129.308 94.88 104.056C124.623 78.8039 127.327 78.8039 144.468 57.1724C161.608 35.5409 182.3 16.957 204.825 37.6949Z" fill="#965450"/>
<path d="M203.061 76.1229C203.061 76.1229 228.175 62.1908 236.287 88.3365C244.399 114.482 260.668 129.354 264.93 154.033C270.27 184.968 225.242 230.133 232.437 257.172C239.655 284.212 267.68 275.71 267.68 275.71C267.68 275.71 241.901 269.753 245.522 251.719C249.119 233.685 312.547 189.161 310.76 166.613C308.95 144.065 305.65 154.331 296.621 114.666C287.616 75.0001 244.651 40.3301 202.281 54.7435C178.244 33.112 203.061 76.0771 203.061 76.0771V76.1229Z" fill="#965450"/>
<path d="M202.121 74.1066C212.158 70.4631 227.236 68.6758 233.125 79.8352C236.814 86.2285 238.097 93.5841 240.457 100.39C243.299 108.845 247.951 116.499 253.313 123.58C266.695 140.17 262.135 163.268 253.313 180.843C251.823 184.143 249.921 187.26 248.661 190.559C246.117 197.182 246.369 204.904 249.463 211.435C241.282 195.486 251.548 184.945 256.246 170.371C260.829 157.127 261.952 141.659 254.344 129.377C250.38 123.327 245.636 117.805 242.359 111.32C236.883 101.902 235.875 90.6052 230.673 81.1872C225.288 71.4943 212.135 73.5795 203.084 76.6043L202.121 74.0836V74.1066Z" fill="#965450"/>
<path d="M252.327 112.007C252.327 112.007 265.32 144.478 260.347 167.759C260.347 167.759 269.513 145.99 266.832 126.123C264.151 106.256 252.327 111.984 252.327 111.984V112.007Z" fill="#824846"/>
<rect x="2" y="2" width="403" height="403" rx="8" stroke="#C94E23" stroke-width="4"/>
</svg>
