<svg width="407" height="408" viewBox="0 0 407 408" fill="none" xmlns="http://www.w3.org/2000/svg">
<path d="M357.712 338.542C344.078 301.924 260.76 284.44 246.163 273.83C227.419 260.196 233.4 215.077 233.4 215.077L202.74 215.879L172.08 215.077C172.08 215.077 178.038 260.219 159.316 273.83C144.72 284.44 61.3786 301.924 47.7672 338.542C34.1329 375.159 29.0229 407.515 29.0229 407.515H376.457C376.457 407.515 371.347 375.159 357.712 338.542Z" fill="#FDDEC0"/>
<path d="M166.374 265.421C180.719 263.954 195.155 261.044 207.643 254.055C216.741 248.968 224.944 242.941 232.575 236.181C232.116 224.587 233.377 215.077 233.377 215.077L202.717 215.879L172.057 215.077C172.057 215.077 176.296 247.203 166.374 265.421Z" fill="#E2C6AF"/>
<path d="M360.118 338.038C346.851 302.359 267.932 284.715 249.44 273.922C248.18 274.655 246.896 275.32 245.59 275.984L204.962 321.768L148.775 278.39C120.98 289.481 59.4537 306.896 47.8818 338.015C34.1558 374.907 29 407.492 29 407.492H379C379 407.492 373.844 374.885 360.118 338.015V338.038Z" fill="#FC6A5A"/>
<mask id="mask0_449_425" style="mask-type:luminance" maskUnits="userSpaceOnUse" x="29" y="273" width="350" height="135">
<path d="M360.118 338.038C346.851 302.359 267.932 284.715 249.44 273.922C248.18 274.655 246.896 275.32 245.59 275.984L204.962 321.768L148.775 278.39C120.98 289.481 59.4537 306.896 47.8818 338.015C34.1558 374.907 29 407.492 29 407.492H379C379 407.492 373.844 374.885 360.118 338.015V338.038Z" fill="white"/>
</mask>
<g mask="url(#mask0_449_425)">
<path d="M31.5664 380.98H377.579" stroke="#F99787" stroke-width="3" stroke-miterlimit="10"/>
<path d="M31.5664 391.658H377.579" stroke="#F99787" stroke-miterlimit="10"/>
</g>
<path d="M191.97 296.562L204.962 321.768L214.128 293.514L221.003 307.263L204.183 324.839L185.095 308.019L191.97 296.562Z" fill="#BC7068"/>
<path d="M145.384 279.009L179.756 328.642L191.97 296.562L156.062 260.677L145.384 279.009Z" fill="#F99787"/>
<path d="M258.422 275.182L226.342 325.595L214.128 293.514L250.013 257.607L258.422 275.182Z" fill="#F99787"/>
<path d="M151.25 144.706C146.3 129.353 134.568 132.904 133.468 133.271C132.322 133.409 120.201 135.196 122.286 151.213C124.394 167.322 133.743 176.03 142.497 173.464C151.502 172.043 156.223 160.15 151.25 144.706Z" fill="#E2C6AF"/>
<path d="M247.309 143.17C252.258 127.817 263.991 131.369 265.091 131.736C266.236 131.873 278.358 133.661 276.273 149.678C274.165 165.787 264.816 174.495 256.062 171.928C247.057 170.508 242.336 158.615 247.309 143.17Z" fill="#E2C6AF"/>
<path d="M262.891 120.531C256.75 53.1841 205.558 56.9651 200.723 57.4692C195.888 56.9651 144.696 53.1841 138.555 120.531C132.391 188.267 162.547 232.515 200.723 230.086C238.876 232.515 269.055 188.267 262.891 120.531Z" fill="#FDDEC0"/>
<path d="M208.033 143.537C211.883 152.244 213.258 161.685 213.83 171.103C210.76 173.464 207.689 175.755 204.115 177.542C205.948 174.311 208.193 171.539 210.508 168.812L209.935 170.485C207.987 161.662 206.841 152.565 208.033 143.537Z" fill="#E2C6AF"/>
<path d="M171.071 187.442L231.818 186.8C231.818 186.8 207.529 210.7 171.071 187.442Z" fill="white"/>
<path d="M186.653 199.632C199.99 204.33 214.22 203.482 225.929 195.164C216.42 206.324 198.5 207.561 186.653 199.632Z" fill="#E2C6AF"/>
<path d="M173.088 153.734C175.404 153.734 177.281 149.62 177.281 144.545C177.281 139.47 175.404 135.356 173.088 135.356C170.772 135.356 168.894 139.47 168.894 144.545C168.894 149.62 170.772 153.734 173.088 153.734Z" fill="#352C38"/>
<path d="M226.662 144.545C226.662 149.609 228.541 153.734 230.856 153.734C233.17 153.734 235.049 149.632 235.049 144.545C235.049 139.458 233.17 135.356 230.856 135.356C228.541 135.356 226.662 139.458 226.662 144.545Z" fill="#352C38"/>
<path d="M158.56 129.513C163.945 116.658 182.093 114.55 187.845 128.299C186.424 127.68 185.278 126.878 184.018 126.259C175.379 121.103 166.557 124.701 158.537 129.513H158.56Z" fill="#352C38"/>
<path d="M216.74 129.513C222.125 116.658 240.274 114.55 246.026 128.299C244.605 127.68 243.459 126.878 242.199 126.259C233.56 121.103 224.738 124.701 216.718 129.513H216.74Z" fill="#352C38"/>
<path d="M159.729 94.339C159.729 94.339 178.221 118.606 207.231 122.432L200.356 112.51C200.356 112.51 211.814 120.92 231.681 124.724C231.681 124.724 235.508 110.975 226.342 96.4701C226.342 96.4701 239.334 124.724 254.596 135.425C254.596 135.425 260.714 115.558 253.06 104.101C253.06 104.101 257.918 109.509 272.446 127.061C272.446 127.061 288.693 77.7716 248.982 51.0301C209.27 24.2886 166.878 48.4178 153.129 62.9229C153.129 62.9229 128.679 54.6506 123.042 87.3729C118.39 114.481 128.656 135.311 128.656 135.311C128.656 135.311 137.249 129.651 137.249 147.203L139.266 165.191H144.605L145.361 129.284C145.361 129.284 158.949 124.105 159.729 94.3161V94.339Z" fill="#352C38"/>
<path d="M256.291 164.206C258.216 164.137 260.141 164.092 262.066 164.023C267.336 145.164 263.762 110.975 263.762 110.975C263.762 110.975 245.911 75.5031 253.06 104.101C258.972 127.726 256.933 156.873 256.291 164.206Z" fill="#352C38"/>
<rect x="2" y="2" width="403" height="403" rx="8" stroke="#C94E23" stroke-width="4"/>
</svg>
