<svg width="407" height="407" viewBox="0 0 407 407" fill="none" xmlns="http://www.w3.org/2000/svg">
<path d="M357.721 337.486C344.084 300.865 260.761 283.365 246.165 272.747C227.441 259.106 233.388 213.981 233.388 213.981L202.722 214.792L172.057 213.981C172.057 213.981 178.028 259.131 159.279 272.747C144.684 283.365 61.3364 300.865 47.7237 337.486C34.1109 374.107 29 406.477 29 406.477H376.445C376.445 406.477 371.334 374.107 357.721 337.486Z" fill="#FFAC9D"/>
<path d="M166.381 264.317C180.731 262.842 195.154 259.942 207.661 252.937C216.777 247.849 224.96 241.828 232.577 235.044C232.135 223.443 233.388 213.932 233.388 213.932L202.722 214.743L172.057 213.932C172.057 213.932 176.308 246.055 166.381 264.292V264.317Z" fill="#CC887F"/>
<path d="M360.129 336.97C349.514 308.435 296.955 291.451 266.855 280.268C253.758 295.384 230.513 305.436 204 305.436C177.487 305.436 154.242 295.384 141.145 280.268C111.045 291.451 58.4861 308.459 47.8711 336.97C34.1355 373.862 29 406.477 29 406.477H379C379 406.477 373.865 373.862 360.129 336.97Z" fill="#6F96BD"/>
<path d="M203.877 317.111C237.516 317.111 266.363 303.716 278.747 284.618C274.521 283.07 270.516 281.62 266.855 280.243C253.758 295.359 230.513 305.411 204 305.411C177.487 305.411 154.242 295.359 141.145 280.243C137.411 281.62 133.356 283.094 129.056 284.667C141.465 303.74 170.288 317.111 203.877 317.111Z" fill="#85B7E0"/>
<path d="M151.244 143.589C146.281 128.228 134.56 131.792 133.479 132.16C132.324 132.283 120.21 134.102 122.299 150.102C124.412 166.201 133.749 174.926 142.497 172.37C151.515 170.945 156.232 159.049 151.244 143.589Z" fill="#CC887F"/>
<path d="M250.367 143.589C255.33 128.228 267.051 131.792 268.132 132.16C269.287 132.283 281.401 134.102 279.312 150.102C277.199 166.201 267.862 174.926 259.114 172.37C250.097 170.945 245.379 159.049 250.367 143.589Z" fill="#CC887F"/>
<path d="M262.874 119.404C256.731 52.0356 205.548 55.8207 200.707 56.3122C195.891 55.7961 144.684 52.0356 138.541 119.404C132.373 187.166 162.547 231.431 200.707 228.998C238.867 231.431 269.041 187.166 262.874 119.404Z" fill="#FFAC9D"/>
<path d="M208.03 142.409C210.855 151.257 212.207 160.351 212.969 169.568C210.118 172.001 207.194 174.312 204.098 176.425C206.26 173.574 208.619 170.895 211.077 168.315L210.757 169.273C208.988 160.425 207.808 151.503 208.03 142.434V142.409Z" fill="#CC887F"/>
<path d="M171.074 186.33L231.84 185.691C231.84 185.691 207.538 209.606 171.074 186.33Z" fill="white"/>
<path d="M186.652 198.546C200.142 202.945 214.001 202.134 225.918 194.073C216.63 205.526 198.348 206.779 186.652 198.546Z" fill="#CC887F"/>
<path d="M168.862 143.417C168.862 148.48 170.754 152.609 173.064 152.609C175.374 152.609 177.266 148.505 177.266 143.417C177.266 138.329 175.374 134.225 173.064 134.225C170.754 134.225 168.862 138.329 168.862 143.417Z" fill="#352C38"/>
<path d="M226.655 143.417C226.655 148.48 228.547 152.609 230.857 152.609C233.166 152.609 235.058 148.505 235.058 143.417C235.058 138.329 233.166 134.225 230.857 134.225C228.547 134.225 226.655 138.329 226.655 143.417Z" fill="#352C38"/>
<path d="M158.542 128.4C163.702 115.3 182.303 113.186 187.832 127.171C186.382 126.581 185.202 125.794 183.949 125.205C175.3 120.215 166.626 123.779 158.542 128.4Z" fill="#352C38"/>
<path d="M216.728 128.4C221.888 115.3 240.489 113.186 246.018 127.171C244.568 126.581 243.388 125.794 242.135 125.205C233.486 120.215 224.812 123.779 216.728 128.4Z" fill="#352C38"/>
<path d="M138.762 152.634C138.762 152.634 122.716 86.15 131.882 67.0528C141.047 47.9555 151.736 54.0755 151.736 54.0755C151.736 54.0755 166.258 14.3327 196.8 21.9765C227.343 29.6203 244.912 43.3594 260.957 29.6203C260.957 29.6203 260.957 41.8356 251.792 47.1936C251.792 47.1936 270.884 47.1936 278.526 28.8583C278.526 28.8583 289.927 68.0605 264.741 81.7996C264.741 81.7996 266.633 130.784 264.79 148.8L257.91 148.038C257.91 148.038 254.102 122.059 251.792 89.1977C251.792 89.1977 212.059 110.581 163.948 73.1481C163.948 73.1481 170.828 98.3653 143.332 114.415L145.617 149.562L138.737 152.609L138.762 152.634Z" fill="#965450"/>
<path d="M236.607 94.0148C225.23 93.2283 213.853 90.7213 204.639 87.1821C183.974 79.2434 166.233 55.6975 164.833 32.9136C156.06 42.4007 151.785 54.0753 151.785 54.0753C151.785 54.0753 141.096 47.9554 131.931 67.0526C122.766 86.1498 138.811 152.634 138.811 152.634L145.691 149.586L143.406 114.439C170.902 98.3897 164.022 73.1726 164.022 73.1726C194.024 96.5218 220.782 96.9888 236.656 94.0394L236.607 94.0148Z" fill="#76413B"/>
<rect x="2" y="2" width="403" height="403" rx="8" stroke="#C94E23" stroke-width="4"/>
</svg>
